<?xml version="1.0" encoding="UTF-8"?>
<svg xmlns="http://www.w3.org/2000/svg" version="1.1" width="200" height="200" viewBox="0 0 200 200"><rect x="0" y="0" width="200" height="200" fill="#ffffff"/><g transform="scale(9.524)"><g transform="translate(0,0)"><path fill-rule="evenodd" d="M9 0L9 1L8 1L8 2L9 2L9 3L8 3L8 4L10 4L10 5L8 5L8 7L9 7L9 6L10 6L10 8L6 8L6 9L9 9L9 10L8 10L8 11L7 11L7 10L6 10L6 11L7 11L7 12L5 12L5 10L4 10L4 9L5 9L5 8L0 8L0 13L8 13L8 15L10 15L10 14L12 14L12 15L11 15L11 16L12 16L12 17L10 17L10 19L9 19L9 16L8 16L8 21L9 21L9 20L10 20L10 21L11 21L11 20L13 20L13 21L16 21L16 20L19 20L19 21L20 21L20 20L19 20L19 18L20 18L20 17L18 17L18 16L19 16L19 15L18 15L18 16L17 16L17 17L16 17L16 18L14 18L14 17L15 17L15 16L16 16L16 14L21 14L21 13L20 13L20 12L21 12L21 11L20 11L20 12L19 12L19 10L21 10L21 9L20 9L20 8L19 8L19 9L18 9L18 8L17 8L17 9L16 9L16 8L15 8L15 9L16 9L16 10L14 10L14 8L13 8L13 9L12 9L12 7L13 7L13 4L12 4L12 2L13 2L13 1L12 1L12 0L11 0L11 1L12 1L12 2L11 2L11 4L10 4L10 2L9 2L9 1L10 1L10 0ZM11 6L11 7L12 7L12 6ZM10 8L10 9L11 9L11 8ZM1 9L1 10L3 10L3 11L4 11L4 10L3 10L3 9ZM9 10L9 11L8 11L8 13L10 13L10 10ZM16 10L16 12L18 12L18 13L19 13L19 12L18 12L18 10ZM1 11L1 12L2 12L2 11ZM11 11L11 13L12 13L12 14L13 14L13 15L12 15L12 16L15 16L15 15L14 15L14 14L16 14L16 13L14 13L14 14L13 14L13 13L12 13L12 12L15 12L15 11ZM12 17L12 18L11 18L11 19L10 19L10 20L11 20L11 19L12 19L12 18L13 18L13 17ZM17 17L17 18L16 18L16 19L18 19L18 17ZM13 19L13 20L15 20L15 19ZM0 0L0 7L7 7L7 0ZM1 1L1 6L6 6L6 1ZM2 2L2 5L5 5L5 2ZM14 0L14 7L21 7L21 0ZM15 1L15 6L20 6L20 1ZM16 2L16 5L19 5L19 2ZM0 14L0 21L7 21L7 14ZM1 15L1 20L6 20L6 15ZM2 16L2 19L5 19L5 16Z" fill="#000000"/></g></g></svg>
