<?xml version="1.0" encoding="UTF-8"?>
<svg xmlns="http://www.w3.org/2000/svg" version="1.1" width="200" height="200" viewBox="0 0 200 200"><rect x="0" y="0" width="200" height="200" fill="#ffffff"/><g transform="scale(8)"><g transform="translate(0,0)"><path fill-rule="evenodd" d="M8 0L8 1L10 1L10 0ZM16 0L16 1L17 1L17 0ZM13 1L13 2L11 2L11 4L10 4L10 3L9 3L9 2L8 2L8 5L9 5L9 6L8 6L8 7L9 7L9 8L8 8L8 9L9 9L9 10L8 10L8 11L7 11L7 10L6 10L6 11L7 11L7 12L6 12L6 13L5 13L5 12L3 12L3 10L5 10L5 9L4 9L4 8L0 8L0 9L2 9L2 11L1 11L1 10L0 10L0 11L1 11L1 12L0 12L0 13L1 13L1 12L2 12L2 13L3 13L3 15L5 15L5 16L6 16L6 17L8 17L8 18L9 18L9 19L10 19L10 18L12 18L12 21L11 21L11 20L9 20L9 21L8 21L8 25L11 25L11 24L10 24L10 22L11 22L11 23L13 23L13 25L14 25L14 24L15 24L15 23L16 23L16 21L17 21L17 23L19 23L19 22L20 22L20 24L21 24L21 25L25 25L25 24L23 24L23 23L24 23L24 22L25 22L25 20L24 20L24 19L25 19L25 17L23 17L23 16L22 16L22 17L21 17L21 16L20 16L20 15L19 15L19 16L18 16L18 14L19 14L19 13L20 13L20 14L22 14L22 13L24 13L24 14L25 14L25 11L24 11L24 12L23 12L23 10L22 10L22 9L23 9L23 8L20 8L20 9L21 9L21 10L19 10L19 11L17 11L17 10L18 10L18 8L17 8L17 5L16 5L16 4L17 4L17 3L16 3L16 2L15 2L15 1ZM14 3L14 4L12 4L12 5L10 5L10 6L9 6L9 7L10 7L10 8L9 8L9 9L10 9L10 10L9 10L9 12L7 12L7 13L6 13L6 14L7 14L7 15L6 15L6 16L7 16L7 15L8 15L8 17L9 17L9 16L12 16L12 17L13 17L13 16L14 16L14 19L13 19L13 23L15 23L15 22L14 22L14 21L16 21L16 20L15 20L15 16L16 16L16 15L17 15L17 14L18 14L18 12L17 12L17 11L16 11L16 10L17 10L17 8L15 8L15 9L14 9L14 5L15 5L15 7L16 7L16 5L15 5L15 3ZM10 6L10 7L11 7L11 6ZM12 6L12 7L13 7L13 6ZM6 8L6 9L7 9L7 8ZM12 8L12 9L11 9L11 12L12 12L12 10L13 10L13 13L14 13L14 14L12 14L12 16L13 16L13 15L14 15L14 16L15 16L15 15L14 15L14 14L15 14L15 12L16 12L16 14L17 14L17 12L16 12L16 11L15 11L15 12L14 12L14 10L13 10L13 8ZM24 8L24 9L25 9L25 8ZM20 11L20 12L21 12L21 13L22 13L22 11ZM9 12L9 13L10 13L10 14L8 14L8 13L7 13L7 14L8 14L8 15L11 15L11 13L10 13L10 12ZM1 14L1 15L0 15L0 16L1 16L1 15L2 15L2 14ZM2 16L2 17L3 17L3 16ZM17 17L17 20L20 20L20 17ZM18 18L18 19L19 19L19 18ZM23 18L23 19L22 19L22 20L21 20L21 21L22 21L22 23L23 23L23 19L24 19L24 18ZM9 21L9 22L10 22L10 21ZM17 24L17 25L19 25L19 24ZM0 0L0 7L7 7L7 0ZM1 1L1 6L6 6L6 1ZM2 2L2 5L5 5L5 2ZM18 0L18 7L25 7L25 0ZM19 1L19 6L24 6L24 1ZM20 2L20 5L23 5L23 2ZM0 18L0 25L7 25L7 18ZM1 19L1 24L6 24L6 19ZM2 20L2 23L5 23L5 20Z" fill="#000000"/></g></g></svg>
