<?xml version="1.0" encoding="UTF-8"?>
<svg xmlns="http://www.w3.org/2000/svg" version="1.1" width="200" height="200" viewBox="0 0 200 200"><rect x="0" y="0" width="200" height="200" fill="#ffffff"/><g transform="scale(8)"><g transform="translate(0,0)"><path fill-rule="evenodd" d="M10 0L10 1L8 1L8 3L9 3L9 4L8 4L8 8L6 8L6 9L4 9L4 8L3 8L3 9L2 9L2 8L0 8L0 11L1 11L1 12L0 12L0 13L1 13L1 14L0 14L0 15L1 15L1 16L0 16L0 17L5 17L5 14L6 14L6 15L7 15L7 16L6 16L6 17L8 17L8 19L11 19L11 20L9 20L9 21L8 21L8 22L9 22L9 23L8 23L8 25L9 25L9 23L11 23L11 21L12 21L12 22L13 22L13 23L12 23L12 24L13 24L13 25L15 25L15 23L16 23L16 25L19 25L19 24L20 24L20 25L22 25L22 22L23 22L23 21L22 21L22 20L24 20L24 19L25 19L25 9L24 9L24 8L22 8L22 9L21 9L21 8L18 8L18 9L17 9L17 10L16 10L16 12L15 12L15 11L13 11L13 14L16 14L16 12L18 12L18 14L17 14L17 15L16 15L16 16L15 16L15 15L13 15L13 16L14 16L14 17L13 17L13 18L12 18L12 17L11 17L11 16L10 16L10 18L9 18L9 17L8 17L8 16L9 16L9 15L8 15L8 14L9 14L9 12L10 12L10 13L12 13L12 12L11 12L11 11L9 11L9 10L10 10L10 9L8 9L8 8L9 8L9 5L10 5L10 8L11 8L11 9L12 9L12 10L14 10L14 9L15 9L15 8L11 8L11 4L10 4L10 3L9 3L9 2L11 2L11 0ZM14 0L14 1L13 1L13 2L14 2L14 3L15 3L15 6L14 6L14 7L15 7L15 6L16 6L16 7L17 7L17 6L16 6L16 4L17 4L17 3L16 3L16 2L17 2L17 1L16 1L16 0ZM14 1L14 2L15 2L15 1ZM12 4L12 5L14 5L14 4ZM12 6L12 7L13 7L13 6ZM1 9L1 11L2 11L2 14L1 14L1 15L2 15L2 14L3 14L3 15L4 15L4 14L5 14L5 13L6 13L6 14L8 14L8 13L6 13L6 12L7 12L7 11L8 11L8 12L9 12L9 11L8 11L8 10L7 10L7 9L6 9L6 10L7 10L7 11L6 11L6 12L5 12L5 10L2 10L2 9ZM19 9L19 11L18 11L18 12L20 12L20 13L19 13L19 15L21 15L21 19L24 19L24 18L23 18L23 17L22 17L22 16L23 16L23 14L24 14L24 13L23 13L23 12L24 12L24 11L22 11L22 13L21 13L21 12L20 12L20 10L21 10L21 9ZM22 9L22 10L23 10L23 9ZM3 12L3 13L4 13L4 12ZM22 13L22 14L23 14L23 13ZM11 14L11 15L12 15L12 14ZM14 17L14 18L13 18L13 20L14 20L14 21L13 21L13 22L14 22L14 21L15 21L15 22L16 22L16 23L18 23L18 24L19 24L19 22L20 22L20 21L17 21L17 22L16 22L16 17ZM17 17L17 20L20 20L20 17ZM11 18L11 19L12 19L12 18ZM14 18L14 19L15 19L15 18ZM18 18L18 19L19 19L19 18ZM9 21L9 22L10 22L10 21ZM24 22L24 23L25 23L25 22ZM23 24L23 25L25 25L25 24ZM0 0L0 7L7 7L7 0ZM1 1L1 6L6 6L6 1ZM2 2L2 5L5 5L5 2ZM18 0L18 7L25 7L25 0ZM19 1L19 6L24 6L24 1ZM20 2L20 5L23 5L23 2ZM0 18L0 25L7 25L7 18ZM1 19L1 24L6 24L6 19ZM2 20L2 23L5 23L5 20Z" fill="#000000"/></g></g></svg>
