<?xml version="1.0" encoding="UTF-8"?>
<svg xmlns="http://www.w3.org/2000/svg" version="1.1" width="200" height="200" viewBox="0 0 200 200"><rect x="0" y="0" width="200" height="200" fill="#ffffff"/><g transform="scale(8)"><g transform="translate(0,0)"><path fill-rule="evenodd" d="M9 0L9 1L8 1L8 2L9 2L9 3L8 3L8 4L10 4L10 7L11 7L11 4L12 4L12 8L13 8L13 9L11 9L11 8L6 8L6 9L8 9L8 10L9 10L9 12L6 12L6 11L7 11L7 10L5 10L5 12L4 12L4 11L2 11L2 17L3 17L3 16L4 16L4 17L8 17L8 19L9 19L9 17L10 17L10 18L12 18L12 19L10 19L10 21L9 21L9 20L8 20L8 25L10 25L10 23L11 23L11 22L13 22L13 21L14 21L14 24L13 24L13 23L12 23L12 24L13 24L13 25L14 25L14 24L17 24L17 25L19 25L19 24L21 24L21 25L25 25L25 21L24 21L24 20L25 20L25 18L24 18L24 17L25 17L25 16L20 16L20 14L18 14L18 13L21 13L21 12L22 12L22 13L23 13L23 14L21 14L21 15L23 15L23 14L24 14L24 15L25 15L25 14L24 14L24 13L25 13L25 12L22 12L22 11L25 11L25 10L22 10L22 8L21 8L21 10L22 10L22 11L21 11L21 12L18 12L18 11L20 11L20 10L18 10L18 8L17 8L17 6L16 6L16 5L15 5L15 4L17 4L17 2L16 2L16 1L17 1L17 0L16 0L16 1L15 1L15 2L14 2L14 1L11 1L11 2L10 2L10 0ZM12 2L12 3L14 3L14 4L13 4L13 5L14 5L14 4L15 4L15 3L16 3L16 2L15 2L15 3L14 3L14 2ZM10 3L10 4L11 4L11 3ZM8 5L8 7L9 7L9 5ZM13 6L13 8L16 8L16 6L15 6L15 7L14 7L14 6ZM0 8L0 11L1 11L1 10L4 10L4 9L5 9L5 8ZM19 8L19 9L20 9L20 8ZM23 8L23 9L24 9L24 8ZM10 9L10 11L12 11L12 10L11 10L11 9ZM13 9L13 10L17 10L17 9ZM13 11L13 12L10 12L10 13L13 13L13 14L10 14L10 15L9 15L9 13L8 13L8 14L7 14L7 13L6 13L6 14L5 14L5 13L4 13L4 12L3 12L3 14L5 14L5 15L4 15L4 16L7 16L7 15L8 15L8 17L9 17L9 16L10 16L10 17L12 17L12 18L14 18L14 19L12 19L12 20L11 20L11 21L10 21L10 22L9 22L9 23L10 23L10 22L11 22L11 21L13 21L13 20L14 20L14 21L15 21L15 20L16 20L16 19L15 19L15 18L16 18L16 15L15 15L15 13L16 13L16 11ZM0 12L0 17L1 17L1 12ZM13 12L13 13L15 13L15 12ZM17 12L17 13L18 13L18 12ZM6 14L6 15L7 15L7 14ZM10 15L10 16L11 16L11 15ZM12 15L12 17L15 17L15 15L14 15L14 16L13 16L13 15ZM18 15L18 16L19 16L19 15ZM17 17L17 20L20 20L20 17ZM21 17L21 18L23 18L23 19L21 19L21 20L24 20L24 18L23 18L23 17ZM18 18L18 19L19 19L19 18ZM14 19L14 20L15 20L15 19ZM16 21L16 22L15 22L15 23L17 23L17 24L18 24L18 23L21 23L21 24L24 24L24 22L23 22L23 21L22 21L22 22L17 22L17 21ZM0 0L0 7L7 7L7 0ZM1 1L1 6L6 6L6 1ZM2 2L2 5L5 5L5 2ZM18 0L18 7L25 7L25 0ZM19 1L19 6L24 6L24 1ZM20 2L20 5L23 5L23 2ZM0 18L0 25L7 25L7 18ZM1 19L1 24L6 24L6 19ZM2 20L2 23L5 23L5 20Z" fill="#000000"/></g></g></svg>
