<?xml version="1.0" encoding="UTF-8"?>
<svg xmlns="http://www.w3.org/2000/svg" version="1.1" width="200" height="200" viewBox="0 0 200 200"><rect x="0" y="0" width="200" height="200" fill="#ffffff"/><g transform="scale(8)"><g transform="translate(0,0)"><path fill-rule="evenodd" d="M8 0L8 1L10 1L10 0ZM16 0L16 1L17 1L17 0ZM13 1L13 2L11 2L11 4L10 4L10 3L9 3L9 2L8 2L8 5L9 5L9 6L8 6L8 7L9 7L9 8L8 8L8 9L7 9L7 8L6 8L6 9L4 9L4 8L0 8L0 9L3 9L3 13L1 13L1 15L0 15L0 16L1 16L1 15L3 15L3 16L2 16L2 17L8 17L8 18L9 18L9 19L11 19L11 20L13 20L13 18L15 18L15 19L14 19L14 20L16 20L16 22L15 22L15 21L13 21L13 22L12 22L12 21L10 21L10 20L9 20L9 21L8 21L8 25L11 25L11 24L9 24L9 23L10 23L10 22L11 22L11 23L12 23L12 24L13 24L13 25L14 25L14 23L15 23L15 25L16 25L16 22L17 22L17 25L19 25L19 24L20 24L20 23L22 23L22 25L25 25L25 24L23 24L23 23L24 23L24 22L25 22L25 20L24 20L24 19L25 19L25 17L23 17L23 16L22 16L22 17L21 17L21 15L20 15L20 14L22 14L22 13L24 13L24 14L25 14L25 11L24 11L24 12L23 12L23 10L22 10L22 9L23 9L23 8L20 8L20 9L19 9L19 11L22 11L22 13L21 13L21 12L18 12L18 11L17 11L17 10L16 10L16 11L15 11L15 12L16 12L16 14L17 14L17 12L18 12L18 14L19 14L19 15L20 15L20 16L17 16L17 15L16 15L16 16L15 16L15 15L14 15L14 10L13 10L13 8L12 8L12 7L13 7L13 6L12 6L12 7L11 7L11 6L10 6L10 5L12 5L12 4L14 4L14 3L15 3L15 5L14 5L14 9L15 9L15 8L17 8L17 9L18 9L18 8L17 8L17 5L16 5L16 4L17 4L17 3L16 3L16 2L15 2L15 1ZM15 5L15 7L16 7L16 5ZM9 6L9 7L10 7L10 8L9 8L9 9L10 9L10 10L9 10L9 12L8 12L8 11L5 11L5 12L7 12L7 13L4 13L4 15L6 15L6 16L8 16L8 17L10 17L10 18L11 18L11 19L12 19L12 18L13 18L13 17L12 17L12 18L11 18L11 17L10 17L10 16L9 16L9 14L8 14L8 15L6 15L6 14L7 14L7 13L9 13L9 12L10 12L10 13L11 13L11 15L12 15L12 12L13 12L13 11L11 11L11 9L12 9L12 8L11 8L11 7L10 7L10 6ZM24 8L24 9L25 9L25 8ZM6 9L6 10L7 10L7 9ZM20 9L20 10L21 10L21 9ZM1 10L1 12L2 12L2 10ZM16 11L16 12L17 12L17 11ZM19 13L19 14L20 14L20 13ZM13 15L13 16L14 16L14 15ZM17 17L17 20L20 20L20 17ZM18 18L18 19L19 19L19 18ZM23 18L23 19L21 19L21 20L22 20L22 21L23 21L23 19L24 19L24 18ZM13 22L13 23L14 23L14 22ZM19 22L19 23L18 23L18 24L19 24L19 23L20 23L20 22ZM22 22L22 23L23 23L23 22ZM0 0L0 7L7 7L7 0ZM1 1L1 6L6 6L6 1ZM2 2L2 5L5 5L5 2ZM18 0L18 7L25 7L25 0ZM19 1L19 6L24 6L24 1ZM20 2L20 5L23 5L23 2ZM0 18L0 25L7 25L7 18ZM1 19L1 24L6 24L6 19ZM2 20L2 23L5 23L5 20Z" fill="#000000"/></g></g></svg>
