<?xml version="1.0" encoding="UTF-8"?>
<svg xmlns="http://www.w3.org/2000/svg" version="1.1" width="200" height="200" viewBox="0 0 200 200"><rect x="0" y="0" width="200" height="200" fill="#ffffff"/><g transform="scale(8)"><g transform="translate(0,0)"><path fill-rule="evenodd" d="M9 0L9 1L8 1L8 2L9 2L9 3L8 3L8 4L10 4L10 7L11 7L11 8L6 8L6 9L8 9L8 10L6 10L6 11L5 11L5 10L3 10L3 9L5 9L5 8L0 8L0 9L2 9L2 10L1 10L1 11L0 11L0 17L1 17L1 14L2 14L2 16L3 16L3 17L4 17L4 16L5 16L5 17L7 17L7 16L8 16L8 19L9 19L9 20L8 20L8 25L9 25L9 21L10 21L10 23L11 23L11 22L12 22L12 24L10 24L10 25L12 25L12 24L13 24L13 25L14 25L14 24L13 24L13 22L12 22L12 21L15 21L15 22L14 22L14 23L16 23L16 24L15 24L15 25L16 25L16 24L17 24L17 23L18 23L18 22L19 22L19 24L18 24L18 25L19 25L19 24L20 24L20 25L21 25L21 24L22 24L22 25L25 25L25 21L24 21L24 20L25 20L25 18L24 18L24 17L25 17L25 16L20 16L20 15L19 15L19 14L18 14L18 13L21 13L21 12L22 12L22 13L23 13L23 14L21 14L21 15L23 15L23 14L24 14L24 15L25 15L25 14L24 14L24 13L25 13L25 12L22 12L22 11L25 11L25 10L22 10L22 8L21 8L21 10L22 10L22 11L20 11L20 12L18 12L18 13L17 13L17 10L13 10L13 11L10 11L10 9L11 9L11 10L12 10L12 9L18 9L18 8L17 8L17 6L16 6L16 5L15 5L15 4L17 4L17 2L16 2L16 1L17 1L17 0L16 0L16 1L15 1L15 2L14 2L14 1L11 1L11 2L10 2L10 0ZM12 2L12 3L14 3L14 4L13 4L13 5L12 5L12 4L11 4L11 3L10 3L10 4L11 4L11 7L12 7L12 6L13 6L13 8L16 8L16 6L15 6L15 7L14 7L14 6L13 6L13 5L14 5L14 4L15 4L15 3L16 3L16 2L15 2L15 3L14 3L14 2ZM8 5L8 7L9 7L9 5ZM11 8L11 9L12 9L12 8ZM19 8L19 10L18 10L18 11L19 11L19 10L20 10L20 8ZM23 8L23 9L24 9L24 8ZM8 10L8 11L6 11L6 12L7 12L7 13L6 13L6 14L8 14L8 16L9 16L9 17L10 17L10 18L9 18L9 19L10 19L10 20L11 20L11 21L12 21L12 19L13 19L13 20L14 20L14 19L15 19L15 20L16 20L16 19L15 19L15 18L16 18L16 15L15 15L15 13L16 13L16 11L13 11L13 12L10 12L10 13L13 13L13 15L12 15L12 14L8 14L8 13L9 13L9 10ZM1 11L1 12L2 12L2 11ZM3 11L3 12L4 12L4 13L5 13L5 11ZM13 12L13 13L15 13L15 12ZM3 14L3 16L4 16L4 15L5 15L5 16L7 16L7 15L5 15L5 14ZM9 15L9 16L10 16L10 17L11 17L11 18L10 18L10 19L11 19L11 18L15 18L15 17L14 17L14 16L15 16L15 15L14 15L14 16L13 16L13 17L11 17L11 15ZM17 15L17 16L18 16L18 15ZM17 17L17 20L20 20L20 17ZM21 17L21 18L23 18L23 19L21 19L21 20L24 20L24 18L23 18L23 17ZM18 18L18 19L19 19L19 18ZM17 21L17 22L16 22L16 23L17 23L17 22L18 22L18 21ZM19 21L19 22L20 22L20 24L21 24L21 23L22 23L22 24L24 24L24 22L23 22L23 21L22 21L22 22L20 22L20 21ZM0 0L0 7L7 7L7 0ZM1 1L1 6L6 6L6 1ZM2 2L2 5L5 5L5 2ZM18 0L18 7L25 7L25 0ZM19 1L19 6L24 6L24 1ZM20 2L20 5L23 5L23 2ZM0 18L0 25L7 25L7 18ZM1 19L1 24L6 24L6 19ZM2 20L2 23L5 23L5 20Z" fill="#000000"/></g></g></svg>
