<?xml version="1.0" encoding="UTF-8"?>
<svg xmlns="http://www.w3.org/2000/svg" version="1.1" width="200" height="200" viewBox="0 0 200 200"><rect x="0" y="0" width="200" height="200" fill="#ffffff"/><g transform="scale(8)"><g transform="translate(0,0)"><path fill-rule="evenodd" d="M9 0L9 1L8 1L8 2L9 2L9 3L8 3L8 4L10 4L10 7L11 7L11 8L6 8L6 9L7 9L7 10L6 10L6 11L5 11L5 12L4 12L4 13L5 13L5 12L6 12L6 13L8 13L8 14L6 14L6 15L8 15L8 16L5 16L5 14L4 14L4 16L2 16L2 17L4 17L4 16L5 16L5 17L8 17L8 19L9 19L9 18L10 18L10 16L13 16L13 17L11 17L11 18L12 18L12 19L13 19L13 17L14 17L14 18L15 18L15 19L16 19L16 20L15 20L15 21L14 21L14 20L12 20L12 21L9 21L9 20L8 20L8 25L11 25L11 24L9 24L9 23L10 23L10 22L12 22L12 21L13 21L13 22L15 22L15 21L16 21L16 22L24 22L24 24L22 24L22 23L21 23L21 24L22 24L22 25L25 25L25 21L24 21L24 20L25 20L25 18L24 18L24 17L25 17L25 16L21 16L21 15L23 15L23 14L24 14L24 15L25 15L25 14L24 14L24 13L25 13L25 12L22 12L22 11L25 11L25 10L22 10L22 8L21 8L21 10L22 10L22 11L21 11L21 12L20 12L20 8L19 8L19 10L13 10L13 11L12 11L12 12L11 12L11 11L10 11L10 9L11 9L11 10L12 10L12 9L18 9L18 8L17 8L17 6L16 6L16 5L15 5L15 4L17 4L17 2L16 2L16 1L17 1L17 0L16 0L16 1L15 1L15 2L14 2L14 1L11 1L11 2L10 2L10 0ZM12 2L12 3L14 3L14 4L13 4L13 5L12 5L12 4L11 4L11 3L10 3L10 4L11 4L11 7L12 7L12 6L13 6L13 8L16 8L16 6L15 6L15 7L14 7L14 6L13 6L13 5L14 5L14 4L15 4L15 3L16 3L16 2L15 2L15 3L14 3L14 2ZM8 5L8 7L9 7L9 5ZM0 8L0 9L1 9L1 10L0 10L0 17L1 17L1 14L2 14L2 15L3 15L3 13L1 13L1 12L3 12L3 11L4 11L4 10L2 10L2 9L5 9L5 8ZM11 8L11 9L12 9L12 8ZM23 8L23 9L24 9L24 8ZM1 10L1 11L2 11L2 10ZM8 10L8 13L9 13L9 10ZM6 11L6 12L7 12L7 11ZM13 11L13 12L12 12L12 13L13 13L13 12L14 12L14 13L16 13L16 11ZM10 12L10 13L11 13L11 12ZM17 12L17 13L18 13L18 14L17 14L17 16L20 16L20 15L21 15L21 14L23 14L23 13L22 13L22 12L21 12L21 13L18 13L18 12ZM8 14L8 15L9 15L9 16L10 16L10 15L9 15L9 14ZM11 14L11 15L13 15L13 16L14 16L14 17L15 17L15 18L16 18L16 15L15 15L15 14ZM18 14L18 15L19 15L19 14ZM14 15L14 16L15 16L15 15ZM17 17L17 20L20 20L20 17ZM21 17L21 18L23 18L23 19L22 19L22 20L21 20L21 21L22 21L22 20L24 20L24 18L23 18L23 17ZM18 18L18 19L19 19L19 18ZM16 23L16 24L15 24L15 25L16 25L16 24L17 24L17 25L19 25L19 23ZM13 24L13 25L14 25L14 24ZM0 0L0 7L7 7L7 0ZM1 1L1 6L6 6L6 1ZM2 2L2 5L5 5L5 2ZM18 0L18 7L25 7L25 0ZM19 1L19 6L24 6L24 1ZM20 2L20 5L23 5L23 2ZM0 18L0 25L7 25L7 18ZM1 19L1 24L6 24L6 19ZM2 20L2 23L5 23L5 20Z" fill="#000000"/></g></g></svg>
