<?xml version="1.0" encoding="UTF-8"?>
<svg xmlns="http://www.w3.org/2000/svg" version="1.1" width="200" height="200" viewBox="0 0 200 200"><rect x="0" y="0" width="200" height="200" fill="#ffffff"/><g transform="scale(8)"><g transform="translate(0,0)"><path fill-rule="evenodd" d="M10 0L10 1L8 1L8 3L9 3L9 4L8 4L8 8L6 8L6 9L4 9L4 8L3 8L3 9L2 9L2 8L0 8L0 10L2 10L2 11L1 11L1 12L0 12L0 13L1 13L1 14L0 14L0 15L1 15L1 16L0 16L0 17L3 17L3 16L2 16L2 15L1 15L1 14L2 14L2 13L3 13L3 11L4 11L4 14L3 14L3 15L5 15L5 17L8 17L8 19L9 19L9 21L8 21L8 22L9 22L9 23L8 23L8 25L9 25L9 23L10 23L10 25L11 25L11 24L13 24L13 25L15 25L15 24L14 24L14 23L16 23L16 25L18 25L18 24L17 24L17 23L16 23L16 22L17 22L17 21L20 21L20 22L19 22L19 25L21 25L21 19L22 19L22 20L24 20L24 19L25 19L25 9L24 9L24 8L22 8L22 9L21 9L21 8L18 8L18 10L16 10L16 12L15 12L15 14L13 14L13 15L12 15L12 14L10 14L10 13L11 13L11 12L12 12L12 11L9 11L9 12L10 12L10 13L9 13L9 16L10 16L10 15L12 15L12 16L14 16L14 15L15 15L15 14L16 14L16 12L18 12L18 15L16 15L16 16L15 16L15 17L13 17L13 18L12 18L12 17L8 17L8 15L7 15L7 14L8 14L8 13L7 13L7 12L6 12L6 11L8 11L8 10L6 10L6 9L8 9L8 8L9 8L9 5L10 5L10 8L11 8L11 9L12 9L12 8L13 8L13 10L15 10L15 9L14 9L14 8L15 8L15 6L16 6L16 7L17 7L17 6L16 6L16 4L17 4L17 3L16 3L16 2L17 2L17 1L16 1L16 0L14 0L14 1L13 1L13 2L14 2L14 3L15 3L15 5L13 5L13 4L12 4L12 5L13 5L13 6L12 6L12 8L11 8L11 4L10 4L10 3L9 3L9 2L11 2L11 0ZM14 1L14 2L15 2L15 1ZM13 6L13 8L14 8L14 6ZM9 9L9 10L10 10L10 9ZM20 9L20 10L19 10L19 11L18 11L18 12L20 12L20 13L19 13L19 14L20 14L20 15L21 15L21 12L20 12L20 11L21 11L21 9ZM22 9L22 10L23 10L23 9ZM13 11L13 13L14 13L14 11ZM22 11L22 14L24 14L24 13L23 13L23 12L24 12L24 11ZM1 12L1 13L2 13L2 12ZM5 12L5 15L6 15L6 16L7 16L7 15L6 15L6 14L7 14L7 13L6 13L6 12ZM18 15L18 16L19 16L19 15ZM22 15L22 16L23 16L23 15ZM15 17L15 18L13 18L13 20L12 20L12 21L11 21L11 20L10 20L10 21L9 21L9 22L10 22L10 21L11 21L11 23L13 23L13 22L14 22L14 21L15 21L15 22L16 22L16 17ZM17 17L17 20L20 20L20 17ZM21 17L21 18L22 18L22 19L24 19L24 18L23 18L23 17ZM9 18L9 19L12 19L12 18ZM18 18L18 19L19 19L19 18ZM13 20L13 21L14 21L14 20ZM22 22L22 23L23 23L23 22ZM24 22L24 23L25 23L25 22ZM23 24L23 25L25 25L25 24ZM0 0L0 7L7 7L7 0ZM1 1L1 6L6 6L6 1ZM2 2L2 5L5 5L5 2ZM18 0L18 7L25 7L25 0ZM19 1L19 6L24 6L24 1ZM20 2L20 5L23 5L23 2ZM0 18L0 25L7 25L7 18ZM1 19L1 24L6 24L6 19ZM2 20L2 23L5 23L5 20Z" fill="#000000"/></g></g></svg>
