<?xml version="1.0" encoding="UTF-8"?>
<svg xmlns="http://www.w3.org/2000/svg" version="1.1" width="200" height="200" viewBox="0 0 200 200"><rect x="0" y="0" width="200" height="200" fill="#ffffff"/><g transform="scale(8)"><g transform="translate(0,0)"><path fill-rule="evenodd" d="M8 0L8 1L10 1L10 0ZM16 0L16 1L17 1L17 0ZM13 1L13 2L11 2L11 4L10 4L10 3L9 3L9 2L8 2L8 5L9 5L9 6L8 6L8 7L9 7L9 8L8 8L8 11L7 11L7 10L6 10L6 11L7 11L7 12L6 12L6 13L7 13L7 14L6 14L6 15L7 15L7 16L6 16L6 17L8 17L8 18L9 18L9 16L10 16L10 17L11 17L11 18L12 18L12 17L13 17L13 19L14 19L14 21L15 21L15 22L16 22L16 21L18 21L18 23L17 23L17 25L20 25L20 24L21 24L21 22L22 22L22 20L21 20L21 19L23 19L23 23L22 23L22 25L25 25L25 24L23 24L23 23L24 23L24 22L25 22L25 20L24 20L24 19L25 19L25 17L23 17L23 16L22 16L22 15L23 15L23 13L24 13L24 14L25 14L25 11L24 11L24 12L23 12L23 10L22 10L22 9L23 9L23 8L20 8L20 9L19 9L19 12L18 12L18 14L17 14L17 12L16 12L16 11L17 11L17 10L16 10L16 11L15 11L15 12L16 12L16 14L17 14L17 15L16 15L16 16L12 16L12 15L14 15L14 14L13 14L13 13L14 13L14 10L15 10L15 9L14 9L14 10L13 10L13 6L14 6L14 7L15 7L15 8L17 8L17 9L18 9L18 8L17 8L17 5L16 5L16 4L17 4L17 3L16 3L16 2L15 2L15 1ZM14 3L14 6L15 6L15 7L16 7L16 5L15 5L15 3ZM12 4L12 5L10 5L10 6L9 6L9 7L10 7L10 8L9 8L9 9L10 9L10 10L9 10L9 11L8 11L8 12L10 12L10 13L9 13L9 14L8 14L8 16L9 16L9 15L12 15L12 12L13 12L13 11L11 11L11 9L12 9L12 8L11 8L11 7L12 7L12 5L13 5L13 4ZM10 6L10 7L11 7L11 6ZM0 8L0 11L1 11L1 10L2 10L2 9L4 9L4 8ZM6 8L6 9L7 9L7 8ZM24 8L24 9L25 9L25 8ZM20 9L20 10L21 10L21 9ZM4 10L4 11L5 11L5 10ZM2 11L2 12L1 12L1 13L2 13L2 14L1 14L1 15L0 15L0 16L1 16L1 15L2 15L2 16L3 16L3 17L5 17L5 16L3 16L3 15L5 15L5 14L4 14L4 13L5 13L5 12L4 12L4 13L2 13L2 12L3 12L3 11ZM20 11L20 12L21 12L21 14L22 14L22 11ZM10 13L10 14L11 14L11 13ZM19 13L19 14L18 14L18 15L19 15L19 14L20 14L20 13ZM2 14L2 15L3 15L3 14ZM20 15L20 16L21 16L21 15ZM17 17L17 20L20 20L20 17ZM18 18L18 19L19 19L19 18ZM23 18L23 19L24 19L24 18ZM9 19L9 21L8 21L8 25L9 25L9 24L10 24L10 25L11 25L11 23L13 23L13 25L14 25L14 22L12 22L12 21L11 21L11 19ZM15 20L15 21L16 21L16 20ZM10 21L10 22L9 22L9 23L11 23L11 21ZM19 21L19 22L20 22L20 21ZM15 23L15 25L16 25L16 23ZM18 23L18 24L19 24L19 23ZM0 0L0 7L7 7L7 0ZM1 1L1 6L6 6L6 1ZM2 2L2 5L5 5L5 2ZM18 0L18 7L25 7L25 0ZM19 1L19 6L24 6L24 1ZM20 2L20 5L23 5L23 2ZM0 18L0 25L7 25L7 18ZM1 19L1 24L6 24L6 19ZM2 20L2 23L5 23L5 20Z" fill="#000000"/></g></g></svg>
