<?xml version="1.0" encoding="UTF-8"?>
<svg xmlns="http://www.w3.org/2000/svg" version="1.1" width="200" height="200" viewBox="0 0 200 200"><rect x="0" y="0" width="200" height="200" fill="#ffffff"/><g transform="scale(8)"><g transform="translate(0,0)"><path fill-rule="evenodd" d="M9 0L9 1L8 1L8 2L9 2L9 3L8 3L8 4L10 4L10 7L11 7L11 8L6 8L6 9L8 9L8 10L9 10L9 13L8 13L8 14L5 14L5 13L7 13L7 12L5 12L5 8L0 8L0 17L1 17L1 14L3 14L3 13L4 13L4 14L5 14L5 15L9 15L9 14L12 14L12 13L14 13L14 14L15 14L15 15L14 15L14 16L12 16L12 17L11 17L11 16L10 16L10 17L8 17L8 16L6 16L6 17L8 17L8 19L9 19L9 20L8 20L8 25L9 25L9 20L10 20L10 19L9 19L9 18L12 18L12 17L13 17L13 18L15 18L15 19L16 19L16 20L13 20L13 19L12 19L12 20L11 20L11 22L10 22L10 25L11 25L11 24L13 24L13 25L14 25L14 24L15 24L15 25L16 25L16 24L17 24L17 25L18 25L18 24L19 24L19 23L20 23L20 22L22 22L22 21L23 21L23 22L24 22L24 24L22 24L22 23L21 23L21 24L20 24L20 25L21 25L21 24L22 24L22 25L25 25L25 21L24 21L24 20L25 20L25 18L24 18L24 17L25 17L25 16L22 16L22 15L21 15L21 14L24 14L24 15L25 15L25 14L24 14L24 13L25 13L25 12L22 12L22 11L25 11L25 10L22 10L22 8L21 8L21 10L20 10L20 8L19 8L19 10L18 10L18 11L21 11L21 12L18 12L18 13L17 13L17 10L15 10L15 9L18 9L18 8L17 8L17 6L16 6L16 5L15 5L15 4L17 4L17 2L16 2L16 1L17 1L17 0L16 0L16 1L15 1L15 2L14 2L14 1L11 1L11 2L10 2L10 0ZM12 2L12 3L14 3L14 4L15 4L15 3L16 3L16 2L15 2L15 3L14 3L14 2ZM10 3L10 4L11 4L11 7L12 7L12 8L11 8L11 9L10 9L10 11L11 11L11 12L10 12L10 13L12 13L12 12L14 12L14 13L16 13L16 11L15 11L15 12L14 12L14 11L12 11L12 10L11 10L11 9L13 9L13 10L14 10L14 9L15 9L15 8L16 8L16 6L15 6L15 5L13 5L13 7L12 7L12 4L11 4L11 3ZM8 5L8 7L9 7L9 5ZM14 6L14 8L13 8L13 9L14 9L14 8L15 8L15 6ZM23 8L23 9L24 9L24 8ZM1 10L1 11L2 11L2 12L1 12L1 13L3 13L3 11L4 11L4 10ZM6 10L6 11L7 11L7 10ZM21 10L21 11L22 11L22 10ZM21 12L21 13L18 13L18 14L17 14L17 16L21 16L21 19L22 19L22 20L21 20L21 21L22 21L22 20L24 20L24 18L23 18L23 17L22 17L22 16L21 16L21 15L18 15L18 14L21 14L21 13L22 13L22 12ZM2 15L2 16L3 16L3 17L4 17L4 16L3 16L3 15ZM15 15L15 16L14 16L14 17L15 17L15 18L16 18L16 15ZM17 17L17 20L20 20L20 17ZM18 18L18 19L19 19L19 18ZM22 18L22 19L23 19L23 18ZM12 20L12 21L13 21L13 22L11 22L11 23L13 23L13 24L14 24L14 23L15 23L15 24L16 24L16 23L17 23L17 24L18 24L18 23L19 23L19 22L20 22L20 21L19 21L19 22L16 22L16 23L15 23L15 21L13 21L13 20ZM13 22L13 23L14 23L14 22ZM0 0L0 7L7 7L7 0ZM1 1L1 6L6 6L6 1ZM2 2L2 5L5 5L5 2ZM18 0L18 7L25 7L25 0ZM19 1L19 6L24 6L24 1ZM20 2L20 5L23 5L23 2ZM0 18L0 25L7 25L7 18ZM1 19L1 24L6 24L6 19ZM2 20L2 23L5 23L5 20Z" fill="#000000"/></g></g></svg>
