<?xml version="1.0" encoding="UTF-8"?>
<svg xmlns="http://www.w3.org/2000/svg" version="1.1" width="200" height="200" viewBox="0 0 200 200"><rect x="0" y="0" width="200" height="200" fill="#ffffff"/><g transform="scale(8)"><g transform="translate(0,0)"><path fill-rule="evenodd" d="M8 0L8 1L10 1L10 0ZM16 0L16 1L17 1L17 0ZM13 1L13 2L11 2L11 4L10 4L10 3L9 3L9 2L8 2L8 5L9 5L9 6L8 6L8 7L9 7L9 8L8 8L8 9L7 9L7 8L6 8L6 9L4 9L4 8L0 8L0 10L1 10L1 9L4 9L4 10L3 10L3 11L2 11L2 12L1 12L1 11L0 11L0 13L2 13L2 14L1 14L1 15L0 15L0 16L1 16L1 15L2 15L2 14L3 14L3 16L2 16L2 17L3 17L3 16L4 16L4 17L5 17L5 16L6 16L6 17L7 17L7 16L6 16L6 15L7 15L7 14L6 14L6 13L9 13L9 14L8 14L8 18L9 18L9 21L8 21L8 25L9 25L9 22L10 22L10 23L13 23L13 24L12 24L12 25L15 25L15 24L14 24L14 23L15 23L15 22L17 22L17 25L19 25L19 24L20 24L20 23L21 23L21 22L22 22L22 25L25 25L25 24L23 24L23 23L24 23L24 22L25 22L25 20L24 20L24 19L25 19L25 17L23 17L23 16L22 16L22 15L23 15L23 13L24 13L24 14L25 14L25 11L24 11L24 12L23 12L23 10L22 10L22 9L23 9L23 8L20 8L20 9L19 9L19 12L16 12L16 11L17 11L17 10L16 10L16 11L14 11L14 10L15 10L15 9L14 9L14 10L12 10L12 9L11 9L11 11L13 11L13 12L12 12L12 14L13 14L13 13L14 13L14 14L15 14L15 12L16 12L16 14L17 14L17 15L16 15L16 16L13 16L13 15L12 15L12 16L11 16L11 17L10 17L10 18L9 18L9 16L10 16L10 15L9 15L9 14L11 14L11 13L10 13L10 12L9 12L9 10L10 10L10 9L9 9L9 8L10 8L10 7L11 7L11 8L13 8L13 6L14 6L14 7L15 7L15 8L17 8L17 9L18 9L18 8L17 8L17 5L16 5L16 4L17 4L17 3L16 3L16 2L15 2L15 1ZM14 3L14 6L15 6L15 7L16 7L16 5L15 5L15 3ZM12 4L12 5L10 5L10 6L9 6L9 7L10 7L10 6L11 6L11 7L12 7L12 6L13 6L13 4ZM24 8L24 9L25 9L25 8ZM6 9L6 10L4 10L4 11L3 11L3 12L4 12L4 13L3 13L3 14L4 14L4 13L6 13L6 12L8 12L8 11L6 11L6 10L7 10L7 9ZM20 9L20 10L21 10L21 9ZM4 11L4 12L5 12L5 11ZM20 11L20 12L19 12L19 13L20 13L20 12L21 12L21 14L22 14L22 11ZM5 14L5 15L6 15L6 14ZM18 14L18 15L17 15L17 16L21 16L21 15L19 15L19 14ZM12 17L12 18L10 18L10 22L11 22L11 21L12 21L12 22L14 22L14 21L16 21L16 20L14 20L14 19L15 19L15 18L13 18L13 17ZM17 17L17 20L20 20L20 17ZM12 18L12 19L11 19L11 20L13 20L13 18ZM18 18L18 19L19 19L19 18ZM21 18L21 19L22 19L22 20L21 20L21 21L22 21L22 22L23 22L23 19L24 19L24 18L23 18L23 19L22 19L22 18ZM19 22L19 23L18 23L18 24L19 24L19 23L20 23L20 22ZM10 24L10 25L11 25L11 24ZM0 0L0 7L7 7L7 0ZM1 1L1 6L6 6L6 1ZM2 2L2 5L5 5L5 2ZM18 0L18 7L25 7L25 0ZM19 1L19 6L24 6L24 1ZM20 2L20 5L23 5L23 2ZM0 18L0 25L7 25L7 18ZM1 19L1 24L6 24L6 19ZM2 20L2 23L5 23L5 20Z" fill="#000000"/></g></g></svg>
