<?xml version="1.0" encoding="UTF-8"?>
<svg xmlns="http://www.w3.org/2000/svg" version="1.1" width="200" height="200" viewBox="0 0 200 200"><rect x="0" y="0" width="200" height="200" fill="#ffffff"/><g transform="scale(8)"><g transform="translate(0,0)"><path fill-rule="evenodd" d="M10 0L10 1L9 1L9 2L8 2L8 3L9 3L9 5L10 5L10 7L11 7L11 9L12 9L12 7L13 7L13 12L12 12L12 11L11 11L11 10L10 10L10 9L9 9L9 6L8 6L8 8L4 8L4 9L5 9L5 10L3 10L3 8L0 8L0 9L2 9L2 10L3 10L3 11L5 11L5 13L4 13L4 12L3 12L3 13L1 13L1 12L2 12L2 11L1 11L1 12L0 12L0 13L1 13L1 14L0 14L0 15L1 15L1 16L0 16L0 17L1 17L1 16L2 16L2 15L5 15L5 13L7 13L7 14L6 14L6 15L7 15L7 14L8 14L8 15L9 15L9 14L8 14L8 12L10 12L10 15L11 15L11 16L6 16L6 17L8 17L8 21L9 21L9 22L8 22L8 25L10 25L10 24L9 24L9 23L11 23L11 24L12 24L12 25L14 25L14 22L15 22L15 25L19 25L19 24L20 24L20 25L22 25L22 23L21 23L21 22L22 22L22 18L21 18L21 17L22 17L22 15L23 15L23 17L24 17L24 19L23 19L23 21L24 21L24 19L25 19L25 9L23 9L23 8L22 8L22 9L21 9L21 10L20 10L20 9L19 9L19 8L17 8L17 6L16 6L16 5L17 5L17 3L16 3L16 0L14 0L14 1L15 1L15 6L14 6L14 4L12 4L12 5L10 5L10 3L9 3L9 2L10 2L10 1L11 1L11 0ZM11 2L11 3L12 3L12 2ZM11 6L11 7L12 7L12 6ZM13 6L13 7L14 7L14 6ZM15 6L15 10L14 10L14 11L15 11L15 12L16 12L16 13L17 13L17 12L19 12L19 16L21 16L21 11L19 11L19 10L18 10L18 9L17 9L17 8L16 8L16 6ZM6 9L6 10L5 10L5 11L6 11L6 12L8 12L8 11L10 11L10 10L8 10L8 9ZM22 9L22 13L23 13L23 15L24 15L24 13L23 13L23 9ZM6 10L6 11L7 11L7 10ZM16 11L16 12L17 12L17 11ZM11 12L11 15L12 15L12 17L11 17L11 19L9 19L9 21L10 21L10 22L11 22L11 23L13 23L13 19L14 19L14 20L15 20L15 22L17 22L17 21L16 21L16 17L15 17L15 19L14 19L14 18L13 18L13 15L12 15L12 12ZM3 13L3 14L4 14L4 13ZM1 14L1 15L2 15L2 14ZM15 14L15 15L14 15L14 16L16 16L16 15L17 15L17 16L18 16L18 14ZM3 16L3 17L5 17L5 16ZM17 17L17 20L20 20L20 17ZM12 18L12 19L11 19L11 20L10 20L10 21L12 21L12 19L13 19L13 18ZM18 18L18 19L19 19L19 18ZM18 21L18 23L20 23L20 24L21 24L21 23L20 23L20 21ZM24 22L24 23L23 23L23 25L25 25L25 24L24 24L24 23L25 23L25 22ZM0 0L0 7L7 7L7 0ZM1 1L1 6L6 6L6 1ZM2 2L2 5L5 5L5 2ZM18 0L18 7L25 7L25 0ZM19 1L19 6L24 6L24 1ZM20 2L20 5L23 5L23 2ZM0 18L0 25L7 25L7 18ZM1 19L1 24L6 24L6 19ZM2 20L2 23L5 23L5 20Z" fill="#000000"/></g></g></svg>
