<?xml version="1.0" encoding="UTF-8"?>
<svg xmlns="http://www.w3.org/2000/svg" version="1.1" width="200" height="200" viewBox="0 0 200 200"><rect x="0" y="0" width="200" height="200" fill="#ffffff"/><g transform="scale(8)"><g transform="translate(0,0)"><path fill-rule="evenodd" d="M9 0L9 1L11 1L11 2L9 2L9 3L8 3L8 5L9 5L9 6L8 6L8 7L9 7L9 9L10 9L10 10L9 10L9 11L10 11L10 12L9 12L9 13L7 13L7 12L4 12L4 13L3 13L3 12L1 12L1 11L0 11L0 17L1 17L1 13L2 13L2 14L3 14L3 15L4 15L4 16L6 16L6 17L7 17L7 16L6 16L6 15L7 15L7 14L9 14L9 15L10 15L10 16L11 16L11 14L12 14L12 15L13 15L13 14L12 14L12 13L13 13L13 12L11 12L11 11L10 11L10 10L12 10L12 11L15 11L15 12L14 12L14 16L12 16L12 17L11 17L11 19L12 19L12 17L15 17L15 18L14 18L14 20L13 20L13 21L11 21L11 22L14 22L14 20L15 20L15 21L16 21L16 22L15 22L15 23L14 23L14 24L15 24L15 25L17 25L17 24L19 24L19 25L22 25L22 22L24 22L24 25L25 25L25 21L24 21L24 20L25 20L25 18L24 18L24 17L25 17L25 16L23 16L23 15L22 15L22 17L21 17L21 16L19 16L19 15L20 15L20 12L18 12L18 13L19 13L19 14L17 14L17 13L16 13L16 14L15 14L15 12L17 12L17 11L20 11L20 10L21 10L21 9L22 9L22 11L25 11L25 10L23 10L23 9L22 9L22 8L20 8L20 10L18 10L18 9L17 9L17 6L16 6L16 7L15 7L15 6L14 6L14 8L13 8L13 5L15 5L15 2L14 2L14 1L15 1L15 0L13 0L13 1L12 1L12 0ZM12 2L12 3L14 3L14 2ZM16 2L16 3L17 3L17 2ZM9 3L9 5L10 5L10 3ZM11 4L11 7L10 7L10 6L9 6L9 7L10 7L10 8L11 8L11 9L13 9L13 10L15 10L15 8L14 8L14 9L13 9L13 8L12 8L12 4ZM0 8L0 9L1 9L1 10L2 10L2 11L5 11L5 10L6 10L6 11L7 11L7 10L8 10L8 8L5 8L5 10L2 10L2 8ZM6 9L6 10L7 10L7 9ZM24 12L24 13L22 13L22 14L24 14L24 15L25 15L25 14L24 14L24 13L25 13L25 12ZM4 13L4 15L5 15L5 13ZM6 13L6 14L7 14L7 13ZM16 15L16 16L15 16L15 17L16 17L16 16L18 16L18 15ZM2 16L2 17L3 17L3 16ZM8 16L8 20L9 20L9 23L8 23L8 25L9 25L9 23L10 23L10 25L13 25L13 23L12 23L12 24L11 24L11 23L10 23L10 19L9 19L9 18L10 18L10 17L9 17L9 16ZM17 17L17 20L20 20L20 17ZM22 17L22 19L21 19L21 21L20 21L20 22L18 22L18 21L17 21L17 22L16 22L16 23L17 23L17 22L18 22L18 23L21 23L21 21L22 21L22 20L24 20L24 19L23 19L23 17ZM18 18L18 19L19 19L19 18ZM0 0L0 7L7 7L7 0ZM1 1L1 6L6 6L6 1ZM2 2L2 5L5 5L5 2ZM18 0L18 7L25 7L25 0ZM19 1L19 6L24 6L24 1ZM20 2L20 5L23 5L23 2ZM0 18L0 25L7 25L7 18ZM1 19L1 24L6 24L6 19ZM2 20L2 23L5 23L5 20Z" fill="#000000"/></g></g></svg>
