<?xml version="1.0" encoding="UTF-8"?>
<svg xmlns="http://www.w3.org/2000/svg" version="1.1" width="200" height="200" viewBox="0 0 200 200"><rect x="0" y="0" width="200" height="200" fill="#ffffff"/><g transform="scale(8)"><g transform="translate(0,0)"><path fill-rule="evenodd" d="M10 0L10 1L9 1L9 2L8 2L8 3L9 3L9 5L10 5L10 7L11 7L11 8L13 8L13 16L12 16L12 19L11 19L11 18L10 18L10 17L11 17L11 15L7 15L7 14L11 14L11 10L10 10L10 9L9 9L9 6L8 6L8 8L4 8L4 9L3 9L3 8L0 8L0 9L2 9L2 10L0 10L0 11L1 11L1 12L0 12L0 13L2 13L2 10L4 10L4 9L8 9L8 10L5 10L5 11L9 11L9 12L10 12L10 13L8 13L8 12L6 12L6 13L5 13L5 15L4 15L4 14L2 14L2 15L1 15L1 14L0 14L0 15L1 15L1 16L0 16L0 17L1 17L1 16L2 16L2 15L3 15L3 17L4 17L4 16L5 16L5 17L7 17L7 16L10 16L10 17L8 17L8 21L9 21L9 22L8 22L8 25L9 25L9 24L10 24L10 25L11 25L11 24L12 24L12 23L13 23L13 25L15 25L15 24L14 24L14 23L16 23L16 25L18 25L18 23L17 23L17 21L20 21L20 23L21 23L21 25L22 25L22 23L21 23L21 19L22 19L22 18L21 18L21 17L22 17L22 15L23 15L23 17L24 17L24 19L23 19L23 21L24 21L24 19L25 19L25 9L23 9L23 8L22 8L22 9L21 9L21 10L20 10L20 9L19 9L19 8L17 8L17 6L16 6L16 5L17 5L17 3L16 3L16 0L14 0L14 1L15 1L15 6L14 6L14 4L12 4L12 5L10 5L10 3L9 3L9 2L10 2L10 1L11 1L11 0ZM11 2L11 3L12 3L12 2ZM11 6L11 7L12 7L12 6ZM13 6L13 7L14 7L14 6ZM15 6L15 10L14 10L14 11L15 11L15 12L14 12L14 16L16 16L16 15L17 15L17 16L19 16L19 15L20 15L20 16L21 16L21 15L20 15L20 14L21 14L21 11L20 11L20 10L19 10L19 11L17 11L17 10L18 10L18 9L17 9L17 8L16 8L16 6ZM22 9L22 13L23 13L23 15L24 15L24 13L23 13L23 9ZM9 10L9 11L10 11L10 10ZM3 11L3 13L4 13L4 11ZM16 11L16 12L15 12L15 14L18 14L18 15L19 15L19 14L20 14L20 11L19 11L19 12L17 12L17 11ZM16 12L16 13L17 13L17 12ZM6 13L6 14L7 14L7 13ZM5 15L5 16L7 16L7 15ZM13 17L13 19L14 19L14 17ZM15 17L15 21L16 21L16 17ZM17 17L17 20L20 20L20 17ZM9 18L9 21L10 21L10 20L11 20L11 22L10 22L10 23L12 23L12 22L13 22L13 23L14 23L14 22L13 22L13 20L11 20L11 19L10 19L10 18ZM18 18L18 19L19 19L19 18ZM24 22L24 23L23 23L23 25L25 25L25 24L24 24L24 23L25 23L25 22ZM0 0L0 7L7 7L7 0ZM1 1L1 6L6 6L6 1ZM2 2L2 5L5 5L5 2ZM18 0L18 7L25 7L25 0ZM19 1L19 6L24 6L24 1ZM20 2L20 5L23 5L23 2ZM0 18L0 25L7 25L7 18ZM1 19L1 24L6 24L6 19ZM2 20L2 23L5 23L5 20Z" fill="#000000"/></g></g></svg>
