<?xml version="1.0" encoding="UTF-8"?>
<svg xmlns="http://www.w3.org/2000/svg" version="1.1" width="200" height="200" viewBox="0 0 200 200"><rect x="0" y="0" width="200" height="200" fill="#ffffff"/><g transform="scale(8)"><g transform="translate(0,0)"><path fill-rule="evenodd" d="M9 0L9 1L8 1L8 2L9 2L9 3L8 3L8 4L10 4L10 7L11 7L11 4L12 4L12 5L15 5L15 6L14 6L14 8L13 8L13 6L12 6L12 8L13 8L13 9L11 9L11 8L6 8L6 9L5 9L5 8L0 8L0 10L1 10L1 9L3 9L3 10L5 10L5 11L7 11L7 10L8 10L8 11L9 11L9 13L10 13L10 14L8 14L8 13L7 13L7 12L5 12L5 13L4 13L4 14L3 14L3 13L2 13L2 12L1 12L1 11L0 11L0 17L1 17L1 14L3 14L3 16L4 16L4 15L5 15L5 16L6 16L6 17L8 17L8 19L9 19L9 20L8 20L8 25L11 25L11 24L12 24L12 25L15 25L15 24L17 24L17 25L19 25L19 24L22 24L22 25L25 25L25 21L24 21L24 20L25 20L25 18L24 18L24 17L25 17L25 16L19 16L19 14L20 14L20 13L21 13L21 14L24 14L24 15L25 15L25 14L24 14L24 13L25 13L25 12L22 12L22 11L25 11L25 10L22 10L22 8L21 8L21 10L20 10L20 11L19 11L19 10L18 10L18 8L17 8L17 6L16 6L16 5L15 5L15 4L17 4L17 2L16 2L16 1L17 1L17 0L16 0L16 1L15 1L15 2L14 2L14 1L11 1L11 2L10 2L10 0ZM12 2L12 3L14 3L14 4L15 4L15 3L16 3L16 2L15 2L15 3L14 3L14 2ZM10 3L10 4L11 4L11 3ZM8 5L8 7L9 7L9 5ZM15 6L15 8L16 8L16 6ZM19 8L19 9L20 9L20 8ZM23 8L23 9L24 9L24 8ZM6 9L6 10L7 10L7 9ZM8 9L8 10L9 10L9 9ZM10 9L10 11L11 11L11 12L10 12L10 13L13 13L13 14L11 14L11 15L8 15L8 14L7 14L7 13L6 13L6 14L5 14L5 15L6 15L6 16L7 16L7 15L8 15L8 16L9 16L9 17L10 17L10 16L11 16L11 17L12 17L12 18L10 18L10 20L11 20L11 21L9 21L9 22L11 22L11 23L12 23L12 24L15 24L15 22L14 22L14 21L15 21L15 20L16 20L16 19L15 19L15 18L16 18L16 15L15 15L15 14L14 14L14 13L16 13L16 11L15 11L15 10L17 10L17 11L18 11L18 10L17 10L17 9L13 9L13 11L12 11L12 10L11 10L11 9ZM21 10L21 11L20 11L20 12L19 12L19 13L17 13L17 14L19 14L19 13L20 13L20 12L21 12L21 13L22 13L22 12L21 12L21 11L22 11L22 10ZM3 11L3 12L4 12L4 11ZM14 11L14 12L13 12L13 13L14 13L14 12L15 12L15 11ZM6 14L6 15L7 15L7 14ZM13 14L13 15L14 15L14 14ZM12 16L12 17L14 17L14 18L12 18L12 20L13 20L13 21L11 21L11 22L12 22L12 23L13 23L13 21L14 21L14 20L15 20L15 19L14 19L14 18L15 18L15 17L14 17L14 16ZM17 17L17 20L20 20L20 17ZM22 17L22 18L21 18L21 19L22 19L22 20L21 20L21 21L22 21L22 22L23 22L23 23L22 23L22 24L24 24L24 22L23 22L23 21L22 21L22 20L24 20L24 18L23 18L23 17ZM18 18L18 19L19 19L19 18ZM13 19L13 20L14 20L14 19ZM16 22L16 23L17 23L17 24L18 24L18 23L21 23L21 22ZM9 23L9 24L10 24L10 23ZM0 0L0 7L7 7L7 0ZM1 1L1 6L6 6L6 1ZM2 2L2 5L5 5L5 2ZM18 0L18 7L25 7L25 0ZM19 1L19 6L24 6L24 1ZM20 2L20 5L23 5L23 2ZM0 18L0 25L7 25L7 18ZM1 19L1 24L6 24L6 19ZM2 20L2 23L5 23L5 20Z" fill="#000000"/></g></g></svg>
