<?xml version="1.0" encoding="UTF-8"?>
<svg xmlns="http://www.w3.org/2000/svg" version="1.1" width="200" height="200" viewBox="0 0 200 200"><rect x="0" y="0" width="200" height="200" fill="#ffffff"/><g transform="scale(8)"><g transform="translate(0,0)"><path fill-rule="evenodd" d="M9 0L9 1L8 1L8 2L9 2L9 3L8 3L8 4L10 4L10 7L11 7L11 8L6 8L6 9L7 9L7 10L5 10L5 11L4 11L4 10L3 10L3 11L4 11L4 14L5 14L5 15L4 15L4 16L3 16L3 17L7 17L7 16L9 16L9 17L8 17L8 19L9 19L9 20L8 20L8 25L9 25L9 24L10 24L10 23L11 23L11 22L12 22L12 21L16 21L16 22L13 22L13 23L12 23L12 24L11 24L11 25L12 25L12 24L13 24L13 25L14 25L14 24L13 24L13 23L16 23L16 24L15 24L15 25L16 25L16 24L17 24L17 23L18 23L18 22L19 22L19 24L18 24L18 25L19 25L19 24L20 24L20 25L21 25L21 24L22 24L22 25L25 25L25 21L24 21L24 20L25 20L25 18L24 18L24 17L25 17L25 16L22 16L22 15L21 15L21 14L24 14L24 15L25 15L25 14L24 14L24 13L25 13L25 12L22 12L22 11L25 11L25 10L22 10L22 8L21 8L21 10L22 10L22 11L20 11L20 8L19 8L19 10L15 10L15 9L18 9L18 8L17 8L17 6L16 6L16 5L15 5L15 4L17 4L17 2L16 2L16 1L17 1L17 0L16 0L16 1L15 1L15 2L14 2L14 1L11 1L11 2L10 2L10 0ZM12 2L12 3L14 3L14 4L15 4L15 3L16 3L16 2L15 2L15 3L14 3L14 2ZM10 3L10 4L11 4L11 7L12 7L12 4L11 4L11 3ZM8 5L8 7L9 7L9 5ZM13 5L13 8L14 8L14 9L15 9L15 8L16 8L16 6L15 6L15 5ZM14 6L14 8L15 8L15 6ZM0 8L0 10L1 10L1 11L0 11L0 17L1 17L1 12L2 12L2 9L5 9L5 8ZM11 8L11 9L10 9L10 11L11 11L11 12L10 12L10 13L13 13L13 14L10 14L10 15L11 15L11 16L10 16L10 17L9 17L9 18L10 18L10 17L12 17L12 18L11 18L11 21L12 21L12 20L14 20L14 19L15 19L15 20L16 20L16 19L15 19L15 18L16 18L16 15L15 15L15 13L16 13L16 11L15 11L15 10L13 10L13 9L12 9L12 8ZM23 8L23 9L24 9L24 8ZM8 9L8 11L9 11L9 9ZM11 9L11 10L12 10L12 9ZM6 11L6 12L5 12L5 13L6 13L6 14L7 14L7 15L5 15L5 16L7 16L7 15L9 15L9 14L7 14L7 13L6 13L6 12L7 12L7 11ZM14 11L14 12L13 12L13 13L15 13L15 11ZM17 11L17 12L20 12L20 11ZM21 12L21 13L17 13L17 15L18 15L18 16L19 16L19 15L20 15L20 16L21 16L21 17L22 17L22 16L21 16L21 15L20 15L20 14L21 14L21 13L22 13L22 12ZM2 14L2 15L3 15L3 14ZM18 14L18 15L19 15L19 14ZM12 15L12 17L13 17L13 18L15 18L15 17L14 17L14 16L15 16L15 15L14 15L14 16L13 16L13 15ZM17 17L17 20L20 20L20 17ZM18 18L18 19L19 19L19 18ZM21 18L21 20L24 20L24 18ZM9 20L9 23L10 23L10 20ZM17 21L17 22L16 22L16 23L17 23L17 22L18 22L18 21ZM19 21L19 22L20 22L20 24L21 24L21 23L22 23L22 24L24 24L24 22L23 22L23 21L22 21L22 22L20 22L20 21ZM0 0L0 7L7 7L7 0ZM1 1L1 6L6 6L6 1ZM2 2L2 5L5 5L5 2ZM18 0L18 7L25 7L25 0ZM19 1L19 6L24 6L24 1ZM20 2L20 5L23 5L23 2ZM0 18L0 25L7 25L7 18ZM1 19L1 24L6 24L6 19ZM2 20L2 23L5 23L5 20Z" fill="#000000"/></g></g></svg>
