<?xml version="1.0" encoding="UTF-8"?>
<svg xmlns="http://www.w3.org/2000/svg" version="1.1" width="200" height="200" viewBox="0 0 200 200"><rect x="0" y="0" width="200" height="200" fill="#ffffff"/><g transform="scale(8)"><g transform="translate(0,0)"><path fill-rule="evenodd" d="M9 0L9 1L8 1L8 2L9 2L9 3L8 3L8 4L10 4L10 7L11 7L11 8L6 8L6 9L9 9L9 10L8 10L8 11L9 11L9 12L8 12L8 13L7 13L7 12L6 12L6 11L7 11L7 10L6 10L6 11L5 11L5 10L4 10L4 12L2 12L2 11L0 11L0 17L1 17L1 14L3 14L3 15L2 15L2 17L3 17L3 16L4 16L4 17L5 17L5 16L6 16L6 17L8 17L8 19L9 19L9 20L8 20L8 25L10 25L10 24L12 24L12 23L10 23L10 22L15 22L15 21L16 21L16 22L21 22L21 23L23 23L23 22L24 22L24 24L21 24L21 25L25 25L25 21L24 21L24 20L25 20L25 18L24 18L24 17L25 17L25 16L22 16L22 15L20 15L20 14L18 14L18 13L21 13L21 14L24 14L24 15L25 15L25 14L24 14L24 13L25 13L25 12L22 12L22 11L25 11L25 10L22 10L22 8L21 8L21 10L18 10L18 8L17 8L17 6L16 6L16 5L15 5L15 4L17 4L17 2L16 2L16 1L17 1L17 0L16 0L16 1L15 1L15 2L14 2L14 1L11 1L11 2L10 2L10 0ZM12 2L12 3L14 3L14 4L15 4L15 3L16 3L16 2L15 2L15 3L14 3L14 2ZM10 3L10 4L11 4L11 7L12 7L12 8L11 8L11 9L10 9L10 11L13 11L13 12L10 12L10 13L8 13L8 14L7 14L7 13L6 13L6 12L4 12L4 13L3 13L3 14L4 14L4 13L6 13L6 14L5 14L5 15L4 15L4 16L5 16L5 15L6 15L6 16L9 16L9 15L12 15L12 16L11 16L11 17L9 17L9 18L11 18L11 21L13 21L13 20L14 20L14 21L15 21L15 20L16 20L16 19L14 19L14 18L16 18L16 15L13 15L13 14L15 14L15 13L16 13L16 11L15 11L15 13L13 13L13 12L14 12L14 11L13 11L13 10L14 10L14 9L15 9L15 10L17 10L17 9L15 9L15 8L16 8L16 6L15 6L15 5L12 5L12 4L11 4L11 3ZM8 5L8 7L9 7L9 5ZM12 6L12 7L13 7L13 6ZM14 6L14 8L13 8L13 9L11 9L11 10L13 10L13 9L14 9L14 8L15 8L15 6ZM0 8L0 9L5 9L5 8ZM19 8L19 9L20 9L20 8ZM23 8L23 9L24 9L24 8ZM21 10L21 11L20 11L20 12L21 12L21 13L22 13L22 12L21 12L21 11L22 11L22 10ZM17 12L17 13L18 13L18 12ZM10 13L10 14L13 14L13 13ZM6 14L6 15L7 15L7 14ZM17 15L17 16L18 16L18 15ZM19 15L19 16L20 16L20 15ZM13 16L13 17L11 17L11 18L12 18L12 19L13 19L13 17L15 17L15 16ZM21 16L21 20L24 20L24 18L23 18L23 17L22 17L22 16ZM17 17L17 20L20 20L20 17ZM18 18L18 19L19 19L19 18ZM22 18L22 19L23 19L23 18ZM9 20L9 21L10 21L10 20ZM21 21L21 22L23 22L23 21ZM9 23L9 24L10 24L10 23ZM14 23L14 24L13 24L13 25L14 25L14 24L15 24L15 25L16 25L16 24L17 24L17 25L18 25L18 24L19 24L19 25L20 25L20 24L19 24L19 23L18 23L18 24L17 24L17 23L16 23L16 24L15 24L15 23ZM0 0L0 7L7 7L7 0ZM1 1L1 6L6 6L6 1ZM2 2L2 5L5 5L5 2ZM18 0L18 7L25 7L25 0ZM19 1L19 6L24 6L24 1ZM20 2L20 5L23 5L23 2ZM0 18L0 25L7 25L7 18ZM1 19L1 24L6 24L6 19ZM2 20L2 23L5 23L5 20Z" fill="#000000"/></g></g></svg>
