<?xml version="1.0" encoding="UTF-8"?>
<svg xmlns="http://www.w3.org/2000/svg" version="1.1" width="200" height="200" viewBox="0 0 200 200"><rect x="0" y="0" width="200" height="200" fill="#ffffff"/><g transform="scale(8)"><g transform="translate(0,0)"><path fill-rule="evenodd" d="M9 0L9 1L8 1L8 2L9 2L9 3L8 3L8 4L10 4L10 7L11 7L11 4L12 4L12 7L13 7L13 5L15 5L15 6L14 6L14 8L13 8L13 9L11 9L11 8L6 8L6 9L5 9L5 8L0 8L0 9L2 9L2 10L0 10L0 17L1 17L1 12L4 12L4 13L5 13L5 12L4 12L4 10L6 10L6 11L9 11L9 12L6 12L6 13L8 13L8 14L6 14L6 15L5 15L5 16L4 16L4 14L3 14L3 13L2 13L2 14L3 14L3 15L2 15L2 17L8 17L8 19L9 19L9 20L8 20L8 25L10 25L10 24L11 24L11 22L12 22L12 21L16 21L16 22L13 22L13 23L15 23L15 24L12 24L12 25L15 25L15 24L17 24L17 25L19 25L19 24L22 24L22 25L25 25L25 21L24 21L24 20L25 20L25 18L24 18L24 17L25 17L25 16L20 16L20 15L21 15L21 14L24 14L24 15L25 15L25 14L24 14L24 13L25 13L25 12L22 12L22 11L25 11L25 10L22 10L22 8L21 8L21 10L22 10L22 11L21 11L21 12L20 12L20 8L19 8L19 10L15 10L15 11L14 11L14 12L12 12L12 13L10 13L10 12L11 12L11 11L10 11L10 9L11 9L11 10L12 10L12 11L13 11L13 9L18 9L18 8L17 8L17 6L16 6L16 5L15 5L15 4L17 4L17 2L16 2L16 1L17 1L17 0L16 0L16 1L15 1L15 2L14 2L14 1L11 1L11 2L10 2L10 0ZM12 2L12 3L14 3L14 4L15 4L15 3L16 3L16 2L15 2L15 3L14 3L14 2ZM10 3L10 4L11 4L11 3ZM8 5L8 7L9 7L9 5ZM15 6L15 8L16 8L16 6ZM23 8L23 9L24 9L24 8ZM6 9L6 10L8 10L8 9ZM2 10L2 11L3 11L3 10ZM15 11L15 12L14 12L14 13L12 13L12 14L10 14L10 15L9 15L9 14L8 14L8 15L6 15L6 16L10 16L10 15L11 15L11 17L10 17L10 19L13 19L13 20L14 20L14 19L15 19L15 20L16 20L16 19L15 19L15 18L16 18L16 15L13 15L13 14L14 14L14 13L16 13L16 11ZM17 12L17 13L18 13L18 14L17 14L17 15L18 15L18 16L19 16L19 15L20 15L20 14L21 14L21 13L22 13L22 12L21 12L21 13L20 13L20 12L19 12L19 13L18 13L18 12ZM19 13L19 14L18 14L18 15L19 15L19 14L20 14L20 13ZM12 16L12 17L11 17L11 18L12 18L12 17L14 17L14 18L13 18L13 19L14 19L14 18L15 18L15 17L14 17L14 16ZM17 17L17 20L20 20L20 17ZM22 17L22 18L21 18L21 19L22 19L22 20L21 20L21 22L20 22L20 21L19 21L19 22L18 22L18 21L17 21L17 22L16 22L16 23L17 23L17 24L19 24L19 22L20 22L20 23L21 23L21 22L23 22L23 23L22 23L22 24L24 24L24 22L23 22L23 21L22 21L22 20L24 20L24 18L23 18L23 17ZM18 18L18 19L19 19L19 18ZM10 20L10 21L9 21L9 24L10 24L10 22L11 22L11 21L12 21L12 20ZM17 22L17 23L18 23L18 22ZM0 0L0 7L7 7L7 0ZM1 1L1 6L6 6L6 1ZM2 2L2 5L5 5L5 2ZM18 0L18 7L25 7L25 0ZM19 1L19 6L24 6L24 1ZM20 2L20 5L23 5L23 2ZM0 18L0 25L7 25L7 18ZM1 19L1 24L6 24L6 19ZM2 20L2 23L5 23L5 20Z" fill="#000000"/></g></g></svg>
