<?xml version="1.0" encoding="UTF-8"?>
<svg xmlns="http://www.w3.org/2000/svg" version="1.1" width="200" height="200" viewBox="0 0 200 200"><rect x="0" y="0" width="200" height="200" fill="#ffffff"/><g transform="scale(8)"><g transform="translate(0,0)"><path fill-rule="evenodd" d="M10 0L10 1L9 1L9 2L8 2L8 3L9 3L9 5L10 5L10 7L11 7L11 8L13 8L13 10L12 10L12 11L11 11L11 10L10 10L10 9L9 9L9 6L8 6L8 8L4 8L4 9L8 9L8 10L4 10L4 11L3 11L3 10L2 10L2 9L3 9L3 8L0 8L0 11L1 11L1 12L0 12L0 13L1 13L1 14L0 14L0 15L1 15L1 16L0 16L0 17L1 17L1 16L2 16L2 17L5 17L5 16L6 16L6 17L7 17L7 16L8 16L8 15L9 15L9 13L8 13L8 12L10 12L10 15L11 15L11 16L10 16L10 19L9 19L9 17L8 17L8 21L9 21L9 22L8 22L8 25L9 25L9 22L10 22L10 25L11 25L11 24L12 24L12 25L14 25L14 20L15 20L15 17L16 17L16 23L15 23L15 25L19 25L19 23L20 23L20 25L22 25L22 23L21 23L21 21L22 21L22 19L23 19L23 21L24 21L24 19L25 19L25 9L23 9L23 8L22 8L22 9L21 9L21 10L19 10L19 8L17 8L17 6L16 6L16 5L17 5L17 3L16 3L16 0L14 0L14 1L15 1L15 6L14 6L14 4L12 4L12 5L10 5L10 3L9 3L9 2L10 2L10 1L11 1L11 0ZM11 2L11 3L12 3L12 2ZM11 6L11 7L12 7L12 6ZM13 6L13 7L14 7L14 6ZM15 6L15 8L14 8L14 10L13 10L13 11L14 11L14 10L15 10L15 12L16 12L16 13L17 13L17 14L14 14L14 16L16 16L16 15L17 15L17 16L18 16L18 12L19 12L19 16L21 16L21 17L22 17L22 18L23 18L23 19L24 19L24 17L23 17L23 15L24 15L24 13L23 13L23 9L22 9L22 13L23 13L23 15L21 15L21 11L17 11L17 8L16 8L16 6ZM1 10L1 11L2 11L2 10ZM8 10L8 11L6 11L6 12L5 12L5 11L4 11L4 13L3 13L3 12L2 12L2 14L1 14L1 15L2 15L2 16L5 16L5 14L4 14L4 13L6 13L6 14L7 14L7 13L6 13L6 12L8 12L8 11L10 11L10 10ZM16 11L16 12L17 12L17 11ZM11 12L11 15L13 15L13 14L12 14L12 12ZM2 14L2 15L4 15L4 14ZM6 15L6 16L7 16L7 15ZM11 16L11 19L10 19L10 20L9 20L9 21L10 21L10 22L11 22L11 23L13 23L13 22L12 22L12 20L13 20L13 18L12 18L12 16ZM17 17L17 20L20 20L20 17ZM18 18L18 19L19 19L19 18ZM10 20L10 21L11 21L11 20ZM18 21L18 23L19 23L19 21ZM24 22L24 23L23 23L23 25L25 25L25 24L24 24L24 23L25 23L25 22ZM0 0L0 7L7 7L7 0ZM1 1L1 6L6 6L6 1ZM2 2L2 5L5 5L5 2ZM18 0L18 7L25 7L25 0ZM19 1L19 6L24 6L24 1ZM20 2L20 5L23 5L23 2ZM0 18L0 25L7 25L7 18ZM1 19L1 24L6 24L6 19ZM2 20L2 23L5 23L5 20Z" fill="#000000"/></g></g></svg>
