<?xml version="1.0" encoding="UTF-8"?>
<svg xmlns="http://www.w3.org/2000/svg" version="1.1" width="200" height="200" viewBox="0 0 200 200"><rect x="0" y="0" width="200" height="200" fill="#ffffff"/><g transform="scale(8)"><g transform="translate(0,0)"><path fill-rule="evenodd" d="M9 0L9 1L11 1L11 2L9 2L9 3L8 3L8 5L9 5L9 6L8 6L8 7L9 7L9 9L10 9L10 10L9 10L9 11L7 11L7 10L8 10L8 8L5 8L5 9L7 9L7 10L6 10L6 11L7 11L7 12L5 12L5 10L2 10L2 8L0 8L0 10L1 10L1 11L0 11L0 12L1 12L1 13L0 13L0 17L1 17L1 13L2 13L2 14L3 14L3 15L2 15L2 16L3 16L3 17L4 17L4 16L6 16L6 17L7 17L7 16L9 16L9 17L8 17L8 20L10 20L10 19L11 19L11 20L12 20L12 21L9 21L9 22L10 22L10 23L8 23L8 25L9 25L9 24L10 24L10 23L11 23L11 22L12 22L12 21L14 21L14 22L13 22L13 23L12 23L12 24L11 24L11 25L12 25L12 24L13 24L13 23L15 23L15 24L14 24L14 25L17 25L17 24L18 24L18 25L19 25L19 23L20 23L20 25L21 25L21 23L22 23L22 22L24 22L24 25L25 25L25 21L24 21L24 20L25 20L25 18L24 18L24 17L25 17L25 16L23 16L23 15L22 15L22 17L21 17L21 14L20 14L20 15L19 15L19 14L18 14L18 13L19 13L19 11L20 11L20 10L21 10L21 9L22 9L22 11L25 11L25 10L23 10L23 9L22 9L22 8L20 8L20 9L19 9L19 10L17 10L17 6L16 6L16 7L15 7L15 6L14 6L14 8L13 8L13 9L11 9L11 8L10 8L10 7L11 7L11 4L12 4L12 7L13 7L13 5L15 5L15 2L14 2L14 1L15 1L15 0L13 0L13 1L12 1L12 0ZM12 2L12 3L14 3L14 2ZM16 2L16 3L17 3L17 2ZM9 3L9 5L10 5L10 3ZM9 6L9 7L10 7L10 6ZM14 8L14 9L13 9L13 10L10 10L10 11L9 11L9 12L7 12L7 13L6 13L6 14L7 14L7 15L6 15L6 16L7 16L7 15L9 15L9 16L10 16L10 18L9 18L9 19L10 19L10 18L11 18L11 17L13 17L13 18L12 18L12 19L13 19L13 20L15 20L15 18L14 18L14 17L16 17L16 16L17 16L17 15L16 15L16 16L14 16L14 15L15 15L15 14L16 14L16 13L17 13L17 12L18 12L18 11L17 11L17 12L15 12L15 11L13 11L13 10L15 10L15 8ZM1 11L1 12L2 12L2 13L5 13L5 12L4 12L4 11L3 11L3 12L2 12L2 11ZM10 11L10 12L9 12L9 15L10 15L10 16L12 16L12 15L11 15L11 14L12 14L12 13L13 13L13 11L12 11L12 12L11 12L11 11ZM14 12L14 14L15 14L15 12ZM24 12L24 13L22 13L22 14L24 14L24 15L25 15L25 14L24 14L24 13L25 13L25 12ZM7 13L7 14L8 14L8 13ZM3 15L3 16L4 16L4 15ZM13 16L13 17L14 17L14 16ZM17 17L17 20L20 20L20 17ZM22 17L22 19L21 19L21 21L19 21L19 22L18 22L18 21L17 21L17 22L16 22L16 21L15 21L15 22L16 22L16 23L17 23L17 22L18 22L18 23L19 23L19 22L20 22L20 23L21 23L21 22L22 22L22 20L24 20L24 19L23 19L23 17ZM18 18L18 19L19 19L19 18ZM0 0L0 7L7 7L7 0ZM1 1L1 6L6 6L6 1ZM2 2L2 5L5 5L5 2ZM18 0L18 7L25 7L25 0ZM19 1L19 6L24 6L24 1ZM20 2L20 5L23 5L23 2ZM0 18L0 25L7 25L7 18ZM1 19L1 24L6 24L6 19ZM2 20L2 23L5 23L5 20Z" fill="#000000"/></g></g></svg>
