<?xml version="1.0" encoding="UTF-8"?>
<svg xmlns="http://www.w3.org/2000/svg" version="1.1" width="200" height="200" viewBox="0 0 200 200"><rect x="0" y="0" width="200" height="200" fill="#ffffff"/><g transform="scale(8)"><g transform="translate(0,0)"><path fill-rule="evenodd" d="M8 0L8 1L10 1L10 0ZM16 0L16 1L17 1L17 0ZM13 1L13 2L11 2L11 4L10 4L10 3L9 3L9 2L8 2L8 5L9 5L9 6L8 6L8 7L9 7L9 8L8 8L8 10L10 10L10 9L9 9L9 8L10 8L10 7L11 7L11 8L12 8L12 9L11 9L11 12L12 12L12 11L13 11L13 13L14 13L14 15L15 15L15 12L16 12L16 14L17 14L17 15L16 15L16 16L15 16L15 18L14 18L14 16L12 16L12 15L13 15L13 14L12 14L12 15L11 15L11 13L10 13L10 12L9 12L9 11L7 11L7 10L5 10L5 9L4 9L4 8L0 8L0 10L2 10L2 11L3 11L3 12L1 12L1 11L0 11L0 13L1 13L1 15L0 15L0 16L1 16L1 15L7 15L7 14L8 14L8 15L9 15L9 16L5 16L5 17L8 17L8 18L10 18L10 19L9 19L9 21L8 21L8 25L11 25L11 24L13 24L13 25L14 25L14 24L15 24L15 25L16 25L16 22L17 22L17 23L19 23L19 25L20 25L20 23L21 23L21 25L25 25L25 24L23 24L23 23L24 23L24 22L25 22L25 20L24 20L24 19L25 19L25 17L23 17L23 16L22 16L22 15L23 15L23 13L24 13L24 14L25 14L25 11L24 11L24 12L23 12L23 10L22 10L22 9L23 9L23 8L20 8L20 9L21 9L21 11L22 11L22 14L21 14L21 12L18 12L18 11L17 11L17 10L18 10L18 8L17 8L17 5L16 5L16 4L17 4L17 3L16 3L16 2L15 2L15 1ZM14 3L14 6L13 6L13 10L14 10L14 11L16 11L16 12L17 12L17 14L18 14L18 15L17 15L17 16L18 16L18 15L19 15L19 16L20 16L20 15L21 15L21 14L20 14L20 13L19 13L19 14L18 14L18 12L17 12L17 11L16 11L16 10L17 10L17 8L15 8L15 7L16 7L16 5L15 5L15 3ZM12 4L12 5L10 5L10 6L9 6L9 7L10 7L10 6L11 6L11 7L12 7L12 5L13 5L13 4ZM14 6L14 7L15 7L15 6ZM6 8L6 9L7 9L7 8ZM24 8L24 9L25 9L25 8ZM2 9L2 10L3 10L3 11L4 11L4 9ZM14 9L14 10L15 10L15 9ZM19 10L19 11L20 11L20 10ZM5 11L5 12L3 12L3 13L2 13L2 14L3 14L3 13L4 13L4 14L5 14L5 12L7 12L7 11ZM8 12L8 14L9 14L9 15L10 15L10 18L11 18L11 19L10 19L10 20L11 20L11 21L9 21L9 24L10 24L10 22L11 22L11 21L12 21L12 20L11 20L11 19L12 19L12 18L13 18L13 21L15 21L15 22L16 22L16 20L14 20L14 18L13 18L13 17L12 17L12 18L11 18L11 15L10 15L10 14L9 14L9 12ZM6 13L6 14L7 14L7 13ZM2 16L2 17L3 17L3 16ZM17 17L17 20L20 20L20 17ZM18 18L18 19L19 19L19 18ZM21 18L21 19L22 19L22 20L21 20L21 23L22 23L22 22L23 22L23 19L24 19L24 18L23 18L23 19L22 19L22 18ZM13 22L13 23L14 23L14 22ZM19 22L19 23L20 23L20 22ZM17 24L17 25L18 25L18 24ZM0 0L0 7L7 7L7 0ZM1 1L1 6L6 6L6 1ZM2 2L2 5L5 5L5 2ZM18 0L18 7L25 7L25 0ZM19 1L19 6L24 6L24 1ZM20 2L20 5L23 5L23 2ZM0 18L0 25L7 25L7 18ZM1 19L1 24L6 24L6 19ZM2 20L2 23L5 23L5 20Z" fill="#000000"/></g></g></svg>
