<?xml version="1.0" encoding="UTF-8"?>
<svg xmlns="http://www.w3.org/2000/svg" version="1.1" width="200" height="200" viewBox="0 0 200 200"><rect x="0" y="0" width="200" height="200" fill="#ffffff"/><g transform="scale(8)"><g transform="translate(0,0)"><path fill-rule="evenodd" d="M9 0L9 1L8 1L8 2L9 2L9 3L8 3L8 4L10 4L10 7L11 7L11 4L12 4L12 7L13 7L13 5L15 5L15 6L14 6L14 8L13 8L13 9L11 9L11 8L6 8L6 9L5 9L5 8L0 8L0 9L1 9L1 10L2 10L2 11L3 11L3 12L0 12L0 17L1 17L1 14L2 14L2 17L7 17L7 16L9 16L9 15L11 15L11 16L10 16L10 17L11 17L11 18L12 18L12 20L10 20L10 19L9 19L9 17L8 17L8 19L9 19L9 20L8 20L8 25L10 25L10 24L9 24L9 22L10 22L10 23L11 23L11 22L12 22L12 23L13 23L13 21L15 21L15 22L14 22L14 23L15 23L15 24L18 24L18 25L20 25L20 24L22 24L22 25L25 25L25 21L24 21L24 20L25 20L25 18L24 18L24 17L25 17L25 16L22 16L22 15L21 15L21 16L20 16L20 15L19 15L19 14L18 14L18 13L21 13L21 14L24 14L24 15L25 15L25 14L24 14L24 13L25 13L25 12L22 12L22 11L25 11L25 10L22 10L22 8L21 8L21 10L22 10L22 11L21 11L21 12L20 12L20 11L19 11L19 10L20 10L20 8L19 8L19 10L18 10L18 11L17 11L17 10L15 10L15 9L18 9L18 8L17 8L17 6L16 6L16 5L15 5L15 4L17 4L17 2L16 2L16 1L17 1L17 0L16 0L16 1L15 1L15 2L14 2L14 1L11 1L11 2L10 2L10 0ZM12 2L12 3L14 3L14 4L15 4L15 3L16 3L16 2L15 2L15 3L14 3L14 2ZM10 3L10 4L11 4L11 3ZM8 5L8 7L9 7L9 5ZM15 6L15 8L14 8L14 9L13 9L13 10L11 10L11 9L10 9L10 11L11 11L11 12L10 12L10 13L13 13L13 14L14 14L14 15L13 15L13 16L14 16L14 17L12 17L12 16L11 16L11 17L12 17L12 18L14 18L14 17L15 17L15 18L16 18L16 15L15 15L15 13L16 13L16 11L15 11L15 13L13 13L13 12L14 12L14 11L13 11L13 10L14 10L14 9L15 9L15 8L16 8L16 6ZM23 8L23 9L24 9L24 8ZM2 9L2 10L4 10L4 11L6 11L6 12L7 12L7 13L6 13L6 14L3 14L3 16L4 16L4 15L6 15L6 16L7 16L7 15L9 15L9 12L7 12L7 11L6 11L6 10L7 10L7 9L6 9L6 10L4 10L4 9ZM8 9L8 10L9 10L9 9ZM12 11L12 12L13 12L13 11ZM4 12L4 13L5 13L5 12ZM17 12L17 13L18 13L18 12ZM21 12L21 13L22 13L22 12ZM6 14L6 15L7 15L7 14ZM11 14L11 15L12 15L12 14ZM17 14L17 16L18 16L18 14ZM21 16L21 20L24 20L24 18L23 18L23 17L22 17L22 16ZM17 17L17 20L20 20L20 17ZM18 18L18 19L19 19L19 18ZM22 18L22 19L23 19L23 18ZM13 19L13 20L12 20L12 21L13 21L13 20L14 20L14 19ZM15 19L15 20L16 20L16 19ZM19 21L19 22L15 22L15 23L19 23L19 22L20 22L20 23L21 23L21 22L20 22L20 21ZM22 21L22 22L23 22L23 23L22 23L22 24L24 24L24 22L23 22L23 21ZM13 24L13 25L14 25L14 24ZM0 0L0 7L7 7L7 0ZM1 1L1 6L6 6L6 1ZM2 2L2 5L5 5L5 2ZM18 0L18 7L25 7L25 0ZM19 1L19 6L24 6L24 1ZM20 2L20 5L23 5L23 2ZM0 18L0 25L7 25L7 18ZM1 19L1 24L6 24L6 19ZM2 20L2 23L5 23L5 20Z" fill="#000000"/></g></g></svg>
