<?xml version="1.0" encoding="UTF-8"?>
<svg xmlns="http://www.w3.org/2000/svg" version="1.1" width="200" height="200" viewBox="0 0 200 200"><rect x="0" y="0" width="200" height="200" fill="#ffffff"/><g transform="scale(8)"><g transform="translate(0,0)"><path fill-rule="evenodd" d="M9 0L9 1L8 1L8 2L9 2L9 3L8 3L8 4L10 4L10 7L11 7L11 8L6 8L6 9L7 9L7 10L6 10L6 11L9 11L9 13L10 13L10 14L9 14L9 15L8 15L8 14L6 14L6 13L8 13L8 12L6 12L6 13L5 13L5 16L2 16L2 17L5 17L5 16L6 16L6 17L8 17L8 19L11 19L11 18L12 18L12 17L14 17L14 18L13 18L13 19L12 19L12 20L13 20L13 21L11 21L11 20L10 20L10 22L9 22L9 20L8 20L8 25L11 25L11 24L9 24L9 23L11 23L11 22L13 22L13 23L12 23L12 24L13 24L13 25L14 25L14 24L13 24L13 23L15 23L15 24L17 24L17 23L18 23L18 24L19 24L19 23L20 23L20 24L22 24L22 25L25 25L25 21L24 21L24 20L25 20L25 18L24 18L24 17L25 17L25 16L22 16L22 15L21 15L21 14L24 14L24 15L25 15L25 14L24 14L24 13L25 13L25 12L22 12L22 11L25 11L25 10L22 10L22 8L21 8L21 10L22 10L22 11L21 11L21 12L18 12L18 11L20 11L20 10L18 10L18 8L17 8L17 6L16 6L16 5L15 5L15 4L17 4L17 2L16 2L16 1L17 1L17 0L16 0L16 1L15 1L15 2L14 2L14 1L11 1L11 2L10 2L10 0ZM12 2L12 3L14 3L14 4L15 4L15 3L16 3L16 2L15 2L15 3L14 3L14 2ZM10 3L10 4L11 4L11 7L12 7L12 4L11 4L11 3ZM8 5L8 7L9 7L9 5ZM13 5L13 8L14 8L14 9L12 9L12 8L11 8L11 9L10 9L10 11L11 11L11 12L10 12L10 13L12 13L12 14L11 14L11 15L9 15L9 17L10 17L10 18L11 18L11 17L12 17L12 15L13 15L13 16L14 16L14 17L15 17L15 18L14 18L14 19L13 19L13 20L16 20L16 19L15 19L15 18L16 18L16 15L15 15L15 14L14 14L14 13L16 13L16 11L15 11L15 12L14 12L14 11L12 11L12 10L14 10L14 9L15 9L15 10L17 10L17 11L18 11L18 10L17 10L17 9L15 9L15 8L16 8L16 6L15 6L15 5ZM14 6L14 8L15 8L15 6ZM0 8L0 9L2 9L2 10L0 10L0 11L2 11L2 12L1 12L1 13L0 13L0 17L1 17L1 14L2 14L2 15L4 15L4 13L3 13L3 14L2 14L2 12L4 12L4 10L5 10L5 8ZM19 8L19 9L20 9L20 8ZM23 8L23 9L24 9L24 8ZM8 9L8 10L9 10L9 9ZM11 9L11 10L12 10L12 9ZM12 12L12 13L14 13L14 12ZM17 12L17 13L18 13L18 14L17 14L17 15L18 15L18 14L19 14L19 15L20 15L20 16L21 16L21 19L22 19L22 20L21 20L21 21L22 21L22 24L24 24L24 22L23 22L23 21L22 21L22 20L24 20L24 18L23 18L23 17L22 17L22 16L21 16L21 15L20 15L20 14L21 14L21 13L22 13L22 12L21 12L21 13L18 13L18 12ZM6 15L6 16L7 16L7 15ZM10 16L10 17L11 17L11 16ZM17 17L17 20L20 20L20 17ZM18 18L18 19L19 19L19 18ZM22 18L22 19L23 19L23 18ZM13 21L13 22L15 22L15 21ZM17 21L17 22L16 22L16 23L17 23L17 22L18 22L18 23L19 23L19 22L20 22L20 23L21 23L21 22L20 22L20 21L19 21L19 22L18 22L18 21ZM0 0L0 7L7 7L7 0ZM1 1L1 6L6 6L6 1ZM2 2L2 5L5 5L5 2ZM18 0L18 7L25 7L25 0ZM19 1L19 6L24 6L24 1ZM20 2L20 5L23 5L23 2ZM0 18L0 25L7 25L7 18ZM1 19L1 24L6 24L6 19ZM2 20L2 23L5 23L5 20Z" fill="#000000"/></g></g></svg>
