<?xml version="1.0" encoding="UTF-8"?>
<svg xmlns="http://www.w3.org/2000/svg" version="1.1" width="200" height="200" viewBox="0 0 200 200"><rect x="0" y="0" width="200" height="200" fill="#ffffff"/><g transform="scale(8)"><g transform="translate(0,0)"><path fill-rule="evenodd" d="M9 0L9 1L8 1L8 2L9 2L9 3L8 3L8 4L10 4L10 7L11 7L11 8L6 8L6 9L5 9L5 8L0 8L0 9L1 9L1 10L2 10L2 11L0 11L0 17L1 17L1 13L3 13L3 14L2 14L2 17L3 17L3 15L4 15L4 16L5 16L5 17L7 17L7 16L5 16L5 15L7 15L7 14L6 14L6 13L7 13L7 12L8 12L8 9L9 9L9 13L10 13L10 15L8 15L8 19L9 19L9 20L8 20L8 25L9 25L9 23L10 23L10 22L12 22L12 21L14 21L14 22L13 22L13 23L12 23L12 25L15 25L15 24L17 24L17 25L19 25L19 23L16 23L16 22L21 22L21 24L22 24L22 25L25 25L25 21L24 21L24 20L25 20L25 18L24 18L24 17L25 17L25 16L22 16L22 15L21 15L21 14L24 14L24 15L25 15L25 14L24 14L24 13L25 13L25 12L22 12L22 11L25 11L25 10L22 10L22 8L21 8L21 10L22 10L22 11L21 11L21 12L20 12L20 13L19 13L19 11L20 11L20 8L19 8L19 10L15 10L15 9L18 9L18 8L17 8L17 6L16 6L16 5L15 5L15 4L17 4L17 2L16 2L16 1L17 1L17 0L16 0L16 1L15 1L15 2L14 2L14 1L11 1L11 2L10 2L10 0ZM12 2L12 3L14 3L14 4L15 4L15 3L16 3L16 2L15 2L15 3L14 3L14 2ZM10 3L10 4L11 4L11 7L12 7L12 8L11 8L11 9L10 9L10 11L11 11L11 12L10 12L10 13L12 13L12 14L11 14L11 17L13 17L13 19L12 19L12 18L9 18L9 19L11 19L11 20L9 20L9 22L10 22L10 21L12 21L12 20L14 20L14 21L15 21L15 20L16 20L16 19L15 19L15 18L16 18L16 15L15 15L15 13L16 13L16 11L15 11L15 13L12 13L12 11L13 11L13 12L14 12L14 11L13 11L13 10L14 10L14 9L15 9L15 8L16 8L16 6L15 6L15 5L13 5L13 7L12 7L12 4L11 4L11 3ZM8 5L8 7L9 7L9 5ZM14 6L14 8L12 8L12 9L11 9L11 10L12 10L12 9L14 9L14 8L15 8L15 6ZM23 8L23 9L24 9L24 8ZM2 9L2 10L4 10L4 11L5 11L5 9ZM6 9L6 10L7 10L7 9ZM6 11L6 12L7 12L7 11ZM17 11L17 12L18 12L18 11ZM3 12L3 13L4 13L4 14L5 14L5 12ZM21 12L21 13L20 13L20 14L19 14L19 13L17 13L17 14L19 14L19 15L17 15L17 16L21 16L21 20L24 20L24 18L23 18L23 17L22 17L22 16L21 16L21 15L20 15L20 14L21 14L21 13L22 13L22 12ZM12 14L12 16L13 16L13 17L14 17L14 18L15 18L15 17L14 17L14 16L13 16L13 15L14 15L14 14ZM9 16L9 17L10 17L10 16ZM17 17L17 20L20 20L20 17ZM18 18L18 19L19 19L19 18ZM22 18L22 19L23 19L23 18ZM22 21L22 22L23 22L23 23L22 23L22 24L24 24L24 22L23 22L23 21ZM14 22L14 23L13 23L13 24L15 24L15 22ZM0 0L0 7L7 7L7 0ZM1 1L1 6L6 6L6 1ZM2 2L2 5L5 5L5 2ZM18 0L18 7L25 7L25 0ZM19 1L19 6L24 6L24 1ZM20 2L20 5L23 5L23 2ZM0 18L0 25L7 25L7 18ZM1 19L1 24L6 24L6 19ZM2 20L2 23L5 23L5 20Z" fill="#000000"/></g></g></svg>
