<?xml version="1.0" encoding="UTF-8"?>
<svg xmlns="http://www.w3.org/2000/svg" version="1.1" width="200" height="200" viewBox="0 0 200 200"><rect x="0" y="0" width="200" height="200" fill="#ffffff"/><g transform="scale(8)"><g transform="translate(0,0)"><path fill-rule="evenodd" d="M8 0L8 1L10 1L10 0ZM16 0L16 1L17 1L17 0ZM13 1L13 2L11 2L11 4L10 4L10 3L9 3L9 2L8 2L8 5L9 5L9 6L8 6L8 7L9 7L9 8L8 8L8 9L7 9L7 8L6 8L6 9L7 9L7 10L6 10L6 11L8 11L8 14L6 14L6 13L7 13L7 12L6 12L6 13L4 13L4 11L5 11L5 9L4 9L4 8L0 8L0 10L1 10L1 9L3 9L3 10L4 10L4 11L0 11L0 12L1 12L1 15L0 15L0 16L1 16L1 15L5 15L5 14L6 14L6 15L7 15L7 16L6 16L6 17L7 17L7 16L8 16L8 14L9 14L9 17L8 17L8 18L9 18L9 21L8 21L8 25L11 25L11 23L13 23L13 24L12 24L12 25L15 25L15 24L14 24L14 23L16 23L16 22L17 22L17 21L18 21L18 24L17 24L17 25L20 25L20 24L19 24L19 22L20 22L20 23L21 23L21 21L22 21L22 20L21 20L21 16L19 16L19 15L20 15L20 14L21 14L21 15L23 15L23 13L24 13L24 14L25 14L25 11L24 11L24 12L23 12L23 10L22 10L22 9L23 9L23 8L20 8L20 9L21 9L21 10L19 10L19 12L18 12L18 11L17 11L17 10L18 10L18 8L17 8L17 5L16 5L16 4L17 4L17 3L16 3L16 2L15 2L15 1ZM14 3L14 6L13 6L13 4L12 4L12 5L10 5L10 6L9 6L9 7L10 7L10 8L9 8L9 9L8 9L8 11L9 11L9 12L10 12L10 13L9 13L9 14L10 14L10 17L9 17L9 18L10 18L10 19L12 19L12 18L13 18L13 23L14 23L14 21L16 21L16 20L15 20L15 19L14 19L14 18L13 18L13 17L12 17L12 15L13 15L13 16L16 16L16 15L17 15L17 16L18 16L18 15L19 15L19 14L18 14L18 15L17 15L17 14L16 14L16 12L17 12L17 11L16 11L16 10L17 10L17 8L15 8L15 7L16 7L16 5L15 5L15 3ZM10 6L10 7L11 7L11 6ZM12 6L12 9L11 9L11 11L13 11L13 12L12 12L12 14L13 14L13 15L15 15L15 14L13 14L13 13L14 13L14 12L16 12L16 11L15 11L15 10L14 10L14 11L13 11L13 6ZM14 6L14 7L15 7L15 6ZM14 8L14 9L15 9L15 8ZM24 8L24 9L25 9L25 8ZM9 9L9 10L10 10L10 9ZM20 11L20 12L19 12L19 13L20 13L20 12L21 12L21 14L22 14L22 11ZM3 13L3 14L4 14L4 13ZM10 13L10 14L11 14L11 13ZM2 16L2 17L3 17L3 16ZM22 16L22 18L24 18L24 19L23 19L23 23L22 23L22 25L25 25L25 24L23 24L23 23L24 23L24 22L25 22L25 20L24 20L24 19L25 19L25 17L23 17L23 16ZM11 17L11 18L12 18L12 17ZM17 17L17 20L20 20L20 17ZM18 18L18 19L19 19L19 18ZM11 20L11 21L10 21L10 23L9 23L9 24L10 24L10 23L11 23L11 21L12 21L12 20ZM0 0L0 7L7 7L7 0ZM1 1L1 6L6 6L6 1ZM2 2L2 5L5 5L5 2ZM18 0L18 7L25 7L25 0ZM19 1L19 6L24 6L24 1ZM20 2L20 5L23 5L23 2ZM0 18L0 25L7 25L7 18ZM1 19L1 24L6 24L6 19ZM2 20L2 23L5 23L5 20Z" fill="#000000"/></g></g></svg>
