<?xml version="1.0" encoding="UTF-8"?>
<svg xmlns="http://www.w3.org/2000/svg" version="1.1" width="200" height="200" viewBox="0 0 200 200"><rect x="0" y="0" width="200" height="200" fill="#ffffff"/><g transform="scale(9.524)"><g transform="translate(0,0)"><path fill-rule="evenodd" d="M9 0L9 1L8 1L8 2L9 2L9 3L8 3L8 4L10 4L10 5L8 5L8 7L9 7L9 6L10 6L10 8L6 8L6 9L7 9L7 10L6 10L6 11L5 11L5 13L8 13L8 15L10 15L10 14L9 14L9 13L8 13L8 12L6 12L6 11L8 11L8 9L10 9L10 10L9 10L9 11L10 11L10 13L11 13L11 12L12 12L12 13L15 13L15 14L17 14L17 15L16 15L16 16L19 16L19 15L18 15L18 14L21 14L21 13L20 13L20 12L21 12L21 11L20 11L20 12L19 12L19 11L17 11L17 12L19 12L19 13L18 13L18 14L17 14L17 13L15 13L15 12L16 12L16 10L21 10L21 9L20 9L20 8L19 8L19 9L18 9L18 8L17 8L17 9L16 9L16 8L15 8L15 9L16 9L16 10L15 10L15 12L13 12L13 11L14 11L14 10L13 10L13 9L14 9L14 8L13 8L13 9L12 9L12 7L13 7L13 4L12 4L12 2L13 2L13 1L12 1L12 0L11 0L11 1L10 1L10 0ZM9 1L9 2L10 2L10 4L11 4L11 2L12 2L12 1L11 1L11 2L10 2L10 1ZM11 6L11 7L12 7L12 6ZM0 8L0 9L1 9L1 10L3 10L3 12L1 12L1 11L0 11L0 13L4 13L4 9L5 9L5 8ZM10 8L10 9L11 9L11 8ZM11 14L11 16L10 16L10 18L9 18L9 16L8 16L8 21L10 21L10 20L12 20L12 21L16 21L16 20L19 20L19 21L20 21L20 20L19 20L19 18L20 18L20 17L18 17L18 18L17 18L17 17L16 17L16 18L14 18L14 17L15 17L15 16L12 16L12 15L13 15L13 14ZM12 17L12 18L10 18L10 19L9 19L9 20L10 20L10 19L12 19L12 18L13 18L13 17ZM16 18L16 19L17 19L17 18ZM13 19L13 20L15 20L15 19ZM0 0L0 7L7 7L7 0ZM1 1L1 6L6 6L6 1ZM2 2L2 5L5 5L5 2ZM14 0L14 7L21 7L21 0ZM15 1L15 6L20 6L20 1ZM16 2L16 5L19 5L19 2ZM0 14L0 21L7 21L7 14ZM1 15L1 20L6 20L6 15ZM2 16L2 19L5 19L5 16Z" fill="#000000"/></g></g></svg>
