<?xml version="1.0" encoding="UTF-8"?>
<svg xmlns="http://www.w3.org/2000/svg" version="1.1" width="200" height="200" viewBox="0 0 200 200"><rect x="0" y="0" width="200" height="200" fill="#ffffff"/><g transform="scale(9.524)"><g transform="translate(0,0)"><path fill-rule="evenodd" d="M8 0L8 1L9 1L9 0ZM10 0L10 2L9 2L9 3L10 3L10 5L11 5L11 4L12 4L12 7L11 7L11 6L10 6L10 7L9 7L9 6L8 6L8 8L9 8L9 9L8 9L8 10L6 10L6 11L8 11L8 14L9 14L9 16L8 16L8 18L9 18L9 19L8 19L8 21L11 21L11 19L13 19L13 20L12 20L12 21L13 21L13 20L14 20L14 21L17 21L17 20L21 20L21 18L20 18L20 17L21 17L21 15L20 15L20 14L19 14L19 13L18 13L18 12L19 12L19 11L18 11L18 10L20 10L20 13L21 13L21 10L20 10L20 9L21 9L21 8L20 8L20 9L17 9L17 11L18 11L18 12L16 12L16 9L15 9L15 8L14 8L14 9L15 9L15 10L13 10L13 9L12 9L12 7L13 7L13 4L12 4L12 2L13 2L13 1L12 1L12 2L11 2L11 0ZM0 8L0 9L2 9L2 8ZM3 8L3 10L0 10L0 11L1 11L1 12L3 12L3 11L4 11L4 13L7 13L7 12L5 12L5 11L4 11L4 9L5 9L5 8ZM6 8L6 9L7 9L7 8ZM9 9L9 10L8 10L8 11L9 11L9 12L10 12L10 13L9 13L9 14L10 14L10 16L9 16L9 18L10 18L10 19L9 19L9 20L10 20L10 19L11 19L11 18L13 18L13 17L14 17L14 18L15 18L15 20L16 20L16 18L17 18L17 19L18 19L18 18L17 18L17 16L16 16L16 17L15 17L15 16L12 16L12 17L10 17L10 16L11 16L11 14L13 14L13 15L15 15L15 11L13 11L13 13L11 13L11 12L12 12L12 10L11 10L11 12L10 12L10 9ZM13 13L13 14L14 14L14 13ZM17 13L17 14L18 14L18 15L19 15L19 16L18 16L18 17L20 17L20 15L19 15L19 14L18 14L18 13ZM0 0L0 7L7 7L7 0ZM1 1L1 6L6 6L6 1ZM2 2L2 5L5 5L5 2ZM14 0L14 7L21 7L21 0ZM15 1L15 6L20 6L20 1ZM16 2L16 5L19 5L19 2ZM0 14L0 21L7 21L7 14ZM1 15L1 20L6 20L6 15ZM2 16L2 19L5 19L5 16Z" fill="#000000"/></g></g></svg>
