<?xml version="1.0" encoding="UTF-8"?>
<svg xmlns="http://www.w3.org/2000/svg" version="1.1" width="200" height="200" viewBox="0 0 200 200"><rect x="0" y="0" width="200" height="200" fill="#ffffff"/><g transform="scale(8)"><g transform="translate(0,0)"><path fill-rule="evenodd" d="M10 0L10 1L8 1L8 3L9 3L9 4L8 4L8 8L6 8L6 9L7 9L7 10L5 10L5 9L4 9L4 8L3 8L3 9L2 9L2 8L0 8L0 9L2 9L2 10L1 10L1 12L2 12L2 10L5 10L5 11L4 11L4 12L5 12L5 11L7 11L7 12L6 12L6 13L8 13L8 15L7 15L7 14L6 14L6 15L7 15L7 16L6 16L6 17L8 17L8 19L10 19L10 20L11 20L11 21L12 21L12 22L14 22L14 23L13 23L13 25L17 25L17 24L18 24L18 23L16 23L16 22L14 22L14 21L15 21L15 20L11 20L11 19L10 19L10 17L11 17L11 18L13 18L13 19L14 19L14 17L16 17L16 21L19 21L19 22L20 22L20 23L19 23L19 25L22 25L22 22L21 22L21 19L22 19L22 20L24 20L24 19L25 19L25 9L24 9L24 8L22 8L22 9L21 9L21 8L18 8L18 9L17 9L17 10L16 10L16 12L15 12L15 14L14 14L14 15L13 15L13 16L12 16L12 17L11 17L11 16L10 16L10 13L11 13L11 11L9 11L9 12L8 12L8 10L10 10L10 9L8 9L8 8L9 8L9 5L10 5L10 8L11 8L11 9L12 9L12 8L11 8L11 4L10 4L10 3L9 3L9 2L11 2L11 0ZM14 0L14 1L13 1L13 2L14 2L14 4L12 4L12 5L13 5L13 6L12 6L12 7L13 7L13 6L14 6L14 8L13 8L13 11L12 11L12 14L11 14L11 15L12 15L12 14L13 14L13 13L14 13L14 11L15 11L15 10L14 10L14 9L15 9L15 6L16 6L16 7L17 7L17 6L16 6L16 4L17 4L17 3L16 3L16 2L17 2L17 1L16 1L16 0ZM14 1L14 2L15 2L15 1ZM19 9L19 11L17 11L17 12L16 12L16 14L15 14L15 16L16 16L16 15L18 15L18 14L17 14L17 12L19 12L19 11L20 11L20 13L19 13L19 14L21 14L21 13L23 13L23 14L24 14L24 13L23 13L23 12L24 12L24 11L20 11L20 10L21 10L21 9ZM22 9L22 10L23 10L23 9ZM9 12L9 13L10 13L10 12ZM1 13L1 14L0 14L0 15L1 15L1 16L0 16L0 17L3 17L3 16L2 16L2 15L5 15L5 13L3 13L3 14L2 14L2 13ZM1 14L1 15L2 15L2 14ZM8 15L8 16L9 16L9 17L10 17L10 16L9 16L9 15ZM20 15L20 16L21 16L21 17L22 17L22 18L23 18L23 19L24 19L24 18L23 18L23 17L22 17L22 16L23 16L23 15ZM13 16L13 17L14 17L14 16ZM17 17L17 20L20 20L20 17ZM18 18L18 19L19 19L19 18ZM8 21L8 22L9 22L9 23L8 23L8 25L10 25L10 21ZM24 22L24 23L25 23L25 22ZM14 23L14 24L15 24L15 23ZM20 23L20 24L21 24L21 23ZM11 24L11 25L12 25L12 24ZM23 24L23 25L25 25L25 24ZM0 0L0 7L7 7L7 0ZM1 1L1 6L6 6L6 1ZM2 2L2 5L5 5L5 2ZM18 0L18 7L25 7L25 0ZM19 1L19 6L24 6L24 1ZM20 2L20 5L23 5L23 2ZM0 18L0 25L7 25L7 18ZM1 19L1 24L6 24L6 19ZM2 20L2 23L5 23L5 20Z" fill="#000000"/></g></g></svg>
