<?xml version="1.0" encoding="UTF-8"?>
<svg xmlns="http://www.w3.org/2000/svg" version="1.1" width="200" height="200" viewBox="0 0 200 200"><rect x="0" y="0" width="200" height="200" fill="#ffffff"/><g transform="scale(8)"><g transform="translate(0,0)"><path fill-rule="evenodd" d="M9 0L9 1L8 1L8 2L9 2L9 3L8 3L8 4L10 4L10 7L11 7L11 4L12 4L12 7L13 7L13 4L17 4L17 2L16 2L16 1L17 1L17 0L16 0L16 1L15 1L15 2L14 2L14 1L11 1L11 2L10 2L10 0ZM12 2L12 3L14 3L14 2ZM15 2L15 3L16 3L16 2ZM10 3L10 4L11 4L11 3ZM8 5L8 7L9 7L9 5ZM15 5L15 6L14 6L14 8L13 8L13 9L11 9L11 8L6 8L6 9L8 9L8 10L9 10L9 12L6 12L6 11L7 11L7 10L4 10L4 9L5 9L5 8L0 8L0 9L3 9L3 10L0 10L0 12L1 12L1 13L0 13L0 17L1 17L1 13L2 13L2 15L4 15L4 16L3 16L3 17L4 17L4 16L6 16L6 17L7 17L7 16L8 16L8 15L9 15L9 14L12 14L12 13L15 13L15 14L14 14L14 16L13 16L13 15L10 15L10 16L9 16L9 17L8 17L8 19L9 19L9 18L12 18L12 17L14 17L14 18L13 18L13 19L11 19L11 20L12 20L12 21L9 21L9 20L8 20L8 25L12 25L12 24L13 24L13 25L14 25L14 24L19 24L19 25L20 25L20 24L22 24L22 25L25 25L25 21L24 21L24 20L25 20L25 18L24 18L24 17L25 17L25 16L17 16L17 15L21 15L21 14L22 14L22 13L23 13L23 14L24 14L24 15L25 15L25 14L24 14L24 13L25 13L25 12L21 12L21 11L20 11L20 8L19 8L19 10L15 10L15 11L14 11L14 12L12 12L12 13L10 13L10 12L11 12L11 11L10 11L10 9L11 9L11 10L13 10L13 9L18 9L18 8L17 8L17 6L16 6L16 5ZM15 6L15 8L16 8L16 6ZM21 8L21 10L22 10L22 11L25 11L25 10L22 10L22 8ZM23 8L23 9L24 9L24 8ZM3 10L3 11L1 11L1 12L4 12L4 13L3 13L3 14L4 14L4 15L5 15L5 13L6 13L6 14L7 14L7 15L6 15L6 16L7 16L7 15L8 15L8 14L9 14L9 13L8 13L8 14L7 14L7 13L6 13L6 12L5 12L5 11L4 11L4 10ZM15 11L15 13L16 13L16 11ZM17 11L17 12L18 12L18 11ZM19 11L19 12L20 12L20 11ZM17 13L17 14L21 14L21 13ZM15 15L15 16L14 16L14 17L15 17L15 18L16 18L16 15ZM11 16L11 17L12 17L12 16ZM17 17L17 20L20 20L20 17ZM22 17L22 18L21 18L21 20L24 20L24 18L23 18L23 17ZM18 18L18 19L19 19L19 18ZM13 19L13 20L16 20L16 19ZM12 21L12 22L11 22L11 24L12 24L12 23L13 23L13 24L14 24L14 23L19 23L19 24L20 24L20 23L22 23L22 24L24 24L24 22L23 22L23 21L21 21L21 22L20 22L20 21L19 21L19 22L17 22L17 21ZM13 22L13 23L14 23L14 22ZM19 22L19 23L20 23L20 22ZM9 23L9 24L10 24L10 23ZM0 0L0 7L7 7L7 0ZM1 1L1 6L6 6L6 1ZM2 2L2 5L5 5L5 2ZM18 0L18 7L25 7L25 0ZM19 1L19 6L24 6L24 1ZM20 2L20 5L23 5L23 2ZM0 18L0 25L7 25L7 18ZM1 19L1 24L6 24L6 19ZM2 20L2 23L5 23L5 20Z" fill="#000000"/></g></g></svg>
