<?xml version="1.0" encoding="UTF-8"?>
<svg xmlns="http://www.w3.org/2000/svg" version="1.1" width="200" height="200" viewBox="0 0 200 200"><rect x="0" y="0" width="200" height="200" fill="#ffffff"/><g transform="scale(9.524)"><g transform="translate(0,0)"><path fill-rule="evenodd" d="M9 0L9 1L8 1L8 2L9 2L9 3L8 3L8 4L10 4L10 5L8 5L8 7L9 7L9 6L10 6L10 8L6 8L6 9L5 9L5 8L0 8L0 13L1 13L1 12L2 12L2 11L3 11L3 12L4 12L4 13L5 13L5 12L6 12L6 13L8 13L8 15L11 15L11 16L12 16L12 17L9 17L9 16L8 16L8 21L9 21L9 18L12 18L12 20L11 20L11 19L10 19L10 20L11 20L11 21L13 21L13 20L14 20L14 21L16 21L16 20L19 20L19 21L20 21L20 20L19 20L19 18L20 18L20 17L18 17L18 18L17 18L17 17L16 17L16 16L12 16L12 15L13 15L13 14L14 14L14 13L15 13L15 12L16 12L16 11L15 11L15 10L21 10L21 9L20 9L20 8L19 8L19 9L18 9L18 8L17 8L17 9L16 9L16 8L15 8L15 10L14 10L14 11L13 11L13 9L14 9L14 8L13 8L13 9L12 9L12 7L13 7L13 4L12 4L12 2L13 2L13 1L12 1L12 0L11 0L11 1L10 1L10 0ZM11 1L11 2L10 2L10 4L11 4L11 2L12 2L12 1ZM11 6L11 7L12 7L12 6ZM10 8L10 9L6 9L6 10L9 10L9 11L8 11L8 13L10 13L10 12L11 12L11 14L13 14L13 13L14 13L14 12L15 12L15 11L14 11L14 12L13 12L13 11L10 11L10 9L11 9L11 8ZM1 9L1 11L2 11L2 9ZM3 9L3 11L4 11L4 12L5 12L5 10L4 10L4 9ZM6 11L6 12L7 12L7 11ZM17 11L17 12L19 12L19 13L18 13L18 14L17 14L17 13L16 13L16 14L15 14L15 15L16 15L16 14L17 14L17 16L19 16L19 15L18 15L18 14L21 14L21 13L20 13L20 12L21 12L21 11L20 11L20 12L19 12L19 11ZM12 12L12 13L13 13L13 12ZM12 17L12 18L14 18L14 20L15 20L15 19L17 19L17 18L15 18L15 17ZM0 0L0 7L7 7L7 0ZM1 1L1 6L6 6L6 1ZM2 2L2 5L5 5L5 2ZM14 0L14 7L21 7L21 0ZM15 1L15 6L20 6L20 1ZM16 2L16 5L19 5L19 2ZM0 14L0 21L7 21L7 14ZM1 15L1 20L6 20L6 15ZM2 16L2 19L5 19L5 16Z" fill="#000000"/></g></g></svg>
