<?xml version="1.0" encoding="UTF-8"?>
<svg xmlns="http://www.w3.org/2000/svg" version="1.1" width="200" height="200" viewBox="0 0 200 200"><rect x="0" y="0" width="200" height="200" fill="#ffffff"/><g transform="scale(9.524)"><g transform="translate(0,0)"><path fill-rule="evenodd" d="M9 0L9 1L8 1L8 2L9 2L9 3L8 3L8 4L10 4L10 5L8 5L8 7L9 7L9 6L10 6L10 8L6 8L6 9L7 9L7 10L5 10L5 8L0 8L0 9L1 9L1 10L0 10L0 11L1 11L1 13L2 13L2 12L6 12L6 13L7 13L7 12L8 12L8 15L10 15L10 14L11 14L11 16L14 16L14 17L13 17L13 18L12 18L12 17L10 17L10 16L8 16L8 21L9 21L9 19L11 19L11 18L12 18L12 19L13 19L13 18L14 18L14 17L15 17L15 18L17 18L17 19L15 19L15 20L12 20L12 21L16 21L16 20L19 20L19 21L20 21L20 20L19 20L19 18L20 18L20 17L18 17L18 18L17 18L17 17L16 17L16 16L14 16L14 14L15 14L15 15L16 15L16 14L17 14L17 16L19 16L19 15L18 15L18 14L21 14L21 13L20 13L20 12L21 12L21 11L20 11L20 12L19 12L19 11L16 11L16 10L21 10L21 9L20 9L20 8L19 8L19 9L18 9L18 8L17 8L17 9L16 9L16 8L15 8L15 9L14 9L14 8L13 8L13 9L12 9L12 7L13 7L13 4L12 4L12 2L13 2L13 1L12 1L12 0L11 0L11 1L12 1L12 2L11 2L11 4L10 4L10 2L9 2L9 1L10 1L10 0ZM11 6L11 7L12 7L12 6ZM10 8L10 9L11 9L11 8ZM13 9L13 10L14 10L14 11L13 11L13 12L16 12L16 13L15 13L15 14L16 14L16 13L17 13L17 14L18 14L18 13L19 13L19 12L16 12L16 11L15 11L15 10L16 10L16 9L15 9L15 10L14 10L14 9ZM1 10L1 11L2 11L2 10ZM6 11L6 12L7 12L7 11ZM8 11L8 12L9 12L9 13L10 13L10 12L11 12L11 14L14 14L14 13L12 13L12 12L11 12L11 11ZM9 17L9 18L10 18L10 17ZM10 20L10 21L11 21L11 20ZM0 0L0 7L7 7L7 0ZM1 1L1 6L6 6L6 1ZM2 2L2 5L5 5L5 2ZM14 0L14 7L21 7L21 0ZM15 1L15 6L20 6L20 1ZM16 2L16 5L19 5L19 2ZM0 14L0 21L7 21L7 14ZM1 15L1 20L6 20L6 15ZM2 16L2 19L5 19L5 16Z" fill="#000000"/></g></g></svg>
