<?xml version="1.0" encoding="UTF-8"?>
<svg xmlns="http://www.w3.org/2000/svg" version="1.1" width="200" height="200" viewBox="0 0 200 200"><rect x="0" y="0" width="200" height="200" fill="#ffffff"/><g transform="scale(9.524)"><g transform="translate(0,0)"><path fill-rule="evenodd" d="M10 0L10 1L11 1L11 2L10 2L10 3L9 3L9 1L8 1L8 3L9 3L9 4L8 4L8 8L6 8L6 9L7 9L7 10L6 10L6 11L8 11L8 12L9 12L9 13L8 13L8 15L9 15L9 17L8 17L8 18L9 18L9 19L8 19L8 21L9 21L9 20L10 20L10 21L15 21L15 20L16 20L16 21L18 21L18 20L16 20L16 19L19 19L19 18L17 18L17 16L16 16L16 15L17 15L17 14L18 14L18 13L17 13L17 12L18 12L18 11L15 11L15 10L14 10L14 9L16 9L16 10L17 10L17 8L14 8L14 9L13 9L13 10L11 10L11 8L10 8L10 10L8 10L8 8L9 8L9 6L10 6L10 7L11 7L11 6L12 6L12 8L13 8L13 6L12 6L12 5L13 5L13 3L12 3L12 4L10 4L10 3L11 3L11 2L12 2L12 0ZM0 8L0 10L1 10L1 11L0 11L0 13L1 13L1 12L2 12L2 13L3 13L3 12L4 12L4 13L5 13L5 10L4 10L4 8L3 8L3 10L1 10L1 9L2 9L2 8ZM18 8L18 9L20 9L20 10L19 10L19 14L21 14L21 12L20 12L20 11L21 11L21 9L20 9L20 8ZM13 10L13 11L11 11L11 12L13 12L13 11L14 11L14 10ZM6 12L6 13L7 13L7 12ZM14 12L14 13L13 13L13 15L12 15L12 14L11 14L11 13L10 13L10 14L9 14L9 15L10 15L10 17L9 17L9 18L10 18L10 17L11 17L11 18L12 18L12 17L11 17L11 15L12 15L12 16L13 16L13 17L15 17L15 19L12 19L12 20L15 20L15 19L16 19L16 16L15 16L15 15L16 15L16 14L17 14L17 13L15 13L15 12ZM10 14L10 15L11 15L11 14ZM13 15L13 16L14 16L14 15ZM19 15L19 17L20 17L20 19L21 19L21 16L20 16L20 15ZM10 19L10 20L11 20L11 19ZM19 20L19 21L20 21L20 20ZM0 0L0 7L7 7L7 0ZM1 1L1 6L6 6L6 1ZM2 2L2 5L5 5L5 2ZM14 0L14 7L21 7L21 0ZM15 1L15 6L20 6L20 1ZM16 2L16 5L19 5L19 2ZM0 14L0 21L7 21L7 14ZM1 15L1 20L6 20L6 15ZM2 16L2 19L5 19L5 16Z" fill="#000000"/></g></g></svg>
