<?xml version="1.0" encoding="UTF-8"?>
<svg xmlns="http://www.w3.org/2000/svg" version="1.1" width="200" height="200" viewBox="0 0 200 200"><rect x="0" y="0" width="200" height="200" fill="#ffffff"/><g transform="scale(8)"><g transform="translate(0,0)"><path fill-rule="evenodd" d="M9 0L9 1L8 1L8 2L9 2L9 3L8 3L8 4L10 4L10 7L11 7L11 4L12 4L12 5L13 5L13 4L17 4L17 2L16 2L16 1L17 1L17 0L16 0L16 1L15 1L15 2L14 2L14 1L11 1L11 2L10 2L10 0ZM12 2L12 3L14 3L14 2ZM15 2L15 3L16 3L16 2ZM10 3L10 4L11 4L11 3ZM8 5L8 7L9 7L9 5ZM15 5L15 6L14 6L14 8L12 8L12 9L11 9L11 8L6 8L6 9L7 9L7 10L6 10L6 11L8 11L8 10L9 10L9 13L8 13L8 19L9 19L9 18L12 18L12 19L10 19L10 21L9 21L9 20L8 20L8 25L11 25L11 24L9 24L9 23L10 23L10 22L12 22L12 23L14 23L14 22L12 22L12 21L15 21L15 22L17 22L17 23L15 23L15 24L17 24L17 23L18 23L18 25L19 25L19 24L20 24L20 25L21 25L21 24L22 24L22 25L25 25L25 21L24 21L24 20L25 20L25 18L24 18L24 17L25 17L25 16L19 16L19 14L18 14L18 15L17 15L17 13L21 13L21 14L20 14L20 15L21 15L21 14L22 14L22 13L23 13L23 14L24 14L24 15L25 15L25 14L24 14L24 13L25 13L25 12L20 12L20 10L18 10L18 8L17 8L17 6L16 6L16 5ZM12 6L12 7L13 7L13 6ZM15 6L15 8L16 8L16 6ZM0 8L0 9L3 9L3 10L0 10L0 12L1 12L1 13L0 13L0 17L1 17L1 14L2 14L2 17L3 17L3 16L4 16L4 17L5 17L5 16L6 16L6 17L7 17L7 16L6 16L6 15L7 15L7 14L6 14L6 13L7 13L7 12L6 12L6 13L5 13L5 11L4 11L4 9L5 9L5 8ZM19 8L19 9L20 9L20 8ZM21 8L21 10L22 10L22 11L25 11L25 10L22 10L22 8ZM23 8L23 9L24 9L24 8ZM10 9L10 11L11 11L11 12L10 12L10 13L9 13L9 14L10 14L10 15L13 15L13 16L14 16L14 17L15 17L15 18L13 18L13 17L12 17L12 16L11 16L11 17L12 17L12 18L13 18L13 19L12 19L12 20L11 20L11 21L12 21L12 20L14 20L14 19L15 19L15 20L16 20L16 19L15 19L15 18L16 18L16 15L13 15L13 14L14 14L14 13L16 13L16 11L15 11L15 10L17 10L17 12L18 12L18 10L17 10L17 9L12 9L12 10L11 10L11 9ZM13 10L13 11L12 11L12 13L10 13L10 14L12 14L12 13L14 13L14 12L13 12L13 11L14 11L14 10ZM1 11L1 12L2 12L2 11ZM3 11L3 13L2 13L2 14L3 14L3 15L4 15L4 16L5 16L5 15L6 15L6 14L3 14L3 13L4 13L4 11ZM9 16L9 17L10 17L10 16ZM17 17L17 20L20 20L20 17ZM22 17L22 18L23 18L23 19L22 19L22 20L21 20L21 22L20 22L20 21L19 21L19 22L18 22L18 21L17 21L17 22L18 22L18 23L19 23L19 22L20 22L20 24L21 24L21 22L23 22L23 23L22 23L22 24L24 24L24 22L23 22L23 21L22 21L22 20L24 20L24 18L23 18L23 17ZM18 18L18 19L19 19L19 18ZM13 24L13 25L14 25L14 24ZM0 0L0 7L7 7L7 0ZM1 1L1 6L6 6L6 1ZM2 2L2 5L5 5L5 2ZM18 0L18 7L25 7L25 0ZM19 1L19 6L24 6L24 1ZM20 2L20 5L23 5L23 2ZM0 18L0 25L7 25L7 18ZM1 19L1 24L6 24L6 19ZM2 20L2 23L5 23L5 20Z" fill="#000000"/></g></g></svg>
