<?xml version="1.0" encoding="UTF-8"?>
<svg xmlns="http://www.w3.org/2000/svg" version="1.1" width="200" height="200" viewBox="0 0 200 200"><rect x="0" y="0" width="200" height="200" fill="#ffffff"/><g transform="scale(9.524)"><g transform="translate(0,0)"><path fill-rule="evenodd" d="M10 0L10 1L8 1L8 3L9 3L9 4L8 4L8 8L6 8L6 9L8 9L8 10L5 10L5 9L4 9L4 8L3 8L3 10L2 10L2 11L1 11L1 9L2 9L2 8L0 8L0 13L1 13L1 12L2 12L2 13L5 13L5 11L8 11L8 10L10 10L10 9L11 9L11 8L10 8L10 9L8 9L8 8L9 8L9 6L10 6L10 7L11 7L11 6L12 6L12 8L13 8L13 6L12 6L12 5L13 5L13 3L12 3L12 4L10 4L10 3L11 3L11 2L12 2L12 0ZM10 1L10 2L9 2L9 3L10 3L10 2L11 2L11 1ZM14 8L14 9L13 9L13 10L11 10L11 12L10 12L10 11L9 11L9 12L8 12L8 15L10 15L10 14L11 14L11 15L13 15L13 16L11 16L11 17L12 17L12 18L10 18L10 19L12 19L12 20L11 20L11 21L13 21L13 20L14 20L14 21L15 21L15 20L16 20L16 21L18 21L18 20L16 20L16 19L19 19L19 18L17 18L17 17L13 17L13 16L14 16L14 15L15 15L15 14L14 14L14 13L12 13L12 14L11 14L11 12L12 12L12 11L13 11L13 10L14 10L14 12L16 12L16 13L17 13L17 14L16 14L16 16L17 16L17 14L18 14L18 13L17 13L17 12L18 12L18 11L17 11L17 12L16 12L16 11L15 11L15 9L16 9L16 10L17 10L17 8ZM18 8L18 9L20 9L20 10L19 10L19 14L21 14L21 12L20 12L20 11L21 11L21 9L20 9L20 8ZM4 10L4 11L3 11L3 12L4 12L4 11L5 11L5 10ZM6 12L6 13L7 13L7 12ZM9 12L9 14L10 14L10 12ZM13 14L13 15L14 15L14 14ZM19 15L19 17L20 17L20 19L21 19L21 16L20 16L20 15ZM8 17L8 18L9 18L9 17ZM8 19L8 21L10 21L10 20L9 20L9 19ZM14 19L14 20L15 20L15 19ZM19 20L19 21L20 21L20 20ZM0 0L0 7L7 7L7 0ZM1 1L1 6L6 6L6 1ZM2 2L2 5L5 5L5 2ZM14 0L14 7L21 7L21 0ZM15 1L15 6L20 6L20 1ZM16 2L16 5L19 5L19 2ZM0 14L0 21L7 21L7 14ZM1 15L1 20L6 20L6 15ZM2 16L2 19L5 19L5 16Z" fill="#000000"/></g></g></svg>
