<?xml version="1.0" encoding="UTF-8"?>
<svg xmlns="http://www.w3.org/2000/svg" version="1.1" width="200" height="200" viewBox="0 0 200 200"><rect x="0" y="0" width="200" height="200" fill="#ffffff"/><g transform="scale(9.524)"><g transform="translate(0,0)"><path fill-rule="evenodd" d="M10 0L10 2L9 2L9 3L8 3L8 5L9 5L9 3L10 3L10 7L9 7L9 6L8 6L8 7L9 7L9 9L10 9L10 8L11 8L11 11L10 11L10 10L9 10L9 11L10 11L10 12L8 12L8 10L5 10L5 9L8 9L8 8L5 8L5 9L3 9L3 10L1 10L1 9L2 9L2 8L0 8L0 10L1 10L1 11L3 11L3 12L5 12L5 11L7 11L7 12L6 12L6 13L8 13L8 16L9 16L9 18L11 18L11 19L10 19L10 20L11 20L11 21L13 21L13 20L14 20L14 21L16 21L16 20L19 20L19 21L20 21L20 20L19 20L19 19L21 19L21 18L20 18L20 17L18 17L18 19L17 19L17 17L16 17L16 16L19 16L19 15L18 15L18 14L21 14L21 11L20 11L20 13L18 13L18 12L19 12L19 11L17 11L17 12L16 12L16 13L15 13L15 15L14 15L14 16L12 16L12 15L13 15L13 14L14 14L14 11L15 11L15 9L14 9L14 11L13 11L13 9L12 9L12 7L13 7L13 4L12 4L12 2L13 2L13 1L12 1L12 2L11 2L11 0ZM10 2L10 3L11 3L11 2ZM11 6L11 7L12 7L12 6ZM16 8L16 9L17 9L17 10L20 10L20 9L18 9L18 8ZM4 10L4 11L5 11L5 10ZM11 11L11 12L10 12L10 13L9 13L9 14L13 14L13 13L11 13L11 12L13 12L13 11ZM0 12L0 13L1 13L1 12ZM17 13L17 14L16 14L16 15L17 15L17 14L18 14L18 13ZM10 15L10 16L11 16L11 17L12 17L12 18L13 18L13 19L14 19L14 20L16 20L16 17L12 17L12 16L11 16L11 15ZM20 15L20 16L21 16L21 15ZM14 18L14 19L15 19L15 18ZM8 19L8 21L9 21L9 19ZM11 19L11 20L12 20L12 19ZM0 0L0 7L7 7L7 0ZM1 1L1 6L6 6L6 1ZM2 2L2 5L5 5L5 2ZM14 0L14 7L21 7L21 0ZM15 1L15 6L20 6L20 1ZM16 2L16 5L19 5L19 2ZM0 14L0 21L7 21L7 14ZM1 15L1 20L6 20L6 15ZM2 16L2 19L5 19L5 16Z" fill="#000000"/></g></g></svg>
