<?xml version="1.0" encoding="UTF-8"?>
<svg xmlns="http://www.w3.org/2000/svg" version="1.1" width="200" height="200" viewBox="0 0 200 200"><rect x="0" y="0" width="200" height="200" fill="#ffffff"/><g transform="scale(9.524)"><g transform="translate(0,0)"><path fill-rule="evenodd" d="M8 0L8 1L10 1L10 3L9 3L9 2L8 2L8 5L11 5L11 6L10 6L10 7L9 7L9 6L8 6L8 7L9 7L9 8L8 8L8 9L9 9L9 8L10 8L10 9L11 9L11 10L14 10L14 11L13 11L13 13L12 13L12 14L13 14L13 15L12 15L12 16L11 16L11 17L10 17L10 16L9 16L9 17L8 17L8 21L9 21L9 19L10 19L10 20L11 20L11 21L12 21L12 19L13 19L13 21L15 21L15 19L16 19L16 21L17 21L17 19L19 19L19 18L17 18L17 19L16 19L16 17L19 17L19 15L20 15L20 12L21 12L21 8L20 8L20 9L19 9L19 8L16 8L16 10L17 10L17 11L15 11L15 10L14 10L14 8L13 8L13 6L12 6L12 5L11 5L11 4L12 4L12 3L13 3L13 2L12 2L12 0L11 0L11 1L10 1L10 0ZM10 3L10 4L11 4L11 3ZM11 6L11 8L12 8L12 6ZM0 8L0 9L3 9L3 10L2 10L2 13L4 13L4 12L3 12L3 10L4 10L4 11L7 11L7 12L6 12L6 13L8 13L8 14L9 14L9 15L11 15L11 12L12 12L12 11L11 11L11 12L10 12L10 14L9 14L9 10L8 10L8 11L7 11L7 10L4 10L4 8ZM6 8L6 9L7 9L7 8ZM0 10L0 11L1 11L1 10ZM19 10L19 11L18 11L18 12L17 12L17 13L18 13L18 14L19 14L19 11L20 11L20 10ZM14 11L14 12L15 12L15 11ZM0 12L0 13L1 13L1 12ZM14 14L14 16L12 16L12 17L13 17L13 18L14 18L14 19L15 19L15 17L16 17L16 16L17 16L17 15L16 15L16 14ZM20 16L20 17L21 17L21 16ZM9 17L9 18L10 18L10 17ZM11 18L11 19L12 19L12 18ZM20 19L20 20L21 20L21 19ZM18 20L18 21L19 21L19 20ZM0 0L0 7L7 7L7 0ZM1 1L1 6L6 6L6 1ZM2 2L2 5L5 5L5 2ZM14 0L14 7L21 7L21 0ZM15 1L15 6L20 6L20 1ZM16 2L16 5L19 5L19 2ZM0 14L0 21L7 21L7 14ZM1 15L1 20L6 20L6 15ZM2 16L2 19L5 19L5 16Z" fill="#000000"/></g></g></svg>
