<?xml version="1.0" encoding="UTF-8"?>
<svg xmlns="http://www.w3.org/2000/svg" version="1.1" width="200" height="200" viewBox="0 0 200 200"><rect x="0" y="0" width="200" height="200" fill="#ffffff"/><g transform="scale(9.524)"><g transform="translate(0,0)"><path fill-rule="evenodd" d="M8 0L8 1L9 1L9 2L8 2L8 5L11 5L11 6L10 6L10 7L9 7L9 6L8 6L8 7L9 7L9 8L8 8L8 9L7 9L7 8L6 8L6 9L7 9L7 10L6 10L6 11L7 11L7 12L5 12L5 9L4 9L4 8L0 8L0 9L2 9L2 10L3 10L3 12L2 12L2 11L1 11L1 12L0 12L0 13L1 13L1 12L2 12L2 13L3 13L3 12L5 12L5 13L7 13L7 12L11 12L11 13L8 13L8 14L11 14L11 15L10 15L10 17L8 17L8 21L9 21L9 19L10 19L10 18L12 18L12 20L13 20L13 18L14 18L14 16L13 16L13 15L12 15L12 14L13 14L13 12L12 12L12 11L11 11L11 10L13 10L13 9L14 9L14 11L15 11L15 12L14 12L14 15L15 15L15 19L14 19L14 21L15 21L15 19L16 19L16 21L17 21L17 19L19 19L19 18L17 18L17 19L16 19L16 15L17 15L17 17L19 17L19 15L20 15L20 12L21 12L21 8L20 8L20 9L19 9L19 8L16 8L16 10L17 10L17 12L18 12L18 11L19 11L19 14L18 14L18 13L16 13L16 11L15 11L15 9L14 9L14 8L13 8L13 6L12 6L12 5L11 5L11 4L12 4L12 3L13 3L13 2L12 2L12 0L11 0L11 1L10 1L10 0ZM9 2L9 3L10 3L10 4L11 4L11 3L10 3L10 2ZM11 6L11 8L12 8L12 6ZM9 8L9 9L10 9L10 10L7 10L7 11L10 11L10 10L11 10L11 9L10 9L10 8ZM3 9L3 10L4 10L4 9ZM19 10L19 11L20 11L20 10ZM15 13L15 14L16 14L16 13ZM11 15L11 17L13 17L13 16L12 16L12 15ZM20 16L20 17L21 17L21 16ZM20 19L20 20L21 20L21 19ZM10 20L10 21L11 21L11 20ZM18 20L18 21L19 21L19 20ZM0 0L0 7L7 7L7 0ZM1 1L1 6L6 6L6 1ZM2 2L2 5L5 5L5 2ZM14 0L14 7L21 7L21 0ZM15 1L15 6L20 6L20 1ZM16 2L16 5L19 5L19 2ZM0 14L0 21L7 21L7 14ZM1 15L1 20L6 20L6 15ZM2 16L2 19L5 19L5 16Z" fill="#000000"/></g></g></svg>
