<?xml version="1.0" encoding="UTF-8"?>
<svg xmlns="http://www.w3.org/2000/svg" version="1.1" width="200" height="200" viewBox="0 0 200 200"><rect x="0" y="0" width="200" height="200" fill="#ffffff"/><g transform="scale(9.524)"><g transform="translate(0,0)"><path fill-rule="evenodd" d="M9 0L9 1L8 1L8 2L9 2L9 3L8 3L8 4L10 4L10 5L8 5L8 7L9 7L9 6L10 6L10 8L6 8L6 9L5 9L5 8L0 8L0 9L3 9L3 11L5 11L5 10L6 10L6 11L7 11L7 12L4 12L4 13L8 13L8 15L10 15L10 16L8 16L8 21L10 21L10 19L12 19L12 20L11 20L11 21L13 21L13 20L14 20L14 21L15 21L15 20L14 20L14 19L13 19L13 18L14 18L14 17L16 17L16 18L15 18L15 19L16 19L16 18L18 18L18 20L17 20L17 21L18 21L18 20L19 20L19 21L20 21L20 20L19 20L19 18L20 18L20 17L17 17L17 16L19 16L19 15L18 15L18 14L21 14L21 13L20 13L20 12L21 12L21 11L20 11L20 12L19 12L19 11L16 11L16 10L21 10L21 9L20 9L20 8L19 8L19 9L18 9L18 8L17 8L17 9L16 9L16 8L15 8L15 9L16 9L16 10L15 10L15 11L16 11L16 12L14 12L14 11L13 11L13 10L14 10L14 8L13 8L13 9L12 9L12 7L13 7L13 4L12 4L12 2L13 2L13 1L12 1L12 0L11 0L11 1L10 1L10 0ZM9 1L9 2L10 2L10 4L11 4L11 2L12 2L12 1L11 1L11 2L10 2L10 1ZM11 6L11 7L12 7L12 6ZM10 8L10 9L6 9L6 10L7 10L7 11L8 11L8 12L9 12L9 11L8 11L8 10L10 10L10 11L11 11L11 8ZM0 10L0 11L2 11L2 10ZM12 11L12 12L10 12L10 15L11 15L11 14L13 14L13 13L14 13L14 16L13 16L13 17L11 17L11 18L13 18L13 17L14 17L14 16L15 16L15 14L16 14L16 16L17 16L17 14L18 14L18 13L19 13L19 12L16 12L16 13L14 13L14 12L13 12L13 11ZM2 12L2 13L3 13L3 12ZM12 12L12 13L13 13L13 12ZM16 13L16 14L17 14L17 13ZM9 18L9 19L10 19L10 18ZM0 0L0 7L7 7L7 0ZM1 1L1 6L6 6L6 1ZM2 2L2 5L5 5L5 2ZM14 0L14 7L21 7L21 0ZM15 1L15 6L20 6L20 1ZM16 2L16 5L19 5L19 2ZM0 14L0 21L7 21L7 14ZM1 15L1 20L6 20L6 15ZM2 16L2 19L5 19L5 16Z" fill="#000000"/></g></g></svg>
