<?xml version="1.0" encoding="UTF-8"?>
<svg xmlns="http://www.w3.org/2000/svg" version="1.1" width="200" height="200" viewBox="0 0 200 200"><rect x="0" y="0" width="200" height="200" fill="#ffffff"/><g transform="scale(8)"><g transform="translate(0,0)"><path fill-rule="evenodd" d="M8 0L8 1L10 1L10 0ZM16 0L16 1L17 1L17 0ZM13 1L13 2L11 2L11 4L10 4L10 3L9 3L9 2L8 2L8 5L9 5L9 6L8 6L8 7L9 7L9 8L8 8L8 9L9 9L9 10L8 10L8 12L6 12L6 11L7 11L7 10L6 10L6 11L5 11L5 9L4 9L4 8L0 8L0 9L1 9L1 13L3 13L3 14L1 14L1 15L0 15L0 16L1 16L1 15L3 15L3 16L2 16L2 17L8 17L8 18L10 18L10 17L11 17L11 18L12 18L12 17L13 17L13 18L14 18L14 19L15 19L15 20L14 20L14 21L15 21L15 22L12 22L12 21L11 21L11 20L13 20L13 19L11 19L11 20L10 20L10 19L9 19L9 21L8 21L8 25L12 25L12 24L11 24L11 23L13 23L13 25L14 25L14 23L15 23L15 25L16 25L16 21L17 21L17 24L18 24L18 25L20 25L20 24L18 24L18 23L21 23L21 22L22 22L22 25L25 25L25 24L23 24L23 23L24 23L24 22L25 22L25 20L24 20L24 19L25 19L25 17L23 17L23 16L22 16L22 15L23 15L23 14L22 14L22 13L24 13L24 14L25 14L25 11L24 11L24 12L23 12L23 10L22 10L22 9L23 9L23 8L20 8L20 9L19 9L19 11L18 11L18 14L17 14L17 12L16 12L16 11L17 11L17 10L16 10L16 11L15 11L15 9L13 9L13 8L12 8L12 9L11 9L11 11L12 11L12 12L13 12L13 13L14 13L14 14L15 14L15 12L16 12L16 14L17 14L17 15L16 15L16 16L12 16L12 15L11 15L11 16L10 16L10 14L11 14L11 13L10 13L10 12L9 12L9 10L10 10L10 9L9 9L9 8L10 8L10 7L11 7L11 6L10 6L10 5L12 5L12 7L13 7L13 6L14 6L14 8L17 8L17 9L18 9L18 8L17 8L17 5L16 5L16 4L17 4L17 3L16 3L16 2L15 2L15 1ZM12 4L12 5L14 5L14 4ZM15 5L15 7L16 7L16 5ZM9 6L9 7L10 7L10 6ZM6 8L6 9L7 9L7 8ZM24 8L24 9L25 9L25 8ZM20 9L20 10L21 10L21 9ZM2 10L2 12L3 12L3 13L4 13L4 14L3 14L3 15L4 15L4 16L8 16L8 17L9 17L9 15L8 15L8 13L9 13L9 14L10 14L10 13L9 13L9 12L8 12L8 13L5 13L5 11L4 11L4 10ZM12 10L12 11L14 11L14 12L15 12L15 11L14 11L14 10ZM3 11L3 12L4 12L4 11ZM19 13L19 14L18 14L18 15L17 15L17 16L18 16L18 15L19 15L19 16L21 16L21 15L22 15L22 14L21 14L21 15L19 15L19 14L20 14L20 13ZM4 14L4 15L5 15L5 14ZM6 14L6 15L7 15L7 14ZM17 17L17 20L20 20L20 17ZM21 17L21 18L22 18L22 20L21 20L21 21L22 21L22 22L23 22L23 19L24 19L24 18L23 18L23 17ZM18 18L18 19L19 19L19 18ZM15 20L15 21L16 21L16 20ZM9 21L9 22L10 22L10 23L11 23L11 21ZM19 21L19 22L20 22L20 21ZM0 0L0 7L7 7L7 0ZM1 1L1 6L6 6L6 1ZM2 2L2 5L5 5L5 2ZM18 0L18 7L25 7L25 0ZM19 1L19 6L24 6L24 1ZM20 2L20 5L23 5L23 2ZM0 18L0 25L7 25L7 18ZM1 19L1 24L6 24L6 19ZM2 20L2 23L5 23L5 20Z" fill="#000000"/></g></g></svg>
