<?xml version="1.0" encoding="UTF-8"?>
<svg xmlns="http://www.w3.org/2000/svg" version="1.1" width="200" height="200" viewBox="0 0 200 200"><rect x="0" y="0" width="200" height="200" fill="#ffffff"/><g transform="scale(8)"><g transform="translate(0,0)"><path fill-rule="evenodd" d="M10 0L10 1L8 1L8 3L9 3L9 4L8 4L8 8L6 8L6 9L8 9L8 11L9 11L9 12L10 12L10 13L11 13L11 12L12 12L12 11L9 11L9 10L10 10L10 9L8 9L8 8L9 8L9 5L10 5L10 8L12 8L12 7L13 7L13 6L14 6L14 7L15 7L15 6L16 6L16 7L17 7L17 6L16 6L16 4L17 4L17 3L16 3L16 2L17 2L17 1L16 1L16 0L14 0L14 1L13 1L13 2L14 2L14 4L12 4L12 5L13 5L13 6L12 6L12 7L11 7L11 4L10 4L10 3L9 3L9 2L11 2L11 0ZM14 1L14 2L15 2L15 1ZM14 5L14 6L15 6L15 5ZM0 8L0 9L2 9L2 8ZM3 8L3 9L4 9L4 10L5 10L5 14L3 14L3 13L2 13L2 11L3 11L3 10L2 10L2 11L1 11L1 10L0 10L0 12L1 12L1 13L2 13L2 15L1 15L1 14L0 14L0 15L1 15L1 16L0 16L0 17L3 17L3 16L4 16L4 17L5 17L5 14L6 14L6 15L7 15L7 14L8 14L8 15L9 15L9 16L6 16L6 17L8 17L8 19L9 19L9 18L10 18L10 15L11 15L11 16L14 16L14 17L13 17L13 18L12 18L12 17L11 17L11 18L12 18L12 19L10 19L10 21L11 21L11 20L12 20L12 19L15 19L15 18L14 18L14 17L16 17L16 21L14 21L14 20L13 20L13 23L12 23L12 24L13 24L13 25L15 25L15 24L14 24L14 23L15 23L15 22L17 22L17 23L16 23L16 25L17 25L17 24L18 24L18 25L19 25L19 24L20 24L20 25L22 25L22 23L23 23L23 22L22 22L22 23L21 23L21 18L22 18L22 20L24 20L24 19L25 19L25 9L24 9L24 8L22 8L22 9L21 9L21 8L18 8L18 10L20 10L20 12L18 12L18 11L17 11L17 10L16 10L16 12L15 12L15 9L14 9L14 8L13 8L13 9L14 9L14 10L13 10L13 13L14 13L14 12L15 12L15 14L13 14L13 15L12 15L12 14L8 14L8 12L6 12L6 11L7 11L7 10L5 10L5 9L4 9L4 8ZM20 9L20 10L21 10L21 9ZM22 9L22 10L23 10L23 9ZM21 11L21 12L20 12L20 13L19 13L19 14L20 14L20 16L21 16L21 15L22 15L22 16L23 16L23 15L22 15L22 13L23 13L23 14L24 14L24 13L23 13L23 12L24 12L24 11ZM16 12L16 14L15 14L15 15L14 15L14 16L16 16L16 15L18 15L18 16L19 16L19 15L18 15L18 12ZM6 13L6 14L7 14L7 13ZM17 17L17 20L20 20L20 17ZM18 18L18 19L19 19L19 18ZM23 18L23 19L24 19L24 18ZM8 21L8 22L9 22L9 23L8 23L8 25L10 25L10 24L11 24L11 22L9 22L9 21ZM18 21L18 24L19 24L19 22L20 22L20 21ZM24 22L24 23L25 23L25 22ZM9 23L9 24L10 24L10 23ZM20 23L20 24L21 24L21 23ZM23 24L23 25L25 25L25 24ZM0 0L0 7L7 7L7 0ZM1 1L1 6L6 6L6 1ZM2 2L2 5L5 5L5 2ZM18 0L18 7L25 7L25 0ZM19 1L19 6L24 6L24 1ZM20 2L20 5L23 5L23 2ZM0 18L0 25L7 25L7 18ZM1 19L1 24L6 24L6 19ZM2 20L2 23L5 23L5 20Z" fill="#000000"/></g></g></svg>
