<?xml version="1.0" encoding="UTF-8"?>
<svg xmlns="http://www.w3.org/2000/svg" version="1.1" width="200" height="200" viewBox="0 0 200 200"><rect x="0" y="0" width="200" height="200" fill="#ffffff"/><g transform="scale(9.524)"><g transform="translate(0,0)"><path fill-rule="evenodd" d="M8 0L8 1L10 1L10 2L9 2L9 3L10 3L10 5L11 5L11 4L12 4L12 7L11 7L11 6L10 6L10 7L9 7L9 6L8 6L8 8L9 8L9 9L11 9L11 10L12 10L12 11L15 11L15 12L16 12L16 13L14 13L14 14L15 14L15 15L14 15L14 16L12 16L12 17L11 17L11 16L10 16L10 15L11 15L11 14L12 14L12 15L13 15L13 14L12 14L12 13L13 13L13 12L12 12L12 13L11 13L11 14L10 14L10 15L9 15L9 16L8 16L8 18L9 18L9 19L8 19L8 21L11 21L11 19L10 19L10 18L12 18L12 21L13 21L13 20L14 20L14 21L15 21L15 20L16 20L16 21L18 21L18 20L21 20L21 18L20 18L20 17L21 17L21 15L20 15L20 14L19 14L19 13L18 13L18 12L19 12L19 11L18 11L18 10L20 10L20 13L21 13L21 10L20 10L20 9L21 9L21 8L20 8L20 9L17 9L17 11L18 11L18 12L16 12L16 9L15 9L15 8L14 8L14 9L15 9L15 10L13 10L13 9L12 9L12 7L13 7L13 4L12 4L12 2L13 2L13 1L12 1L12 2L11 2L11 0ZM0 8L0 9L2 9L2 10L0 10L0 11L1 11L1 12L2 12L2 13L3 13L3 12L4 12L4 11L5 11L5 10L6 10L6 11L7 11L7 12L6 12L6 13L8 13L8 14L9 14L9 13L10 13L10 12L11 12L11 11L10 11L10 10L9 10L9 11L8 11L8 9L7 9L7 8L6 8L6 9L5 9L5 8L3 8L3 9L2 9L2 8ZM4 9L4 10L5 10L5 9ZM6 9L6 10L7 10L7 9ZM2 10L2 12L3 12L3 10ZM17 13L17 14L18 14L18 15L19 15L19 16L18 16L18 17L16 17L16 18L18 18L18 17L20 17L20 15L19 15L19 14L18 14L18 13ZM9 16L9 18L10 18L10 16ZM14 16L14 17L12 17L12 18L14 18L14 19L15 19L15 16ZM9 19L9 20L10 20L10 19ZM16 19L16 20L18 20L18 19ZM0 0L0 7L7 7L7 0ZM1 1L1 6L6 6L6 1ZM2 2L2 5L5 5L5 2ZM14 0L14 7L21 7L21 0ZM15 1L15 6L20 6L20 1ZM16 2L16 5L19 5L19 2ZM0 14L0 21L7 21L7 14ZM1 15L1 20L6 20L6 15ZM2 16L2 19L5 19L5 16Z" fill="#000000"/></g></g></svg>
