<?xml version="1.0" encoding="UTF-8"?>
<svg xmlns="http://www.w3.org/2000/svg" version="1.1" width="200" height="200" viewBox="0 0 200 200"><rect x="0" y="0" width="200" height="200" fill="#ffffff"/><g transform="scale(9.524)"><g transform="translate(0,0)"><path fill-rule="evenodd" d="M8 0L8 1L9 1L9 0ZM11 0L11 2L10 2L10 3L9 3L9 2L8 2L8 5L11 5L11 6L10 6L10 7L9 7L9 6L8 6L8 7L9 7L9 8L8 8L8 10L6 10L6 9L7 9L7 8L6 8L6 9L5 9L5 10L4 10L4 8L0 8L0 12L1 12L1 9L3 9L3 10L2 10L2 11L5 11L5 13L8 13L8 14L9 14L9 17L8 17L8 21L10 21L10 20L11 20L11 21L12 21L12 20L13 20L13 21L15 21L15 20L16 20L16 15L17 15L17 18L18 18L18 19L17 19L17 21L19 21L19 20L18 20L18 19L19 19L19 18L18 18L18 17L19 17L19 15L20 15L20 12L21 12L21 8L20 8L20 9L19 9L19 8L16 8L16 10L17 10L17 11L15 11L15 10L14 10L14 8L13 8L13 6L12 6L12 5L11 5L11 4L12 4L12 3L13 3L13 2L12 2L12 0ZM10 3L10 4L11 4L11 3ZM11 6L11 8L12 8L12 6ZM9 8L9 9L10 9L10 8ZM5 10L5 11L6 11L6 12L8 12L8 13L9 13L9 14L10 14L10 16L11 16L11 17L10 17L10 19L9 19L9 20L10 20L10 19L12 19L12 18L11 18L11 17L13 17L13 19L15 19L15 15L16 15L16 14L15 14L15 13L13 13L13 14L12 14L12 13L11 13L11 12L13 12L13 10L11 10L11 12L10 12L10 10L8 10L8 11L6 11L6 10ZM19 10L19 11L18 11L18 12L16 12L16 13L18 13L18 14L19 14L19 11L20 11L20 10ZM14 11L14 12L15 12L15 11ZM3 12L3 13L4 13L4 12ZM9 12L9 13L10 13L10 12ZM11 15L11 16L14 16L14 15ZM20 16L20 17L21 17L21 16ZM20 19L20 20L21 20L21 19ZM0 0L0 7L7 7L7 0ZM1 1L1 6L6 6L6 1ZM2 2L2 5L5 5L5 2ZM14 0L14 7L21 7L21 0ZM15 1L15 6L20 6L20 1ZM16 2L16 5L19 5L19 2ZM0 14L0 21L7 21L7 14ZM1 15L1 20L6 20L6 15ZM2 16L2 19L5 19L5 16Z" fill="#000000"/></g></g></svg>
