<?xml version="1.0" encoding="UTF-8"?>
<svg xmlns="http://www.w3.org/2000/svg" version="1.1" width="200" height="200" viewBox="0 0 200 200"><rect x="0" y="0" width="200" height="200" fill="#ffffff"/><g transform="scale(8)"><g transform="translate(0,0)"><path fill-rule="evenodd" d="M10 0L10 1L9 1L9 2L8 2L8 3L9 3L9 5L10 5L10 7L11 7L11 8L13 8L13 9L14 9L14 11L13 11L13 14L12 14L12 15L9 15L9 14L11 14L11 13L12 13L12 11L11 11L11 10L10 10L10 9L9 9L9 6L8 6L8 8L4 8L4 13L3 13L3 12L2 12L2 10L1 10L1 9L3 9L3 8L0 8L0 10L1 10L1 11L0 11L0 13L3 13L3 14L2 14L2 15L1 15L1 14L0 14L0 15L1 15L1 16L0 16L0 17L1 17L1 16L2 16L2 17L4 17L4 16L2 16L2 15L3 15L3 14L4 14L4 15L5 15L5 16L6 16L6 17L8 17L8 21L9 21L9 22L8 22L8 25L9 25L9 22L11 22L11 20L12 20L12 19L10 19L10 17L11 17L11 16L12 16L12 18L13 18L13 17L14 17L14 19L13 19L13 22L12 22L12 23L10 23L10 25L11 25L11 24L12 24L12 23L13 23L13 25L15 25L15 23L16 23L16 25L17 25L17 21L20 21L20 23L19 23L19 24L20 24L20 23L21 23L21 25L22 25L22 21L21 21L21 18L22 18L22 19L23 19L23 21L24 21L24 19L25 19L25 9L23 9L23 8L22 8L22 9L21 9L21 10L20 10L20 9L19 9L19 8L17 8L17 6L16 6L16 5L17 5L17 3L16 3L16 0L14 0L14 1L15 1L15 3L14 3L14 5L13 5L13 4L12 4L12 5L10 5L10 3L9 3L9 2L10 2L10 1L11 1L11 0ZM11 2L11 3L12 3L12 2ZM11 6L11 7L12 7L12 6ZM13 6L13 7L14 7L14 8L15 8L15 11L14 11L14 14L15 14L15 16L16 16L16 15L17 15L17 16L18 16L18 14L15 14L15 12L16 12L16 13L17 13L17 12L16 12L16 11L18 11L18 9L17 9L17 8L16 8L16 6L15 6L15 7L14 7L14 6ZM5 9L5 10L8 10L8 11L6 11L6 12L5 12L5 13L4 13L4 14L5 14L5 15L6 15L6 16L9 16L9 17L10 17L10 16L9 16L9 15L8 15L8 14L7 14L7 13L6 13L6 12L8 12L8 11L10 11L10 10L9 10L9 9ZM22 9L22 11L20 11L20 10L19 10L19 11L20 11L20 14L21 14L21 15L19 15L19 16L21 16L21 15L22 15L22 17L23 17L23 19L24 19L24 17L23 17L23 15L24 15L24 13L23 13L23 9ZM9 12L9 13L10 13L10 12ZM6 14L6 15L7 15L7 14ZM22 14L22 15L23 15L23 14ZM15 17L15 19L14 19L14 20L15 20L15 21L16 21L16 17ZM17 17L17 20L20 20L20 17ZM18 18L18 19L19 19L19 18ZM9 19L9 21L10 21L10 19ZM13 22L13 23L15 23L15 22ZM24 22L24 23L23 23L23 25L25 25L25 24L24 24L24 23L25 23L25 22ZM0 0L0 7L7 7L7 0ZM1 1L1 6L6 6L6 1ZM2 2L2 5L5 5L5 2ZM18 0L18 7L25 7L25 0ZM19 1L19 6L24 6L24 1ZM20 2L20 5L23 5L23 2ZM0 18L0 25L7 25L7 18ZM1 19L1 24L6 24L6 19ZM2 20L2 23L5 23L5 20Z" fill="#000000"/></g></g></svg>
