<?xml version="1.0" encoding="UTF-8"?>
<svg xmlns="http://www.w3.org/2000/svg" version="1.1" width="200" height="200" viewBox="0 0 200 200"><rect x="0" y="0" width="200" height="200" fill="#ffffff"/><g transform="scale(9.524)"><g transform="translate(0,0)"><path fill-rule="evenodd" d="M8 0L8 1L9 1L9 0ZM11 0L11 2L10 2L10 3L9 3L9 2L8 2L8 5L11 5L11 6L10 6L10 7L9 7L9 6L8 6L8 7L9 7L9 8L8 8L8 9L9 9L9 8L10 8L10 9L11 9L11 10L13 10L13 11L11 11L11 12L10 12L10 13L8 13L8 12L5 12L5 13L8 13L8 14L9 14L9 15L10 15L10 16L9 16L9 17L8 17L8 21L9 21L9 20L12 20L12 19L13 19L13 18L14 18L14 21L19 21L19 20L18 20L18 19L19 19L19 18L18 18L18 17L19 17L19 15L20 15L20 12L21 12L21 8L20 8L20 9L19 9L19 8L16 8L16 10L17 10L17 12L18 12L18 11L19 11L19 14L18 14L18 13L15 13L15 12L16 12L16 11L15 11L15 9L14 9L14 8L13 8L13 6L12 6L12 5L11 5L11 4L12 4L12 3L13 3L13 2L12 2L12 0ZM10 3L10 4L11 4L11 3ZM11 6L11 8L12 8L12 6ZM0 8L0 9L4 9L4 10L2 10L2 12L1 12L1 11L0 11L0 13L3 13L3 12L4 12L4 11L7 11L7 10L5 10L5 9L4 9L4 8ZM6 8L6 9L7 9L7 8ZM13 9L13 10L14 10L14 9ZM8 10L8 11L9 11L9 10ZM19 10L19 11L20 11L20 10ZM14 11L14 12L15 12L15 11ZM10 13L10 14L11 14L11 18L12 18L12 17L13 17L13 16L14 16L14 18L15 18L15 17L16 17L16 20L17 20L17 19L18 19L18 18L17 18L17 17L16 17L16 16L17 16L17 15L16 15L16 14L12 14L12 13ZM20 16L20 17L21 17L21 16ZM9 18L9 19L10 19L10 18ZM20 19L20 20L21 20L21 19ZM0 0L0 7L7 7L7 0ZM1 1L1 6L6 6L6 1ZM2 2L2 5L5 5L5 2ZM14 0L14 7L21 7L21 0ZM15 1L15 6L20 6L20 1ZM16 2L16 5L19 5L19 2ZM0 14L0 21L7 21L7 14ZM1 15L1 20L6 20L6 15ZM2 16L2 19L5 19L5 16Z" fill="#000000"/></g></g></svg>
