<?xml version="1.0" encoding="UTF-8"?>
<svg xmlns="http://www.w3.org/2000/svg" version="1.1" width="200" height="200" viewBox="0 0 200 200"><rect x="0" y="0" width="200" height="200" fill="#ffffff"/><g transform="scale(8)"><g transform="translate(0,0)"><path fill-rule="evenodd" d="M9 0L9 1L8 1L8 2L9 2L9 3L8 3L8 4L10 4L10 7L11 7L11 4L12 4L12 7L13 7L13 4L17 4L17 2L16 2L16 1L17 1L17 0L16 0L16 1L15 1L15 2L14 2L14 1L11 1L11 2L10 2L10 0ZM12 2L12 3L14 3L14 2ZM15 2L15 3L16 3L16 2ZM10 3L10 4L11 4L11 3ZM8 5L8 7L9 7L9 5ZM14 5L14 7L15 7L15 6L16 6L16 8L15 8L15 9L14 9L14 8L13 8L13 9L11 9L11 8L6 8L6 9L5 9L5 8L0 8L0 10L1 10L1 11L0 11L0 12L1 12L1 13L0 13L0 17L1 17L1 14L2 14L2 17L4 17L4 16L5 16L5 17L7 17L7 16L8 16L8 19L9 19L9 18L10 18L10 20L8 20L8 25L9 25L9 24L10 24L10 25L12 25L12 24L13 24L13 25L14 25L14 24L13 24L13 23L14 23L14 22L13 22L13 23L12 23L12 24L11 24L11 23L9 23L9 22L12 22L12 21L15 21L15 22L16 22L16 21L17 21L17 22L19 22L19 23L16 23L16 24L15 24L15 25L16 25L16 24L18 24L18 25L20 25L20 22L21 22L21 24L22 24L22 25L25 25L25 21L24 21L24 20L25 20L25 18L24 18L24 17L25 17L25 16L22 16L22 14L20 14L20 15L21 15L21 16L19 16L19 14L18 14L18 13L23 13L23 14L24 14L24 15L25 15L25 14L24 14L24 13L25 13L25 12L21 12L21 11L20 11L20 8L19 8L19 10L15 10L15 9L18 9L18 8L17 8L17 6L16 6L16 5ZM21 8L21 10L22 10L22 11L25 11L25 10L22 10L22 8ZM23 8L23 9L24 9L24 8ZM1 9L1 10L2 10L2 9ZM3 9L3 12L2 12L2 13L4 13L4 12L8 12L8 10L9 10L9 9L8 9L8 10L7 10L7 9L6 9L6 10L4 10L4 9ZM10 9L10 11L11 11L11 12L10 12L10 13L9 13L9 15L8 15L8 16L9 16L9 17L13 17L13 18L11 18L11 21L12 21L12 20L14 20L14 17L15 17L15 18L16 18L16 15L15 15L15 13L16 13L16 11L15 11L15 10L13 10L13 11L12 11L12 10L11 10L11 9ZM6 10L6 11L7 11L7 10ZM17 11L17 13L18 13L18 12L20 12L20 11ZM13 12L13 13L10 13L10 14L12 14L12 15L11 15L11 16L12 16L12 15L14 15L14 14L13 14L13 13L15 13L15 12ZM6 13L6 14L7 14L7 13ZM3 15L3 16L4 16L4 15ZM6 15L6 16L7 16L7 15ZM17 15L17 16L18 16L18 15ZM13 16L13 17L14 17L14 16ZM21 16L21 17L22 17L22 16ZM17 17L17 20L20 20L20 17ZM18 18L18 19L19 19L19 18ZM22 18L22 19L21 19L21 20L24 20L24 18ZM15 19L15 20L16 20L16 19ZM19 21L19 22L20 22L20 21ZM22 21L22 22L23 22L23 23L22 23L22 24L24 24L24 22L23 22L23 21ZM0 0L0 7L7 7L7 0ZM1 1L1 6L6 6L6 1ZM2 2L2 5L5 5L5 2ZM18 0L18 7L25 7L25 0ZM19 1L19 6L24 6L24 1ZM20 2L20 5L23 5L23 2ZM0 18L0 25L7 25L7 18ZM1 19L1 24L6 24L6 19ZM2 20L2 23L5 23L5 20Z" fill="#000000"/></g></g></svg>
