<?xml version="1.0" encoding="UTF-8"?>
<svg xmlns="http://www.w3.org/2000/svg" version="1.1" width="200" height="200" viewBox="0 0 200 200"><rect x="0" y="0" width="200" height="200" fill="#ffffff"/><g transform="scale(8)"><g transform="translate(0,0)"><path fill-rule="evenodd" d="M9 0L9 1L8 1L8 2L9 2L9 3L8 3L8 4L10 4L10 7L11 7L11 4L12 4L12 8L6 8L6 9L5 9L5 8L0 8L0 9L2 9L2 11L1 11L1 10L0 10L0 11L1 11L1 12L2 12L2 13L0 13L0 17L1 17L1 14L2 14L2 17L4 17L4 15L5 15L5 16L6 16L6 17L8 17L8 19L9 19L9 20L8 20L8 25L10 25L10 23L11 23L11 22L12 22L12 21L14 21L14 22L15 22L15 21L18 21L18 22L17 22L17 23L16 23L16 24L15 24L15 23L14 23L14 24L13 24L13 23L12 23L12 24L11 24L11 25L12 25L12 24L13 24L13 25L14 25L14 24L15 24L15 25L16 25L16 24L17 24L17 23L18 23L18 22L21 22L21 20L22 20L22 21L23 21L23 22L22 22L22 23L20 23L20 24L18 24L18 25L20 25L20 24L22 24L22 25L25 25L25 21L24 21L24 20L25 20L25 18L24 18L24 17L25 17L25 16L22 16L22 14L21 14L21 16L18 16L18 15L20 15L20 13L23 13L23 14L24 14L24 15L25 15L25 14L24 14L24 13L25 13L25 12L20 12L20 13L19 13L19 11L20 11L20 10L18 10L18 8L17 8L17 6L16 6L16 5L14 5L14 7L15 7L15 6L16 6L16 8L15 8L15 9L14 9L14 8L13 8L13 4L17 4L17 2L16 2L16 1L17 1L17 0L16 0L16 1L15 1L15 2L14 2L14 1L11 1L11 2L10 2L10 0ZM12 2L12 3L14 3L14 2ZM15 2L15 3L16 3L16 2ZM10 3L10 4L11 4L11 3ZM8 5L8 7L9 7L9 5ZM12 8L12 9L13 9L13 11L12 11L12 10L11 10L11 9L10 9L10 11L11 11L11 12L10 12L10 13L12 13L12 14L11 14L11 16L10 16L10 17L11 17L11 16L12 16L12 17L13 17L13 18L14 18L14 17L15 17L15 18L16 18L16 15L15 15L15 16L14 16L14 15L13 15L13 16L12 16L12 14L14 14L14 13L16 13L16 11L15 11L15 12L14 12L14 9L13 9L13 8ZM19 8L19 9L20 9L20 8ZM21 8L21 10L22 10L22 11L25 11L25 10L22 10L22 8ZM23 8L23 9L24 9L24 8ZM3 9L3 10L5 10L5 9ZM6 9L6 10L8 10L8 11L9 11L9 9ZM15 9L15 10L17 10L17 13L18 13L18 14L19 14L19 13L18 13L18 10L17 10L17 9ZM3 11L3 12L4 12L4 11ZM5 11L5 15L6 15L6 16L7 16L7 15L6 15L6 14L8 14L8 13L6 13L6 12L7 12L7 11ZM12 12L12 13L14 13L14 12ZM3 14L3 15L4 15L4 14ZM8 15L8 16L9 16L9 15ZM13 16L13 17L14 17L14 16ZM21 16L21 19L22 19L22 20L24 20L24 18L23 18L23 17L22 17L22 16ZM17 17L17 20L20 20L20 17ZM11 18L11 19L12 19L12 20L11 20L11 21L12 21L12 20L14 20L14 21L15 21L15 20L16 20L16 19L12 19L12 18ZM18 18L18 19L19 19L19 18ZM9 21L9 22L10 22L10 21ZM23 22L23 23L22 23L22 24L24 24L24 22ZM0 0L0 7L7 7L7 0ZM1 1L1 6L6 6L6 1ZM2 2L2 5L5 5L5 2ZM18 0L18 7L25 7L25 0ZM19 1L19 6L24 6L24 1ZM20 2L20 5L23 5L23 2ZM0 18L0 25L7 25L7 18ZM1 19L1 24L6 24L6 19ZM2 20L2 23L5 23L5 20Z" fill="#000000"/></g></g></svg>
