<?xml version="1.0" encoding="UTF-8"?>
<svg xmlns="http://www.w3.org/2000/svg" version="1.1" width="200" height="200" viewBox="0 0 200 200"><rect x="0" y="0" width="200" height="200" fill="#ffffff"/><g transform="scale(8)"><g transform="translate(0,0)"><path fill-rule="evenodd" d="M8 0L8 1L10 1L10 0ZM16 0L16 1L17 1L17 0ZM13 1L13 2L11 2L11 4L10 4L10 3L9 3L9 2L8 2L8 5L9 5L9 6L8 6L8 7L9 7L9 8L8 8L8 9L7 9L7 8L6 8L6 9L7 9L7 10L6 10L6 11L4 11L4 12L3 12L3 9L4 9L4 10L5 10L5 9L4 9L4 8L0 8L0 9L2 9L2 10L1 10L1 12L0 12L0 13L1 13L1 15L0 15L0 16L1 16L1 15L2 15L2 14L3 14L3 17L4 17L4 15L5 15L5 14L6 14L6 15L7 15L7 14L8 14L8 15L10 15L10 14L11 14L11 13L10 13L10 12L9 12L9 11L8 11L8 9L9 9L9 10L10 10L10 9L9 9L9 8L10 8L10 7L11 7L11 8L12 8L12 7L13 7L13 6L14 6L14 8L17 8L17 10L16 10L16 11L13 11L13 10L12 10L12 9L11 9L11 12L12 12L12 11L13 11L13 13L14 13L14 12L16 12L16 14L19 14L19 16L17 16L17 15L16 15L16 16L15 16L15 20L14 20L14 21L15 21L15 23L16 23L16 21L18 21L18 23L17 23L17 25L19 25L19 24L18 24L18 23L21 23L21 25L25 25L25 24L23 24L23 23L24 23L24 22L25 22L25 20L24 20L24 19L25 19L25 17L23 17L23 16L22 16L22 15L23 15L23 14L22 14L22 13L24 13L24 14L25 14L25 11L24 11L24 12L23 12L23 10L22 10L22 9L23 9L23 8L20 8L20 9L21 9L21 10L19 10L19 11L18 11L18 8L17 8L17 5L16 5L16 4L17 4L17 3L16 3L16 2L15 2L15 1ZM12 4L12 5L10 5L10 6L9 6L9 7L10 7L10 6L11 6L11 7L12 7L12 5L14 5L14 4ZM15 5L15 7L16 7L16 5ZM24 8L24 9L25 9L25 8ZM14 9L14 10L15 10L15 9ZM6 11L6 12L8 12L8 14L10 14L10 13L9 13L9 12L8 12L8 11ZM16 11L16 12L18 12L18 11ZM19 11L19 12L21 12L21 11ZM2 12L2 13L3 13L3 12ZM6 13L6 14L7 14L7 13ZM19 13L19 14L20 14L20 13ZM14 14L14 15L15 15L15 14ZM21 14L21 15L20 15L20 16L21 16L21 15L22 15L22 14ZM5 16L5 17L7 17L7 16ZM8 16L8 18L9 18L9 20L10 20L10 21L8 21L8 25L9 25L9 22L10 22L10 24L11 24L11 23L12 23L12 24L13 24L13 25L14 25L14 22L13 22L13 20L12 20L12 19L11 19L11 20L10 20L10 18L14 18L14 16L13 16L13 17L12 17L12 16ZM9 17L9 18L10 18L10 17ZM17 17L17 20L20 20L20 17ZM18 18L18 19L19 19L19 18ZM21 18L21 20L22 20L22 21L21 21L21 23L22 23L22 22L23 22L23 19L24 19L24 18ZM11 20L11 21L12 21L12 20ZM15 20L15 21L16 21L16 20ZM19 21L19 22L20 22L20 21ZM0 0L0 7L7 7L7 0ZM1 1L1 6L6 6L6 1ZM2 2L2 5L5 5L5 2ZM18 0L18 7L25 7L25 0ZM19 1L19 6L24 6L24 1ZM20 2L20 5L23 5L23 2ZM0 18L0 25L7 25L7 18ZM1 19L1 24L6 24L6 19ZM2 20L2 23L5 23L5 20Z" fill="#000000"/></g></g></svg>
