<?xml version="1.0" encoding="UTF-8"?>
<svg xmlns="http://www.w3.org/2000/svg" version="1.1" width="200" height="200" viewBox="0 0 200 200"><rect x="0" y="0" width="200" height="200" fill="#ffffff"/><g transform="scale(8)"><g transform="translate(0,0)"><path fill-rule="evenodd" d="M9 0L9 1L8 1L8 2L9 2L9 3L8 3L8 4L10 4L10 7L11 7L11 8L6 8L6 9L8 9L8 10L6 10L6 11L8 11L8 13L7 13L7 12L6 12L6 13L5 13L5 11L1 11L1 12L0 12L0 17L1 17L1 14L2 14L2 15L3 15L3 16L2 16L2 17L3 17L3 16L4 16L4 15L3 15L3 12L4 12L4 14L6 14L6 15L7 15L7 14L8 14L8 13L10 13L10 14L9 14L9 15L11 15L11 14L12 14L12 15L16 15L16 18L15 18L15 19L14 19L14 20L13 20L13 19L12 19L12 20L13 20L13 21L11 21L11 20L10 20L10 19L9 19L9 17L11 17L11 18L12 18L12 17L15 17L15 16L12 16L12 17L11 17L11 16L5 16L5 17L8 17L8 19L9 19L9 20L8 20L8 25L9 25L9 22L10 22L10 25L11 25L11 22L13 22L13 23L15 23L15 24L17 24L17 25L19 25L19 24L20 24L20 22L21 22L21 23L23 23L23 22L24 22L24 24L21 24L21 25L25 25L25 21L24 21L24 20L25 20L25 18L24 18L24 17L25 17L25 16L22 16L22 14L20 14L20 15L19 15L19 14L18 14L18 15L19 15L19 16L17 16L17 13L23 13L23 14L24 14L24 15L25 15L25 14L24 14L24 13L25 13L25 12L20 12L20 10L18 10L18 8L17 8L17 6L16 6L16 5L14 5L14 7L15 7L15 6L16 6L16 8L15 8L15 9L14 9L14 8L13 8L13 4L17 4L17 2L16 2L16 1L17 1L17 0L16 0L16 1L15 1L15 2L14 2L14 1L11 1L11 2L10 2L10 0ZM12 2L12 3L14 3L14 2ZM15 2L15 3L16 3L16 2ZM10 3L10 4L11 4L11 7L12 7L12 4L11 4L11 3ZM8 5L8 7L9 7L9 5ZM0 8L0 10L2 10L2 9L3 9L3 10L5 10L5 8ZM11 8L11 9L10 9L10 11L13 11L13 12L10 12L10 13L13 13L13 14L14 14L14 13L16 13L16 11L15 11L15 12L14 12L14 9L12 9L12 8ZM19 8L19 9L20 9L20 8ZM21 8L21 10L22 10L22 11L25 11L25 10L22 10L22 8ZM23 8L23 9L24 9L24 8ZM11 9L11 10L12 10L12 9ZM15 9L15 10L17 10L17 12L19 12L19 11L18 11L18 10L17 10L17 9ZM1 12L1 13L2 13L2 12ZM13 12L13 13L14 13L14 12ZM6 13L6 14L7 14L7 13ZM20 15L20 16L21 16L21 19L22 19L22 20L21 20L21 22L23 22L23 21L22 21L22 20L24 20L24 18L23 18L23 17L22 17L22 16L21 16L21 15ZM17 17L17 20L20 20L20 17ZM18 18L18 19L19 19L19 18ZM15 19L15 20L16 20L16 19ZM10 21L10 22L11 22L11 21ZM13 21L13 22L15 22L15 23L17 23L17 22L18 22L18 23L19 23L19 22L20 22L20 21L19 21L19 22L18 22L18 21L16 21L16 22L15 22L15 21ZM13 24L13 25L14 25L14 24ZM0 0L0 7L7 7L7 0ZM1 1L1 6L6 6L6 1ZM2 2L2 5L5 5L5 2ZM18 0L18 7L25 7L25 0ZM19 1L19 6L24 6L24 1ZM20 2L20 5L23 5L23 2ZM0 18L0 25L7 25L7 18ZM1 19L1 24L6 24L6 19ZM2 20L2 23L5 23L5 20Z" fill="#000000"/></g></g></svg>
