<?xml version="1.0" encoding="UTF-8"?>
<svg xmlns="http://www.w3.org/2000/svg" version="1.1" width="200" height="200" viewBox="0 0 200 200"><rect x="0" y="0" width="200" height="200" fill="#ffffff"/><g transform="scale(8)"><g transform="translate(0,0)"><path fill-rule="evenodd" d="M8 0L8 4L9 4L9 5L8 5L8 7L9 7L9 6L10 6L10 9L11 9L11 10L9 10L9 11L8 11L8 9L7 9L7 8L4 8L4 9L2 9L2 8L0 8L0 14L3 14L3 13L2 13L2 12L4 12L4 16L3 16L3 15L2 15L2 16L0 16L0 17L8 17L8 18L9 18L9 17L10 17L10 16L11 16L11 15L12 15L12 17L11 17L11 19L8 19L8 21L9 21L9 20L12 20L12 21L10 21L10 22L11 22L11 24L10 24L10 23L8 23L8 25L11 25L11 24L12 24L12 21L13 21L13 23L15 23L15 24L14 24L14 25L16 25L16 23L17 23L17 25L18 25L18 23L20 23L20 24L19 24L19 25L25 25L25 24L24 24L24 22L25 22L25 21L24 21L24 17L25 17L25 15L24 15L24 13L25 13L25 11L22 11L22 13L19 13L19 11L18 11L18 10L17 10L17 12L15 12L15 11L16 11L16 9L17 9L17 8L16 8L16 9L15 9L15 8L14 8L14 9L15 9L15 11L14 11L14 13L10 13L10 14L8 14L8 13L7 13L7 12L6 12L6 13L7 13L7 14L5 14L5 12L4 12L4 11L8 11L8 12L10 12L10 11L11 11L11 12L13 12L13 10L12 10L12 9L13 9L13 8L12 8L12 9L11 9L11 3L10 3L10 2L9 2L9 0ZM13 0L13 1L11 1L11 2L12 2L12 3L13 3L13 4L12 4L12 5L13 5L13 6L12 6L12 7L13 7L13 6L14 6L14 7L15 7L15 6L14 6L14 5L16 5L16 3L15 3L15 1L17 1L17 0ZM13 1L13 3L14 3L14 1ZM16 6L16 7L17 7L17 6ZM19 8L19 9L20 9L20 10L21 10L21 9L25 9L25 8L21 8L21 9L20 9L20 8ZM1 9L1 11L2 11L2 9ZM4 9L4 10L3 10L3 11L4 11L4 10L7 10L7 9ZM14 13L14 15L13 15L13 14L12 14L12 15L13 15L13 17L12 17L12 18L13 18L13 17L14 17L14 19L12 19L12 20L13 20L13 21L15 21L15 23L16 23L16 19L15 19L15 17L14 17L14 15L15 15L15 16L19 16L19 15L20 15L20 16L21 16L21 15L20 15L20 14L19 14L19 13L17 13L17 14L16 14L16 13ZM22 13L22 14L23 14L23 13ZM7 14L7 15L5 15L5 16L9 16L9 15L8 15L8 14ZM15 14L15 15L16 15L16 14ZM17 17L17 20L20 20L20 17ZM21 17L21 19L22 19L22 17ZM18 18L18 19L19 19L19 18ZM20 21L20 23L23 23L23 21ZM0 0L0 7L7 7L7 0ZM1 1L1 6L6 6L6 1ZM2 2L2 5L5 5L5 2ZM18 0L18 7L25 7L25 0ZM19 1L19 6L24 6L24 1ZM20 2L20 5L23 5L23 2ZM0 18L0 25L7 25L7 18ZM1 19L1 24L6 24L6 19ZM2 20L2 23L5 23L5 20Z" fill="#000000"/></g></g></svg>
