<?xml version="1.0" encoding="UTF-8"?>
<svg xmlns="http://www.w3.org/2000/svg" version="1.1" width="200" height="200" viewBox="0 0 200 200"><rect x="0" y="0" width="200" height="200" fill="#ffffff"/><g transform="scale(8)"><g transform="translate(0,0)"><path fill-rule="evenodd" d="M9 0L9 1L8 1L8 2L9 2L9 3L8 3L8 4L10 4L10 7L11 7L11 8L6 8L6 9L5 9L5 8L0 8L0 9L5 9L5 10L6 10L6 11L7 11L7 12L6 12L6 13L7 13L7 14L6 14L6 15L5 15L5 13L4 13L4 15L2 15L2 17L7 17L7 16L8 16L8 19L10 19L10 21L11 21L11 22L12 22L12 23L10 23L10 22L9 22L9 20L8 20L8 25L9 25L9 24L10 24L10 25L11 25L11 24L12 24L12 25L16 25L16 24L17 24L17 25L20 25L20 24L22 24L22 25L25 25L25 21L24 21L24 20L25 20L25 18L24 18L24 17L25 17L25 16L22 16L22 14L21 14L21 16L19 16L19 14L20 14L20 13L23 13L23 14L24 14L24 15L25 15L25 14L24 14L24 13L25 13L25 12L20 12L20 13L19 13L19 10L18 10L18 8L17 8L17 6L16 6L16 5L14 5L14 7L15 7L15 6L16 6L16 8L15 8L15 9L14 9L14 8L13 8L13 6L12 6L12 7L11 7L11 4L12 4L12 5L13 5L13 4L17 4L17 2L16 2L16 1L17 1L17 0L16 0L16 1L15 1L15 2L14 2L14 1L11 1L11 2L10 2L10 0ZM12 2L12 3L14 3L14 2ZM15 2L15 3L16 3L16 2ZM10 3L10 4L11 4L11 3ZM8 5L8 7L9 7L9 5ZM11 8L11 9L10 9L10 11L11 11L11 12L10 12L10 13L13 13L13 14L11 14L11 15L13 15L13 16L10 16L10 15L9 15L9 14L7 14L7 15L6 15L6 16L7 16L7 15L8 15L8 16L10 16L10 17L9 17L9 18L11 18L11 21L13 21L13 24L16 24L16 23L17 23L17 24L18 24L18 23L19 23L19 24L20 24L20 23L22 23L22 24L24 24L24 22L23 22L23 21L22 21L22 20L24 20L24 18L23 18L23 17L22 17L22 16L21 16L21 19L22 19L22 20L21 20L21 21L22 21L22 22L17 22L17 21L15 21L15 20L16 20L16 19L12 19L12 18L11 18L11 17L13 17L13 18L14 18L14 17L15 17L15 18L16 18L16 15L15 15L15 14L14 14L14 13L16 13L16 11L15 11L15 12L14 12L14 11L12 11L12 10L11 10L11 9L13 9L13 10L14 10L14 9L13 9L13 8ZM19 8L19 9L20 9L20 8ZM21 8L21 10L20 10L20 11L21 11L21 10L22 10L22 11L25 11L25 10L22 10L22 8ZM23 8L23 9L24 9L24 8ZM6 9L6 10L7 10L7 9ZM15 9L15 10L17 10L17 9ZM1 10L1 11L2 11L2 13L1 13L1 12L0 12L0 17L1 17L1 14L3 14L3 12L4 12L4 10L3 10L3 11L2 11L2 10ZM8 12L8 13L9 13L9 12ZM13 12L13 13L14 13L14 12ZM17 12L17 13L18 13L18 14L17 14L17 15L18 15L18 14L19 14L19 13L18 13L18 12ZM13 14L13 15L14 15L14 16L13 16L13 17L14 17L14 16L15 16L15 15L14 15L14 14ZM4 15L4 16L5 16L5 15ZM17 17L17 20L20 20L20 17ZM18 18L18 19L19 19L19 18ZM22 18L22 19L23 19L23 18ZM13 20L13 21L14 21L14 22L15 22L15 21L14 21L14 20ZM22 22L22 23L23 23L23 22ZM0 0L0 7L7 7L7 0ZM1 1L1 6L6 6L6 1ZM2 2L2 5L5 5L5 2ZM18 0L18 7L25 7L25 0ZM19 1L19 6L24 6L24 1ZM20 2L20 5L23 5L23 2ZM0 18L0 25L7 25L7 18ZM1 19L1 24L6 24L6 19ZM2 20L2 23L5 23L5 20Z" fill="#000000"/></g></g></svg>
