<?xml version="1.0" encoding="UTF-8"?>
<svg xmlns="http://www.w3.org/2000/svg" version="1.1" width="200" height="200" viewBox="0 0 200 200"><rect x="0" y="0" width="200" height="200" fill="#ffffff"/><g transform="scale(8)"><g transform="translate(0,0)"><path fill-rule="evenodd" d="M9 0L9 1L8 1L8 2L9 2L9 3L8 3L8 4L10 4L10 7L11 7L11 4L12 4L12 5L13 5L13 4L17 4L17 2L16 2L16 1L17 1L17 0L16 0L16 1L15 1L15 2L14 2L14 1L11 1L11 2L10 2L10 0ZM12 2L12 3L14 3L14 2ZM15 2L15 3L16 3L16 2ZM10 3L10 4L11 4L11 3ZM8 5L8 7L9 7L9 5ZM14 5L14 7L15 7L15 6L16 6L16 8L15 8L15 9L14 9L14 8L13 8L13 6L12 6L12 8L13 8L13 9L11 9L11 8L6 8L6 9L9 9L9 10L8 10L8 11L9 11L9 13L7 13L7 12L6 12L6 11L7 11L7 10L5 10L5 8L0 8L0 11L1 11L1 12L0 12L0 17L1 17L1 14L2 14L2 15L3 15L3 16L4 16L4 17L8 17L8 19L9 19L9 20L8 20L8 25L9 25L9 24L10 24L10 25L11 25L11 24L13 24L13 25L14 25L14 24L15 24L15 25L16 25L16 24L17 24L17 25L19 25L19 24L21 24L21 25L25 25L25 21L24 21L24 20L25 20L25 18L24 18L24 17L25 17L25 16L22 16L22 14L19 14L19 15L17 15L17 14L18 14L18 13L23 13L23 14L24 14L24 15L25 15L25 14L24 14L24 13L25 13L25 12L18 12L18 11L19 11L19 10L20 10L20 11L21 11L21 10L22 10L22 11L25 11L25 10L22 10L22 8L21 8L21 10L20 10L20 8L19 8L19 10L18 10L18 11L17 11L17 10L15 10L15 9L18 9L18 8L17 8L17 6L16 6L16 5ZM23 8L23 9L24 9L24 8ZM10 9L10 11L13 11L13 12L10 12L10 13L9 13L9 14L8 14L8 15L9 15L9 14L10 14L10 15L13 15L13 16L14 16L14 15L15 15L15 17L12 17L12 16L9 16L9 17L10 17L10 19L12 19L12 18L14 18L14 19L13 19L13 20L14 20L14 21L12 21L12 20L11 20L11 21L9 21L9 22L10 22L10 24L11 24L11 23L12 23L12 22L14 22L14 23L13 23L13 24L14 24L14 23L15 23L15 24L16 24L16 23L21 23L21 24L24 24L24 22L16 22L16 21L15 21L15 20L16 20L16 19L15 19L15 18L16 18L16 15L15 15L15 14L10 14L10 13L13 13L13 12L14 12L14 13L16 13L16 11L15 11L15 12L14 12L14 9L13 9L13 10L11 10L11 9ZM1 10L1 11L2 11L2 12L1 12L1 13L2 13L2 14L3 14L3 13L2 13L2 12L4 12L4 10ZM5 12L5 13L6 13L6 14L7 14L7 13L6 13L6 12ZM17 12L17 13L18 13L18 12ZM4 15L4 16L5 16L5 15ZM6 15L6 16L7 16L7 15ZM19 15L19 16L21 16L21 19L22 19L22 20L21 20L21 21L22 21L22 20L24 20L24 18L23 18L23 17L22 17L22 16L21 16L21 15ZM11 17L11 18L12 18L12 17ZM17 17L17 20L20 20L20 17ZM18 18L18 19L19 19L19 18ZM14 19L14 20L15 20L15 19ZM11 21L11 22L12 22L12 21ZM14 21L14 22L15 22L15 21ZM0 0L0 7L7 7L7 0ZM1 1L1 6L6 6L6 1ZM2 2L2 5L5 5L5 2ZM18 0L18 7L25 7L25 0ZM19 1L19 6L24 6L24 1ZM20 2L20 5L23 5L23 2ZM0 18L0 25L7 25L7 18ZM1 19L1 24L6 24L6 19ZM2 20L2 23L5 23L5 20Z" fill="#000000"/></g></g></svg>
