<?xml version="1.0" encoding="UTF-8"?>
<svg xmlns="http://www.w3.org/2000/svg" version="1.1" width="200" height="200" viewBox="0 0 200 200"><rect x="0" y="0" width="200" height="200" fill="#ffffff"/><g transform="scale(8)"><g transform="translate(0,0)"><path fill-rule="evenodd" d="M9 0L9 1L8 1L8 2L9 2L9 3L8 3L8 4L10 4L10 7L11 7L11 4L12 4L12 5L13 5L13 4L17 4L17 2L16 2L16 1L17 1L17 0L16 0L16 1L15 1L15 2L14 2L14 1L11 1L11 2L10 2L10 0ZM12 2L12 3L14 3L14 2ZM15 2L15 3L16 3L16 2ZM10 3L10 4L11 4L11 3ZM8 5L8 7L9 7L9 5ZM14 5L14 7L15 7L15 6L16 6L16 8L15 8L15 9L14 9L14 8L12 8L12 9L11 9L11 8L6 8L6 9L5 9L5 8L0 8L0 9L2 9L2 10L3 10L3 9L5 9L5 10L6 10L6 11L5 11L5 12L6 12L6 13L7 13L7 14L4 14L4 16L2 16L2 17L4 17L4 16L5 16L5 17L8 17L8 19L9 19L9 20L8 20L8 25L9 25L9 24L10 24L10 25L11 25L11 23L10 23L10 22L9 22L9 20L12 20L12 21L11 21L11 22L12 22L12 23L14 23L14 24L12 24L12 25L16 25L16 24L17 24L17 23L18 23L18 22L22 22L22 21L23 21L23 22L24 22L24 24L22 24L22 23L21 23L21 24L20 24L20 25L21 25L21 24L22 24L22 25L25 25L25 21L24 21L24 20L25 20L25 18L24 18L24 17L25 17L25 16L22 16L22 14L20 14L20 13L23 13L23 14L24 14L24 15L25 15L25 14L24 14L24 13L25 13L25 12L20 12L20 11L19 11L19 10L20 10L20 8L19 8L19 10L15 10L15 9L18 9L18 8L17 8L17 6L16 6L16 5ZM12 6L12 7L13 7L13 6ZM21 8L21 10L22 10L22 11L25 11L25 10L22 10L22 8ZM23 8L23 9L24 9L24 8ZM6 9L6 10L7 10L7 11L6 11L6 12L7 12L7 13L8 13L8 14L7 14L7 15L6 15L6 16L8 16L8 17L10 17L10 18L11 18L11 19L13 19L13 20L14 20L14 21L12 21L12 22L14 22L14 21L15 21L15 20L16 20L16 19L15 19L15 18L16 18L16 15L15 15L15 13L16 13L16 11L15 11L15 10L13 10L13 9L12 9L12 10L11 10L11 9L10 9L10 11L11 11L11 12L10 12L10 13L9 13L9 10L8 10L8 9ZM1 11L1 12L0 12L0 17L1 17L1 14L3 14L3 13L4 13L4 11L3 11L3 12L2 12L2 11ZM7 11L7 12L8 12L8 11ZM17 11L17 12L18 12L18 11ZM13 12L13 13L10 13L10 14L8 14L8 16L10 16L10 17L11 17L11 18L12 18L12 17L13 17L13 18L15 18L15 17L14 17L14 16L15 16L15 15L14 15L14 16L12 16L12 17L11 17L11 15L10 15L10 14L13 14L13 13L15 13L15 12ZM19 12L19 13L17 13L17 14L19 14L19 13L20 13L20 12ZM20 15L20 16L21 16L21 17L22 17L22 16L21 16L21 15ZM17 17L17 20L20 20L20 17ZM18 18L18 19L19 19L19 18ZM22 18L22 19L21 19L21 20L24 20L24 18ZM16 21L16 22L15 22L15 24L16 24L16 23L17 23L17 22L18 22L18 21ZM18 24L18 25L19 25L19 24ZM0 0L0 7L7 7L7 0ZM1 1L1 6L6 6L6 1ZM2 2L2 5L5 5L5 2ZM18 0L18 7L25 7L25 0ZM19 1L19 6L24 6L24 1ZM20 2L20 5L23 5L23 2ZM0 18L0 25L7 25L7 18ZM1 19L1 24L6 24L6 19ZM2 20L2 23L5 23L5 20Z" fill="#000000"/></g></g></svg>
