<?xml version="1.0" encoding="UTF-8"?>
<svg xmlns="http://www.w3.org/2000/svg" version="1.1" width="200" height="200" viewBox="0 0 200 200"><rect x="0" y="0" width="200" height="200" fill="#ffffff"/><g transform="scale(8)"><g transform="translate(0,0)"><path fill-rule="evenodd" d="M8 0L8 1L10 1L10 0ZM16 0L16 1L17 1L17 0ZM13 1L13 2L11 2L11 4L10 4L10 3L9 3L9 2L8 2L8 5L9 5L9 6L8 6L8 7L9 7L9 8L8 8L8 10L6 10L6 9L7 9L7 8L6 8L6 9L4 9L4 8L0 8L0 9L2 9L2 12L1 12L1 10L0 10L0 13L1 13L1 15L0 15L0 16L1 16L1 15L2 15L2 14L4 14L4 15L7 15L7 16L5 16L5 17L8 17L8 18L9 18L9 21L8 21L8 25L9 25L9 23L11 23L11 24L10 24L10 25L11 25L11 24L12 24L12 25L16 25L16 22L15 22L15 21L14 21L14 23L13 23L13 24L12 24L12 22L13 22L13 19L14 19L14 20L16 20L16 21L17 21L17 23L19 23L19 24L17 24L17 25L20 25L20 24L21 24L21 23L22 23L22 25L25 25L25 24L23 24L23 23L24 23L24 22L25 22L25 20L24 20L24 19L25 19L25 17L23 17L23 16L22 16L22 15L23 15L23 14L22 14L22 13L24 13L24 14L25 14L25 11L24 11L24 12L23 12L23 10L22 10L22 9L23 9L23 8L20 8L20 9L21 9L21 12L20 12L20 11L19 11L19 12L18 12L18 11L17 11L17 10L18 10L18 8L17 8L17 5L16 5L16 4L17 4L17 3L16 3L16 2L15 2L15 1ZM12 4L12 5L10 5L10 6L9 6L9 7L10 7L10 8L9 8L9 9L10 9L10 10L8 10L8 17L9 17L9 18L11 18L11 19L10 19L10 22L11 22L11 21L12 21L12 20L11 20L11 19L12 19L12 18L13 18L13 17L12 17L12 18L11 18L11 17L10 17L10 16L11 16L11 15L12 15L12 14L13 14L13 16L14 16L14 15L15 15L15 16L16 16L16 15L19 15L19 16L21 16L21 15L22 15L22 14L20 14L20 15L19 15L19 14L18 14L18 12L17 12L17 11L16 11L16 10L17 10L17 8L14 8L14 6L13 6L13 5L14 5L14 4ZM15 5L15 7L16 7L16 5ZM10 6L10 7L11 7L11 6ZM12 6L12 7L13 7L13 6ZM12 8L12 9L11 9L11 11L12 11L12 12L13 12L13 13L14 13L14 12L16 12L16 14L17 14L17 12L16 12L16 11L14 11L14 10L15 10L15 9L14 9L14 10L13 10L13 8ZM24 8L24 9L25 9L25 8ZM3 10L3 12L2 12L2 13L4 13L4 14L5 14L5 13L6 13L6 14L7 14L7 13L6 13L6 12L7 12L7 11L6 11L6 10ZM12 10L12 11L13 11L13 10ZM4 11L4 12L5 12L5 11ZM9 12L9 14L11 14L11 13L10 13L10 12ZM19 12L19 13L20 13L20 12ZM2 16L2 17L4 17L4 16ZM17 17L17 20L20 20L20 17ZM18 18L18 19L19 19L19 18ZM21 18L21 20L22 20L22 22L23 22L23 19L24 19L24 18L23 18L23 19L22 19L22 18ZM19 22L19 23L20 23L20 22ZM14 23L14 24L15 24L15 23ZM0 0L0 7L7 7L7 0ZM1 1L1 6L6 6L6 1ZM2 2L2 5L5 5L5 2ZM18 0L18 7L25 7L25 0ZM19 1L19 6L24 6L24 1ZM20 2L20 5L23 5L23 2ZM0 18L0 25L7 25L7 18ZM1 19L1 24L6 24L6 19ZM2 20L2 23L5 23L5 20Z" fill="#000000"/></g></g></svg>
