<?xml version="1.0" encoding="UTF-8"?>
<svg xmlns="http://www.w3.org/2000/svg" version="1.1" width="200" height="200" viewBox="0 0 200 200"><rect x="0" y="0" width="200" height="200" fill="#ffffff"/><g transform="scale(8)"><g transform="translate(0,0)"><path fill-rule="evenodd" d="M9 0L9 1L8 1L8 2L9 2L9 3L8 3L8 4L10 4L10 7L11 7L11 4L12 4L12 7L13 7L13 4L17 4L17 2L16 2L16 1L17 1L17 0L16 0L16 1L15 1L15 2L14 2L14 1L11 1L11 2L10 2L10 0ZM12 2L12 3L14 3L14 2ZM15 2L15 3L16 3L16 2ZM10 3L10 4L11 4L11 3ZM8 5L8 7L9 7L9 5ZM14 5L14 7L15 7L15 6L16 6L16 8L15 8L15 9L14 9L14 8L13 8L13 9L11 9L11 8L6 8L6 9L5 9L5 8L0 8L0 9L1 9L1 10L2 10L2 11L1 11L1 12L0 12L0 17L1 17L1 14L4 14L4 15L2 15L2 17L4 17L4 15L5 15L5 17L7 17L7 16L8 16L8 15L7 15L7 14L6 14L6 13L8 13L8 14L9 14L9 17L8 17L8 19L9 19L9 17L10 17L10 19L11 19L11 18L12 18L12 17L13 17L13 18L15 18L15 19L16 19L16 20L15 20L15 21L14 21L14 20L13 20L13 19L12 19L12 20L13 20L13 21L10 21L10 20L8 20L8 25L10 25L10 24L11 24L11 23L10 23L10 24L9 24L9 21L10 21L10 22L12 22L12 24L13 24L13 25L14 25L14 24L15 24L15 25L16 25L16 24L19 24L19 23L16 23L16 24L15 24L15 22L22 22L22 23L21 23L21 24L20 24L20 25L21 25L21 24L22 24L22 25L25 25L25 21L24 21L24 20L25 20L25 18L24 18L24 17L25 17L25 16L22 16L22 14L21 14L21 16L20 16L20 14L18 14L18 15L17 15L17 13L23 13L23 14L24 14L24 15L25 15L25 14L24 14L24 13L25 13L25 12L17 12L17 10L18 10L18 11L19 11L19 10L18 10L18 8L17 8L17 6L16 6L16 5ZM19 8L19 9L20 9L20 8ZM21 8L21 10L22 10L22 11L25 11L25 10L22 10L22 8ZM23 8L23 9L24 9L24 8ZM4 9L4 11L2 11L2 12L1 12L1 13L2 13L2 12L4 12L4 13L6 13L6 12L8 12L8 13L9 13L9 14L10 14L10 13L11 13L11 12L12 12L12 13L13 13L13 14L14 14L14 15L12 15L12 14L11 14L11 15L10 15L10 16L11 16L11 17L12 17L12 16L14 16L14 17L15 17L15 18L16 18L16 15L15 15L15 13L16 13L16 11L15 11L15 10L17 10L17 9L15 9L15 10L11 10L11 9L10 9L10 11L11 11L11 12L10 12L10 13L9 13L9 11L6 11L6 10L9 10L9 9L6 9L6 10L5 10L5 9ZM4 11L4 12L5 12L5 11ZM12 11L12 12L13 12L13 13L15 13L15 12L13 12L13 11ZM6 15L6 16L7 16L7 15ZM14 15L14 16L15 16L15 15ZM18 15L18 16L19 16L19 15ZM21 16L21 17L22 17L22 16ZM17 17L17 20L20 20L20 17ZM18 18L18 19L19 19L19 18ZM22 18L22 19L21 19L21 20L24 20L24 18ZM13 21L13 24L14 24L14 21ZM22 21L22 22L23 22L23 23L22 23L22 24L24 24L24 22L23 22L23 21ZM0 0L0 7L7 7L7 0ZM1 1L1 6L6 6L6 1ZM2 2L2 5L5 5L5 2ZM18 0L18 7L25 7L25 0ZM19 1L19 6L24 6L24 1ZM20 2L20 5L23 5L23 2ZM0 18L0 25L7 25L7 18ZM1 19L1 24L6 24L6 19ZM2 20L2 23L5 23L5 20Z" fill="#000000"/></g></g></svg>
