<?xml version="1.0" encoding="UTF-8"?>
<svg xmlns="http://www.w3.org/2000/svg" version="1.1" width="200" height="200" viewBox="0 0 200 200"><rect x="0" y="0" width="200" height="200" fill="#ffffff"/><g transform="scale(8)"><g transform="translate(0,0)"><path fill-rule="evenodd" d="M9 0L9 1L8 1L8 2L9 2L9 3L8 3L8 4L10 4L10 7L11 7L11 4L12 4L12 8L13 8L13 9L11 9L11 8L6 8L6 9L8 9L8 10L6 10L6 11L5 11L5 12L3 12L3 13L0 13L0 17L1 17L1 14L2 14L2 15L3 15L3 13L4 13L4 16L2 16L2 17L4 17L4 16L5 16L5 17L8 17L8 19L9 19L9 17L10 17L10 15L11 15L11 16L13 16L13 17L11 17L11 18L10 18L10 20L8 20L8 25L9 25L9 24L10 24L10 25L11 25L11 24L10 24L10 22L9 22L9 21L11 21L11 22L12 22L12 23L13 23L13 22L16 22L16 21L17 21L17 22L21 22L21 23L23 23L23 22L24 22L24 24L21 24L21 25L25 25L25 21L24 21L24 20L25 20L25 18L24 18L24 17L25 17L25 16L21 16L21 15L20 15L20 13L23 13L23 14L24 14L24 15L25 15L25 14L24 14L24 13L25 13L25 12L20 12L20 11L18 11L18 12L17 12L17 10L18 10L18 8L17 8L17 6L16 6L16 5L14 5L14 8L13 8L13 4L17 4L17 2L16 2L16 1L17 1L17 0L16 0L16 1L15 1L15 2L14 2L14 1L11 1L11 2L10 2L10 0ZM12 2L12 3L14 3L14 2ZM15 2L15 3L16 3L16 2ZM10 3L10 4L11 4L11 3ZM8 5L8 7L9 7L9 5ZM15 6L15 8L16 8L16 6ZM0 8L0 9L2 9L2 10L3 10L3 9L5 9L5 8ZM19 8L19 9L20 9L20 8ZM21 8L21 10L22 10L22 11L25 11L25 10L22 10L22 8ZM23 8L23 9L24 9L24 8ZM10 9L10 11L12 11L12 12L10 12L10 13L13 13L13 14L11 14L11 15L13 15L13 16L15 16L15 17L13 17L13 18L11 18L11 19L12 19L12 20L11 20L11 21L13 21L13 20L14 20L14 21L15 21L15 20L16 20L16 19L14 19L14 18L16 18L16 15L15 15L15 13L16 13L16 11L14 11L14 10L17 10L17 9L13 9L13 10L11 10L11 9ZM6 11L6 12L5 12L5 13L6 13L6 14L5 14L5 15L6 15L6 16L7 16L7 15L6 15L6 14L7 14L7 13L8 13L8 15L10 15L10 14L9 14L9 13L8 13L8 12L7 12L7 11ZM6 12L6 13L7 13L7 12ZM13 12L13 13L15 13L15 12ZM19 12L19 13L17 13L17 16L20 16L20 15L18 15L18 14L19 14L19 13L20 13L20 12ZM13 14L13 15L14 15L14 14ZM8 16L8 17L9 17L9 16ZM17 17L17 20L20 20L20 17ZM21 17L21 18L22 18L22 19L21 19L21 20L24 20L24 18L23 18L23 17ZM18 18L18 19L19 19L19 18ZM22 21L22 22L23 22L23 21ZM14 23L14 24L12 24L12 25L16 25L16 24L17 24L17 25L20 25L20 24L19 24L19 23L16 23L16 24L15 24L15 23ZM0 0L0 7L7 7L7 0ZM1 1L1 6L6 6L6 1ZM2 2L2 5L5 5L5 2ZM18 0L18 7L25 7L25 0ZM19 1L19 6L24 6L24 1ZM20 2L20 5L23 5L23 2ZM0 18L0 25L7 25L7 18ZM1 19L1 24L6 24L6 19ZM2 20L2 23L5 23L5 20Z" fill="#000000"/></g></g></svg>
