<?xml version="1.0" encoding="UTF-8"?>
<svg xmlns="http://www.w3.org/2000/svg" version="1.1" width="200" height="200" viewBox="0 0 200 200"><rect x="0" y="0" width="200" height="200" fill="#ffffff"/><g transform="scale(8)"><g transform="translate(0,0)"><path fill-rule="evenodd" d="M8 0L8 1L10 1L10 0ZM16 0L16 1L17 1L17 0ZM13 1L13 2L11 2L11 4L10 4L10 3L9 3L9 2L8 2L8 5L9 5L9 6L8 6L8 7L9 7L9 8L8 8L8 9L9 9L9 10L10 10L10 9L9 9L9 8L10 8L10 7L11 7L11 6L10 6L10 5L12 5L12 4L14 4L14 5L13 5L13 6L12 6L12 7L13 7L13 6L14 6L14 7L15 7L15 8L14 8L14 9L15 9L15 8L17 8L17 10L16 10L16 11L15 11L15 12L14 12L14 11L13 11L13 8L12 8L12 9L11 9L11 12L13 12L13 13L14 13L14 14L15 14L15 12L16 12L16 14L21 14L21 15L20 15L20 16L17 16L17 15L16 15L16 16L15 16L15 18L14 18L14 16L13 16L13 14L12 14L12 15L9 15L9 14L8 14L8 12L4 12L4 11L3 11L3 9L4 9L4 10L5 10L5 11L8 11L8 10L5 10L5 9L4 9L4 8L0 8L0 10L2 10L2 11L1 11L1 12L2 12L2 11L3 11L3 12L4 12L4 13L3 13L3 14L4 14L4 15L2 15L2 13L1 13L1 15L0 15L0 16L1 16L1 15L2 15L2 17L5 17L5 15L7 15L7 16L6 16L6 17L8 17L8 18L9 18L9 19L11 19L11 18L12 18L12 17L13 17L13 18L14 18L14 20L16 20L16 21L13 21L13 19L12 19L12 21L11 21L11 20L10 20L10 21L8 21L8 25L9 25L9 24L10 24L10 23L12 23L12 25L16 25L16 21L17 21L17 25L20 25L20 23L21 23L21 25L25 25L25 24L23 24L23 23L24 23L24 22L25 22L25 20L24 20L24 19L25 19L25 17L23 17L23 16L22 16L22 17L21 17L21 15L23 15L23 14L22 14L22 13L24 13L24 14L25 14L25 11L24 11L24 12L23 12L23 10L22 10L22 9L23 9L23 8L20 8L20 9L21 9L21 10L20 10L20 11L21 11L21 12L20 12L20 13L19 13L19 12L16 12L16 11L19 11L19 10L18 10L18 8L17 8L17 5L16 5L16 4L17 4L17 3L16 3L16 2L15 2L15 1ZM15 5L15 7L16 7L16 5ZM9 6L9 7L10 7L10 6ZM6 8L6 9L7 9L7 8ZM24 8L24 9L25 9L25 8ZM9 12L9 13L10 13L10 14L11 14L11 13L10 13L10 12ZM4 13L4 14L5 14L5 13ZM6 13L6 14L7 14L7 13ZM8 16L8 17L9 17L9 16ZM10 17L10 18L11 18L11 17ZM17 17L17 20L20 20L20 17ZM18 18L18 19L19 19L19 18ZM22 18L22 20L21 20L21 21L22 21L22 22L21 22L21 23L22 23L22 22L23 22L23 19L24 19L24 18ZM9 22L9 23L10 23L10 22ZM12 22L12 23L14 23L14 22ZM19 22L19 23L18 23L18 24L19 24L19 23L20 23L20 22ZM0 0L0 7L7 7L7 0ZM1 1L1 6L6 6L6 1ZM2 2L2 5L5 5L5 2ZM18 0L18 7L25 7L25 0ZM19 1L19 6L24 6L24 1ZM20 2L20 5L23 5L23 2ZM0 18L0 25L7 25L7 18ZM1 19L1 24L6 24L6 19ZM2 20L2 23L5 23L5 20Z" fill="#000000"/></g></g></svg>
