<?xml version="1.0" encoding="UTF-8"?>
<svg xmlns="http://www.w3.org/2000/svg" version="1.1" width="200" height="200" viewBox="0 0 200 200"><rect x="0" y="0" width="200" height="200" fill="#ffffff"/><g transform="scale(8)"><g transform="translate(0,0)"><path fill-rule="evenodd" d="M9 0L9 1L8 1L8 2L9 2L9 3L8 3L8 4L10 4L10 7L11 7L11 4L12 4L12 8L6 8L6 9L9 9L9 10L6 10L6 11L8 11L8 12L9 12L9 14L8 14L8 15L7 15L7 14L6 14L6 13L7 13L7 12L6 12L6 13L5 13L5 14L3 14L3 13L4 13L4 12L5 12L5 11L4 11L4 12L3 12L3 11L2 11L2 12L0 12L0 17L1 17L1 14L2 14L2 17L3 17L3 16L4 16L4 17L8 17L8 19L9 19L9 17L8 17L8 16L9 16L9 15L11 15L11 16L10 16L10 18L12 18L12 19L10 19L10 20L8 20L8 25L11 25L11 24L9 24L9 23L11 23L11 22L12 22L12 24L13 24L13 25L14 25L14 24L13 24L13 22L15 22L15 24L17 24L17 25L18 25L18 24L19 24L19 23L18 23L18 22L21 22L21 24L20 24L20 25L21 25L21 24L22 24L22 25L25 25L25 21L24 21L24 20L25 20L25 18L24 18L24 17L25 17L25 16L21 16L21 15L23 15L23 14L24 14L24 15L25 15L25 14L24 14L24 13L25 13L25 12L19 12L19 11L20 11L20 10L18 10L18 8L17 8L17 6L16 6L16 5L13 5L13 4L17 4L17 2L16 2L16 1L17 1L17 0L16 0L16 1L15 1L15 2L14 2L14 1L11 1L11 2L10 2L10 0ZM12 2L12 3L14 3L14 2ZM15 2L15 3L16 3L16 2ZM10 3L10 4L11 4L11 3ZM8 5L8 7L9 7L9 5ZM13 6L13 8L12 8L12 9L13 9L13 10L17 10L17 13L18 13L18 14L17 14L17 16L20 16L20 15L21 15L21 14L23 14L23 13L18 13L18 10L17 10L17 9L13 9L13 8L16 8L16 6L15 6L15 7L14 7L14 6ZM0 8L0 10L1 10L1 9L2 9L2 10L5 10L5 8ZM19 8L19 9L20 9L20 8ZM21 8L21 10L22 10L22 11L25 11L25 10L22 10L22 8ZM23 8L23 9L24 9L24 8ZM10 9L10 11L12 11L12 10L11 10L11 9ZM13 11L13 12L10 12L10 13L13 13L13 14L11 14L11 15L13 15L13 16L11 16L11 17L13 17L13 16L14 16L14 17L15 17L15 18L13 18L13 19L12 19L12 20L11 20L11 21L12 21L12 22L13 22L13 21L12 21L12 20L14 20L14 21L15 21L15 20L16 20L16 19L15 19L15 18L16 18L16 15L15 15L15 14L14 14L14 13L16 13L16 11ZM2 12L2 13L3 13L3 12ZM13 12L13 13L14 13L14 12ZM5 14L5 15L6 15L6 16L7 16L7 15L6 15L6 14ZM13 14L13 15L14 15L14 14ZM18 14L18 15L19 15L19 14ZM17 17L17 20L20 20L20 17ZM21 17L21 18L23 18L23 19L22 19L22 20L21 20L21 21L22 21L22 22L23 22L23 23L22 23L22 24L24 24L24 22L23 22L23 21L22 21L22 20L24 20L24 18L23 18L23 17ZM18 18L18 19L19 19L19 18ZM17 21L17 22L16 22L16 23L17 23L17 24L18 24L18 23L17 23L17 22L18 22L18 21ZM0 0L0 7L7 7L7 0ZM1 1L1 6L6 6L6 1ZM2 2L2 5L5 5L5 2ZM18 0L18 7L25 7L25 0ZM19 1L19 6L24 6L24 1ZM20 2L20 5L23 5L23 2ZM0 18L0 25L7 25L7 18ZM1 19L1 24L6 24L6 19ZM2 20L2 23L5 23L5 20Z" fill="#000000"/></g></g></svg>
