<?xml version="1.0" encoding="UTF-8"?>
<svg xmlns="http://www.w3.org/2000/svg" version="1.1" width="200" height="200" viewBox="0 0 200 200"><rect x="0" y="0" width="200" height="200" fill="#ffffff"/><g transform="scale(9.524)"><g transform="translate(0,0)"><path fill-rule="evenodd" d="M10 0L10 2L9 2L9 3L8 3L8 5L9 5L9 3L10 3L10 7L9 7L9 6L8 6L8 7L9 7L9 9L8 9L8 8L5 8L5 9L2 9L2 8L0 8L0 12L1 12L1 11L2 11L2 12L3 12L3 13L5 13L5 12L3 12L3 10L4 10L4 11L7 11L7 12L6 12L6 13L7 13L7 12L8 12L8 16L10 16L10 17L9 17L9 18L10 18L10 20L9 20L9 19L8 19L8 21L10 21L10 20L11 20L11 21L15 21L15 20L13 20L13 19L14 19L14 17L15 17L15 19L18 19L18 20L17 20L17 21L18 21L18 20L19 20L19 21L20 21L20 20L19 20L19 19L21 19L21 18L20 18L20 17L18 17L18 16L19 16L19 14L21 14L21 11L20 11L20 13L18 13L18 12L19 12L19 11L17 11L17 13L16 13L16 12L15 12L15 13L14 13L14 14L11 14L11 15L10 15L10 13L11 13L11 12L8 12L8 11L14 11L14 10L13 10L13 9L12 9L12 7L13 7L13 4L12 4L12 2L13 2L13 1L12 1L12 2L11 2L11 0ZM10 2L10 3L11 3L11 2ZM11 6L11 7L12 7L12 6ZM10 8L10 10L11 10L11 8ZM16 8L16 9L15 9L15 11L16 11L16 9L17 9L17 10L20 10L20 9L18 9L18 8ZM1 9L1 10L2 10L2 9ZM5 9L5 10L7 10L7 9ZM12 12L12 13L13 13L13 12ZM14 14L14 15L15 15L15 17L17 17L17 18L18 18L18 17L17 17L17 16L18 16L18 14L16 14L16 15L15 15L15 14ZM20 15L20 16L21 16L21 15ZM11 16L11 19L12 19L12 18L13 18L13 17L14 17L14 16L13 16L13 17L12 17L12 16ZM0 0L0 7L7 7L7 0ZM1 1L1 6L6 6L6 1ZM2 2L2 5L5 5L5 2ZM14 0L14 7L21 7L21 0ZM15 1L15 6L20 6L20 1ZM16 2L16 5L19 5L19 2ZM0 14L0 21L7 21L7 14ZM1 15L1 20L6 20L6 15ZM2 16L2 19L5 19L5 16Z" fill="#000000"/></g></g></svg>
