<?xml version="1.0" encoding="UTF-8"?>
<svg xmlns="http://www.w3.org/2000/svg" version="1.1" width="200" height="200" viewBox="0 0 200 200"><rect x="0" y="0" width="200" height="200" fill="#ffffff"/><g transform="scale(9.524)"><g transform="translate(0,0)"><path fill-rule="evenodd" d="M11 0L11 1L12 1L12 2L11 2L11 4L10 4L10 1L8 1L8 2L9 2L9 3L8 3L8 4L10 4L10 5L8 5L8 7L9 7L9 6L10 6L10 8L6 8L6 9L10 9L10 8L11 8L11 11L14 11L14 10L15 10L15 12L11 12L11 13L10 13L10 11L9 11L9 10L8 10L8 11L7 11L7 10L6 10L6 11L7 11L7 12L6 12L6 13L8 13L8 15L10 15L10 16L8 16L8 21L15 21L15 20L16 20L16 18L17 18L17 17L18 17L18 20L17 20L17 21L18 21L18 20L19 20L19 21L20 21L20 20L19 20L19 18L20 18L20 17L18 17L18 16L19 16L19 14L21 14L21 13L20 13L20 12L21 12L21 11L20 11L20 12L19 12L19 11L17 11L17 12L16 12L16 10L21 10L21 9L20 9L20 8L19 8L19 9L18 9L18 8L17 8L17 9L16 9L16 8L15 8L15 9L14 9L14 8L13 8L13 9L12 9L12 7L13 7L13 4L12 4L12 2L13 2L13 1L12 1L12 0ZM11 6L11 7L12 7L12 6ZM0 8L0 10L1 10L1 12L0 12L0 13L1 13L1 12L2 12L2 13L5 13L5 8ZM1 9L1 10L2 10L2 12L4 12L4 9ZM13 9L13 10L14 10L14 9ZM15 9L15 10L16 10L16 9ZM8 12L8 13L9 13L9 12ZM17 12L17 13L19 13L19 12ZM11 13L11 14L10 14L10 15L11 15L11 14L14 14L14 16L13 16L13 17L12 17L12 16L10 16L10 17L9 17L9 18L10 18L10 17L11 17L11 18L13 18L13 20L15 20L15 19L14 19L14 18L16 18L16 17L17 17L17 16L18 16L18 14L16 14L16 13L15 13L15 14L14 14L14 13ZM15 14L15 16L14 16L14 17L13 17L13 18L14 18L14 17L15 17L15 16L17 16L17 15L16 15L16 14ZM0 0L0 7L7 7L7 0ZM1 1L1 6L6 6L6 1ZM2 2L2 5L5 5L5 2ZM14 0L14 7L21 7L21 0ZM15 1L15 6L20 6L20 1ZM16 2L16 5L19 5L19 2ZM0 14L0 21L7 21L7 14ZM1 15L1 20L6 20L6 15ZM2 16L2 19L5 19L5 16Z" fill="#000000"/></g></g></svg>
