<?xml version="1.0" encoding="UTF-8"?>
<svg xmlns="http://www.w3.org/2000/svg" version="1.1" width="200" height="200" viewBox="0 0 200 200"><rect x="0" y="0" width="200" height="200" fill="#ffffff"/><g transform="scale(8)"><g transform="translate(0,0)"><path fill-rule="evenodd" d="M9 0L9 1L8 1L8 2L9 2L9 3L8 3L8 4L10 4L10 7L11 7L11 8L6 8L6 9L5 9L5 8L0 8L0 10L1 10L1 11L2 11L2 12L3 12L3 11L5 11L5 12L6 12L6 13L7 13L7 14L5 14L5 13L3 13L3 16L2 16L2 17L3 17L3 16L6 16L6 17L8 17L8 19L10 19L10 20L11 20L11 19L10 19L10 18L13 18L13 17L14 17L14 20L13 20L13 21L10 21L10 22L9 22L9 20L8 20L8 25L9 25L9 23L10 23L10 22L13 22L13 23L12 23L12 24L10 24L10 25L12 25L12 24L13 24L13 25L14 25L14 24L15 24L15 25L16 25L16 24L17 24L17 25L18 25L18 24L19 24L19 25L20 25L20 22L21 22L21 24L22 24L22 25L25 25L25 21L24 21L24 20L25 20L25 18L24 18L24 17L25 17L25 16L22 16L22 15L23 15L23 14L24 14L24 15L25 15L25 14L24 14L24 13L25 13L25 12L22 12L22 10L21 10L21 11L20 11L20 10L18 10L18 8L17 8L17 6L16 6L16 5L15 5L15 4L17 4L17 2L16 2L16 1L17 1L17 0L16 0L16 1L14 1L14 2L16 2L16 3L15 3L15 4L14 4L14 3L12 3L12 2L13 2L13 1L11 1L11 2L10 2L10 0ZM10 3L10 4L11 4L11 7L12 7L12 8L11 8L11 9L10 9L10 11L11 11L11 12L10 12L10 13L12 13L12 14L11 14L11 15L10 15L10 16L8 16L8 14L9 14L9 12L8 12L8 14L7 14L7 15L6 15L6 16L8 16L8 17L10 17L10 16L11 16L11 17L13 17L13 16L14 16L14 17L15 17L15 18L16 18L16 15L15 15L15 14L13 14L13 13L12 13L12 11L13 11L13 12L14 12L14 13L16 13L16 11L15 11L15 10L17 10L17 9L15 9L15 8L16 8L16 6L15 6L15 7L14 7L14 6L13 6L13 5L14 5L14 4L13 4L13 5L12 5L12 4L11 4L11 3ZM8 5L8 7L9 7L9 5ZM12 6L12 7L13 7L13 6ZM13 8L13 9L11 9L11 10L15 10L15 9L14 9L14 8ZM19 8L19 9L20 9L20 8ZM21 8L21 9L22 9L22 8ZM23 8L23 9L24 9L24 8ZM2 9L2 11L3 11L3 10L5 10L5 9ZM6 9L6 10L7 10L7 11L6 11L6 12L7 12L7 11L9 11L9 9L8 9L8 10L7 10L7 9ZM23 10L23 11L25 11L25 10ZM17 11L17 13L18 13L18 14L17 14L17 16L21 16L21 17L22 17L22 16L21 16L21 15L18 15L18 14L23 14L23 13L22 13L22 12L21 12L21 13L18 13L18 12L20 12L20 11ZM0 13L0 17L1 17L1 13ZM12 14L12 15L13 15L13 14ZM17 17L17 20L20 20L20 17ZM18 18L18 19L19 19L19 18ZM22 18L22 20L21 20L21 21L22 21L22 20L24 20L24 18ZM15 19L15 20L16 20L16 19ZM13 21L13 22L14 22L14 23L13 23L13 24L14 24L14 23L15 23L15 24L16 24L16 23L17 23L17 24L18 24L18 23L19 23L19 22L20 22L20 21L19 21L19 22L18 22L18 21L17 21L17 22L15 22L15 21ZM17 22L17 23L18 23L18 22ZM22 22L22 24L24 24L24 22ZM0 0L0 7L7 7L7 0ZM1 1L1 6L6 6L6 1ZM2 2L2 5L5 5L5 2ZM18 0L18 7L25 7L25 0ZM19 1L19 6L24 6L24 1ZM20 2L20 5L23 5L23 2ZM0 18L0 25L7 25L7 18ZM1 19L1 24L6 24L6 19ZM2 20L2 23L5 23L5 20Z" fill="#000000"/></g></g></svg>
