<?xml version="1.0" encoding="UTF-8"?>
<svg xmlns="http://www.w3.org/2000/svg" version="1.1" width="200" height="200" viewBox="0 0 200 200"><rect x="0" y="0" width="200" height="200" fill="#ffffff"/><g transform="scale(9.524)"><g transform="translate(0,0)"><path fill-rule="evenodd" d="M8 0L8 1L10 1L10 3L9 3L9 2L8 2L8 5L11 5L11 6L10 6L10 7L9 7L9 6L8 6L8 7L9 7L9 8L8 8L8 10L6 10L6 9L7 9L7 8L6 8L6 9L4 9L4 8L0 8L0 10L1 10L1 9L4 9L4 10L2 10L2 13L8 13L8 14L9 14L9 15L10 15L10 14L11 14L11 13L10 13L10 14L9 14L9 13L8 13L8 12L5 12L5 11L8 11L8 10L9 10L9 11L10 11L10 12L12 12L12 11L10 11L10 9L11 9L11 10L13 10L13 13L12 13L12 14L15 14L15 16L16 16L16 17L15 17L15 18L14 18L14 21L15 21L15 19L16 19L16 17L17 17L17 18L18 18L18 17L19 17L19 15L20 15L20 12L21 12L21 8L20 8L20 9L19 9L19 8L16 8L16 9L15 9L15 10L14 10L14 8L13 8L13 6L12 6L12 5L11 5L11 4L12 4L12 3L13 3L13 2L12 2L12 0L11 0L11 1L10 1L10 0ZM10 3L10 4L11 4L11 3ZM11 6L11 8L12 8L12 6ZM9 8L9 9L10 9L10 8ZM16 10L16 11L14 11L14 12L15 12L15 14L16 14L16 13L17 13L17 15L16 15L16 16L17 16L17 17L18 17L18 15L19 15L19 11L20 11L20 10L19 10L19 11L18 11L18 12L17 12L17 10ZM3 11L3 12L4 12L4 11ZM0 12L0 13L1 13L1 12ZM11 15L11 17L10 17L10 16L9 16L9 17L8 17L8 21L10 21L10 20L9 20L9 19L11 19L11 18L12 18L12 20L11 20L11 21L12 21L12 20L13 20L13 17L14 17L14 16L13 16L13 15ZM12 16L12 17L13 17L13 16ZM20 16L20 17L21 17L21 16ZM9 17L9 18L10 18L10 17ZM17 19L17 21L19 21L19 20L18 20L18 19ZM20 19L20 20L21 20L21 19ZM0 0L0 7L7 7L7 0ZM1 1L1 6L6 6L6 1ZM2 2L2 5L5 5L5 2ZM14 0L14 7L21 7L21 0ZM15 1L15 6L20 6L20 1ZM16 2L16 5L19 5L19 2ZM0 14L0 21L7 21L7 14ZM1 15L1 20L6 20L6 15ZM2 16L2 19L5 19L5 16Z" fill="#000000"/></g></g></svg>
