<?xml version="1.0" encoding="UTF-8"?>
<svg xmlns="http://www.w3.org/2000/svg" version="1.1" width="200" height="200" viewBox="0 0 200 200"><rect x="0" y="0" width="200" height="200" fill="#ffffff"/><g transform="scale(8)"><g transform="translate(0,0)"><path fill-rule="evenodd" d="M8 0L8 1L10 1L10 0ZM16 0L16 1L17 1L17 0ZM8 2L8 5L9 5L9 6L8 6L8 7L9 7L9 8L8 8L8 9L7 9L7 8L6 8L6 9L7 9L7 10L6 10L6 11L4 11L4 16L2 16L2 17L5 17L5 16L6 16L6 17L7 17L7 16L6 16L6 15L8 15L8 14L9 14L9 16L10 16L10 17L8 17L8 18L9 18L9 21L8 21L8 25L10 25L10 24L12 24L12 25L16 25L16 22L17 22L17 21L18 21L18 23L19 23L19 24L18 24L18 25L19 25L19 24L20 24L20 23L21 23L21 22L23 22L23 23L22 23L22 25L25 25L25 24L23 24L23 23L24 23L24 22L25 22L25 20L24 20L24 19L25 19L25 17L23 17L23 16L22 16L22 15L21 15L21 14L22 14L22 13L24 13L24 14L25 14L25 11L24 11L24 12L23 12L23 11L22 11L22 13L21 13L21 12L20 12L20 13L19 13L19 12L18 12L18 15L16 15L16 16L13 16L13 15L14 15L14 11L15 11L15 12L16 12L16 14L17 14L17 12L16 12L16 11L18 11L18 8L17 8L17 5L16 5L16 4L17 4L17 3L16 3L16 2L15 2L15 5L14 5L14 8L17 8L17 10L16 10L16 11L15 11L15 9L13 9L13 8L12 8L12 7L13 7L13 5L12 5L12 4L14 4L14 2L11 2L11 4L10 4L10 3L9 3L9 2ZM10 5L10 6L9 6L9 7L10 7L10 8L9 8L9 9L10 9L10 10L9 10L9 12L8 12L8 13L9 13L9 12L10 12L10 13L11 13L11 14L10 14L10 16L11 16L11 17L10 17L10 18L11 18L11 19L10 19L10 21L9 21L9 24L10 24L10 22L11 22L11 21L12 21L12 22L15 22L15 21L16 21L16 20L15 20L15 21L14 21L14 19L15 19L15 18L13 18L13 17L12 17L12 14L13 14L13 12L11 12L11 9L12 9L12 8L11 8L11 7L12 7L12 5ZM15 5L15 7L16 7L16 5ZM10 6L10 7L11 7L11 6ZM0 8L0 9L2 9L2 11L0 11L0 13L1 13L1 15L0 15L0 16L1 16L1 15L2 15L2 14L3 14L3 10L4 10L4 8ZM20 8L20 9L23 9L23 8ZM24 8L24 9L25 9L25 8ZM12 10L12 11L14 11L14 10ZM20 10L20 11L21 11L21 10ZM6 11L6 12L5 12L5 15L6 15L6 14L7 14L7 13L6 13L6 12L7 12L7 11ZM19 14L19 16L21 16L21 15L20 15L20 14ZM11 17L11 18L12 18L12 20L13 20L13 18L12 18L12 17ZM17 17L17 20L20 20L20 17ZM21 17L21 18L22 18L22 19L21 19L21 20L22 20L22 21L23 21L23 19L24 19L24 18L23 18L23 17ZM18 18L18 19L19 19L19 18ZM19 21L19 22L20 22L20 21ZM12 23L12 24L13 24L13 23ZM0 0L0 7L7 7L7 0ZM1 1L1 6L6 6L6 1ZM2 2L2 5L5 5L5 2ZM18 0L18 7L25 7L25 0ZM19 1L19 6L24 6L24 1ZM20 2L20 5L23 5L23 2ZM0 18L0 25L7 25L7 18ZM1 19L1 24L6 24L6 19ZM2 20L2 23L5 23L5 20Z" fill="#000000"/></g></g></svg>
