<?xml version="1.0" encoding="UTF-8"?>
<svg xmlns="http://www.w3.org/2000/svg" version="1.1" width="200" height="200" viewBox="0 0 200 200"><rect x="0" y="0" width="200" height="200" fill="#ffffff"/><g transform="scale(8)"><g transform="translate(0,0)"><path fill-rule="evenodd" d="M9 0L9 1L8 1L8 2L9 2L9 3L8 3L8 4L10 4L10 7L11 7L11 8L6 8L6 9L7 9L7 10L4 10L4 9L5 9L5 8L0 8L0 10L2 10L2 9L3 9L3 10L4 10L4 14L3 14L3 13L2 13L2 11L0 11L0 17L1 17L1 14L3 14L3 15L4 15L4 16L2 16L2 17L8 17L8 19L9 19L9 16L10 16L10 17L11 17L11 18L10 18L10 19L11 19L11 18L12 18L12 17L14 17L14 18L13 18L13 19L12 19L12 20L13 20L13 21L11 21L11 22L9 22L9 20L8 20L8 25L9 25L9 24L10 24L10 23L11 23L11 22L12 22L12 23L13 23L13 21L14 21L14 24L13 24L13 25L14 25L14 24L15 24L15 25L16 25L16 24L18 24L18 25L19 25L19 23L18 23L18 22L21 22L21 23L20 23L20 24L22 24L22 25L25 25L25 21L24 21L24 20L25 20L25 18L24 18L24 17L25 17L25 16L22 16L22 15L23 15L23 14L24 14L24 15L25 15L25 14L24 14L24 13L25 13L25 12L22 12L22 10L21 10L21 12L20 12L20 11L19 11L19 10L18 10L18 8L17 8L17 6L16 6L16 5L15 5L15 4L17 4L17 2L16 2L16 1L17 1L17 0L16 0L16 1L14 1L14 2L16 2L16 3L15 3L15 4L14 4L14 3L12 3L12 2L13 2L13 1L11 1L11 2L10 2L10 0ZM10 3L10 4L11 4L11 7L12 7L12 8L11 8L11 9L10 9L10 11L11 11L11 12L10 12L10 13L12 13L12 14L11 14L11 17L12 17L12 16L14 16L14 17L15 17L15 18L14 18L14 19L13 19L13 20L14 20L14 21L15 21L15 20L16 20L16 19L15 19L15 18L16 18L16 15L15 15L15 14L13 14L13 13L12 13L12 12L14 12L14 13L16 13L16 11L15 11L15 10L17 10L17 12L19 12L19 11L18 11L18 10L17 10L17 9L15 9L15 8L16 8L16 6L15 6L15 7L14 7L14 6L13 6L13 7L12 7L12 4L11 4L11 3ZM13 4L13 5L14 5L14 4ZM8 5L8 7L9 7L9 5ZM12 8L12 9L11 9L11 10L12 10L12 9L13 9L13 10L15 10L15 9L14 9L14 8ZM19 8L19 9L20 9L20 8ZM21 8L21 9L22 9L22 8ZM23 8L23 9L24 9L24 8ZM8 9L8 10L7 10L7 11L5 11L5 16L7 16L7 15L6 15L6 14L7 14L7 13L8 13L8 16L9 16L9 15L10 15L10 14L9 14L9 13L8 13L8 12L9 12L9 11L8 11L8 10L9 10L9 9ZM23 10L23 11L25 11L25 10ZM6 12L6 13L7 13L7 12ZM21 12L21 13L17 13L17 16L19 16L19 15L18 15L18 14L20 14L20 16L21 16L21 17L22 17L22 16L21 16L21 14L23 14L23 13L22 13L22 12ZM12 14L12 15L13 15L13 14ZM17 17L17 20L20 20L20 17ZM18 18L18 19L19 19L19 18ZM22 18L22 20L21 20L21 21L22 21L22 20L24 20L24 18ZM17 21L17 22L16 22L16 23L15 23L15 24L16 24L16 23L17 23L17 22L18 22L18 21ZM22 22L22 24L24 24L24 22ZM0 0L0 7L7 7L7 0ZM1 1L1 6L6 6L6 1ZM2 2L2 5L5 5L5 2ZM18 0L18 7L25 7L25 0ZM19 1L19 6L24 6L24 1ZM20 2L20 5L23 5L23 2ZM0 18L0 25L7 25L7 18ZM1 19L1 24L6 24L6 19ZM2 20L2 23L5 23L5 20Z" fill="#000000"/></g></g></svg>
