<?xml version="1.0" encoding="UTF-8"?>
<svg xmlns="http://www.w3.org/2000/svg" version="1.1" width="200" height="200" viewBox="0 0 200 200"><rect x="0" y="0" width="200" height="200" fill="#ffffff"/><g transform="scale(8)"><g transform="translate(0,0)"><path fill-rule="evenodd" d="M9 0L9 1L8 1L8 2L9 2L9 3L8 3L8 4L10 4L10 7L11 7L11 8L6 8L6 9L9 9L9 10L4 10L4 9L5 9L5 8L0 8L0 12L1 12L1 13L0 13L0 17L1 17L1 13L2 13L2 11L1 11L1 9L3 9L3 13L4 13L4 14L5 14L5 15L7 15L7 14L8 14L8 13L10 13L10 14L9 14L9 15L10 15L10 16L11 16L11 15L10 15L10 14L12 14L12 15L13 15L13 14L15 14L15 15L14 15L14 16L13 16L13 17L11 17L11 18L13 18L13 17L14 17L14 19L16 19L16 20L15 20L15 21L14 21L14 20L13 20L13 19L11 19L11 20L12 20L12 21L10 21L10 20L8 20L8 25L9 25L9 24L10 24L10 25L11 25L11 24L12 24L12 25L16 25L16 24L17 24L17 25L20 25L20 24L19 24L19 23L18 23L18 24L17 24L17 23L16 23L16 22L15 22L15 21L17 21L17 22L24 22L24 24L22 24L22 23L21 23L21 24L22 24L22 25L25 25L25 21L24 21L24 20L25 20L25 18L24 18L24 17L25 17L25 16L22 16L22 15L23 15L23 14L24 14L24 15L25 15L25 14L24 14L24 13L25 13L25 12L22 12L22 10L20 10L20 8L19 8L19 10L15 10L15 9L18 9L18 8L17 8L17 6L16 6L16 5L15 5L15 4L17 4L17 2L16 2L16 1L17 1L17 0L16 0L16 1L14 1L14 2L16 2L16 3L15 3L15 4L14 4L14 3L12 3L12 2L13 2L13 1L11 1L11 2L10 2L10 0ZM10 3L10 4L11 4L11 7L12 7L12 4L11 4L11 3ZM13 4L13 5L14 5L14 4ZM8 5L8 7L9 7L9 5ZM13 6L13 8L11 8L11 9L10 9L10 11L11 11L11 12L10 12L10 13L13 13L13 12L14 12L14 13L16 13L16 11L15 11L15 10L11 10L11 9L13 9L13 8L14 8L14 9L15 9L15 8L16 8L16 6L15 6L15 7L14 7L14 6ZM21 8L21 9L22 9L22 8ZM23 8L23 9L24 9L24 8ZM23 10L23 11L25 11L25 10ZM4 11L4 13L6 13L6 14L7 14L7 13L8 13L8 12L9 12L9 11L6 11L6 12L5 12L5 11ZM17 11L17 13L18 13L18 14L17 14L17 15L18 15L18 14L19 14L19 15L20 15L20 16L21 16L21 17L22 17L22 16L21 16L21 14L23 14L23 13L22 13L22 12L21 12L21 11L19 11L19 13L18 13L18 11ZM6 12L6 13L7 13L7 12ZM20 12L20 13L19 13L19 14L20 14L20 13L21 13L21 12ZM2 14L2 16L4 16L4 15L3 15L3 14ZM15 15L15 16L14 16L14 17L15 17L15 18L16 18L16 15ZM6 16L6 17L7 17L7 16ZM8 17L8 19L9 19L9 17ZM17 17L17 20L20 20L20 17ZM18 18L18 19L19 19L19 18ZM22 18L22 20L21 20L21 21L22 21L22 20L24 20L24 18ZM12 21L12 22L11 22L11 23L10 23L10 22L9 22L9 23L10 23L10 24L11 24L11 23L13 23L13 24L16 24L16 23L14 23L14 21ZM0 0L0 7L7 7L7 0ZM1 1L1 6L6 6L6 1ZM2 2L2 5L5 5L5 2ZM18 0L18 7L25 7L25 0ZM19 1L19 6L24 6L24 1ZM20 2L20 5L23 5L23 2ZM0 18L0 25L7 25L7 18ZM1 19L1 24L6 24L6 19ZM2 20L2 23L5 23L5 20Z" fill="#000000"/></g></g></svg>
