<?xml version="1.0" encoding="UTF-8"?>
<svg xmlns="http://www.w3.org/2000/svg" version="1.1" width="200" height="200" viewBox="0 0 200 200"><rect x="0" y="0" width="200" height="200" fill="#ffffff"/><g transform="scale(8)"><g transform="translate(0,0)"><path fill-rule="evenodd" d="M10 0L10 1L9 1L9 2L8 2L8 3L9 3L9 5L10 5L10 7L11 7L11 8L13 8L13 9L14 9L14 11L12 11L12 12L13 12L13 13L14 13L14 15L12 15L12 16L13 16L13 18L12 18L12 23L13 23L13 24L12 24L12 25L14 25L14 24L15 24L15 25L17 25L17 24L18 24L18 25L21 25L21 24L20 24L20 23L21 23L21 22L22 22L22 23L23 23L23 25L25 25L25 24L24 24L24 23L25 23L25 22L24 22L24 23L23 23L23 21L24 21L24 19L25 19L25 9L23 9L23 8L22 8L22 9L23 9L23 10L22 10L22 11L21 11L21 13L22 13L22 11L23 11L23 13L24 13L24 15L23 15L23 17L22 17L22 15L21 15L21 14L19 14L19 12L20 12L20 9L19 9L19 8L17 8L17 6L16 6L16 5L17 5L17 3L16 3L16 0L14 0L14 1L13 1L13 2L14 2L14 3L15 3L15 5L14 5L14 7L13 7L13 6L12 6L12 5L13 5L13 4L12 4L12 5L10 5L10 3L9 3L9 2L10 2L10 1L11 1L11 0ZM11 2L11 3L12 3L12 2ZM8 6L8 8L4 8L4 9L3 9L3 8L0 8L0 9L1 9L1 10L0 10L0 11L1 11L1 12L2 12L2 13L1 13L1 14L0 14L0 15L1 15L1 16L0 16L0 17L1 17L1 16L3 16L3 17L5 17L5 16L4 16L4 15L8 15L8 16L6 16L6 17L8 17L8 21L9 21L9 22L8 22L8 25L11 25L11 20L10 20L10 21L9 21L9 19L11 19L11 18L10 18L10 15L11 15L11 10L10 10L10 9L9 9L9 6ZM11 6L11 7L12 7L12 6ZM15 6L15 7L14 7L14 8L15 8L15 11L14 11L14 12L16 12L16 13L17 13L17 14L15 14L15 15L14 15L14 18L13 18L13 19L14 19L14 20L15 20L15 21L16 21L16 22L17 22L17 21L16 21L16 17L15 17L15 16L16 16L16 15L17 15L17 16L21 16L21 15L19 15L19 14L18 14L18 12L19 12L19 11L18 11L18 9L17 9L17 8L16 8L16 6ZM2 9L2 11L5 11L5 13L4 13L4 12L3 12L3 13L2 13L2 14L1 14L1 15L3 15L3 14L7 14L7 13L8 13L8 14L9 14L9 15L10 15L10 14L9 14L9 13L10 13L10 12L9 12L9 13L8 13L8 10L9 10L9 11L10 11L10 10L9 10L9 9L4 9L4 10L3 10L3 9ZM5 10L5 11L7 11L7 10ZM16 11L16 12L18 12L18 11ZM6 12L6 13L7 13L7 12ZM8 16L8 17L9 17L9 16ZM17 17L17 20L20 20L20 17ZM23 17L23 19L22 19L22 18L21 18L21 19L22 19L22 21L23 21L23 19L24 19L24 17ZM18 18L18 19L19 19L19 18ZM18 21L18 24L19 24L19 23L20 23L20 21ZM13 22L13 23L15 23L15 22ZM9 23L9 24L10 24L10 23ZM0 0L0 7L7 7L7 0ZM1 1L1 6L6 6L6 1ZM2 2L2 5L5 5L5 2ZM18 0L18 7L25 7L25 0ZM19 1L19 6L24 6L24 1ZM20 2L20 5L23 5L23 2ZM0 18L0 25L7 25L7 18ZM1 19L1 24L6 24L6 19ZM2 20L2 23L5 23L5 20Z" fill="#000000"/></g></g></svg>
