<?xml version="1.0" encoding="UTF-8"?>
<svg xmlns="http://www.w3.org/2000/svg" version="1.1" width="200" height="200" viewBox="0 0 200 200"><rect x="0" y="0" width="200" height="200" fill="#ffffff"/><g transform="scale(8)"><g transform="translate(0,0)"><path fill-rule="evenodd" d="M10 0L10 1L9 1L9 2L8 2L8 3L9 3L9 5L10 5L10 7L11 7L11 6L12 6L12 7L13 7L13 8L12 8L12 10L13 10L13 9L14 9L14 11L13 11L13 16L12 16L12 15L11 15L11 13L12 13L12 11L11 11L11 10L10 10L10 9L9 9L9 6L8 6L8 8L4 8L4 9L3 9L3 8L0 8L0 9L2 9L2 10L1 10L1 11L0 11L0 13L1 13L1 14L0 14L0 15L1 15L1 16L0 16L0 17L1 17L1 16L2 16L2 17L5 17L5 16L4 16L4 15L3 15L3 14L2 14L2 13L1 13L1 12L2 12L2 10L4 10L4 12L3 12L3 13L4 13L4 14L6 14L6 15L7 15L7 16L6 16L6 17L8 17L8 21L9 21L9 22L8 22L8 25L9 25L9 24L10 24L10 23L9 23L9 22L10 22L10 21L11 21L11 20L12 20L12 19L10 19L10 20L9 20L9 17L11 17L11 16L12 16L12 18L15 18L15 17L16 17L16 21L15 21L15 19L13 19L13 22L12 22L12 23L11 23L11 24L12 24L12 23L13 23L13 25L15 25L15 23L14 23L14 22L16 22L16 25L17 25L17 24L18 24L18 25L22 25L22 23L21 23L21 21L22 21L22 19L23 19L23 21L24 21L24 19L25 19L25 9L23 9L23 8L22 8L22 9L23 9L23 10L22 10L22 11L21 11L21 10L20 10L20 9L19 9L19 8L17 8L17 6L16 6L16 5L17 5L17 3L16 3L16 0L14 0L14 1L13 1L13 2L14 2L14 3L15 3L15 5L14 5L14 7L13 7L13 6L12 6L12 5L13 5L13 4L12 4L12 5L10 5L10 3L9 3L9 2L10 2L10 1L11 1L11 0ZM11 2L11 3L12 3L12 2ZM15 6L15 7L14 7L14 8L15 8L15 11L14 11L14 12L16 12L16 13L17 13L17 14L14 14L14 16L16 16L16 15L17 15L17 16L21 16L21 15L22 15L22 17L23 17L23 19L24 19L24 17L23 17L23 15L24 15L24 13L23 13L23 11L22 11L22 13L21 13L21 11L20 11L20 10L19 10L19 11L20 11L20 15L19 15L19 14L18 14L18 12L16 12L16 11L18 11L18 9L17 9L17 8L16 8L16 6ZM4 9L4 10L5 10L5 9ZM6 9L6 10L7 10L7 9ZM8 10L8 11L5 11L5 12L4 12L4 13L5 13L5 12L7 12L7 13L6 13L6 14L7 14L7 15L8 15L8 14L10 14L10 12L9 12L9 11L10 11L10 10ZM8 12L8 13L7 13L7 14L8 14L8 13L9 13L9 12ZM1 14L1 15L2 15L2 16L3 16L3 15L2 15L2 14ZM9 15L9 16L11 16L11 15ZM17 17L17 20L20 20L20 17ZM18 18L18 19L19 19L19 18ZM21 18L21 19L22 19L22 18ZM16 21L16 22L17 22L17 21ZM18 21L18 24L21 24L21 23L20 23L20 21ZM24 22L24 23L23 23L23 25L25 25L25 24L24 24L24 23L25 23L25 22ZM0 0L0 7L7 7L7 0ZM1 1L1 6L6 6L6 1ZM2 2L2 5L5 5L5 2ZM18 0L18 7L25 7L25 0ZM19 1L19 6L24 6L24 1ZM20 2L20 5L23 5L23 2ZM0 18L0 25L7 25L7 18ZM1 19L1 24L6 24L6 19ZM2 20L2 23L5 23L5 20Z" fill="#000000"/></g></g></svg>
