<?xml version="1.0" encoding="UTF-8"?>
<svg xmlns="http://www.w3.org/2000/svg" version="1.1" width="200" height="200" viewBox="0 0 200 200"><rect x="0" y="0" width="200" height="200" fill="#ffffff"/><g transform="scale(8)"><g transform="translate(0,0)"><path fill-rule="evenodd" d="M8 0L8 1L10 1L10 0ZM16 0L16 1L17 1L17 0ZM8 2L8 5L9 5L9 6L8 6L8 7L9 7L9 8L8 8L8 9L7 9L7 8L6 8L6 9L7 9L7 10L5 10L5 11L2 11L2 10L0 10L0 11L2 11L2 12L5 12L5 11L7 11L7 10L10 10L10 9L9 9L9 8L10 8L10 7L11 7L11 8L12 8L12 9L11 9L11 11L12 11L12 16L11 16L11 17L10 17L10 15L11 15L11 13L10 13L10 12L9 12L9 11L8 11L8 14L10 14L10 15L7 15L7 14L6 14L6 13L7 13L7 12L6 12L6 13L5 13L5 14L4 14L4 13L1 13L1 15L0 15L0 16L1 16L1 15L2 15L2 17L3 17L3 16L4 16L4 17L5 17L5 16L6 16L6 17L8 17L8 18L9 18L9 17L10 17L10 18L12 18L12 19L9 19L9 20L10 20L10 21L8 21L8 25L10 25L10 23L12 23L12 21L11 21L11 20L13 20L13 19L14 19L14 20L16 20L16 21L14 21L14 22L16 22L16 23L13 23L13 25L14 25L14 24L15 24L15 25L16 25L16 23L17 23L17 24L18 24L18 23L19 23L19 25L20 25L20 24L21 24L21 25L25 25L25 24L23 24L23 23L24 23L24 22L25 22L25 20L24 20L24 19L25 19L25 17L23 17L23 16L22 16L22 15L21 15L21 16L20 16L20 15L19 15L19 13L20 13L20 14L22 14L22 13L24 13L24 14L25 14L25 11L24 11L24 12L23 12L23 11L22 11L22 13L21 13L21 12L20 12L20 11L21 11L21 10L20 10L20 9L23 9L23 8L20 8L20 9L19 9L19 10L20 10L20 11L19 11L19 12L18 12L18 11L17 11L17 10L16 10L16 11L15 11L15 9L13 9L13 5L12 5L12 4L14 4L14 2L11 2L11 4L10 4L10 3L9 3L9 2ZM15 2L15 5L14 5L14 8L17 8L17 9L18 9L18 8L17 8L17 5L16 5L16 4L17 4L17 3L16 3L16 2ZM10 5L10 6L9 6L9 7L10 7L10 6L11 6L11 7L12 7L12 5ZM15 5L15 7L16 7L16 5ZM0 8L0 9L4 9L4 8ZM24 8L24 9L25 9L25 8ZM13 10L13 11L14 11L14 13L13 13L13 16L12 16L12 17L13 17L13 16L14 16L14 18L15 18L15 16L16 16L16 15L18 15L18 12L17 12L17 11L16 11L16 12L15 12L15 11L14 11L14 10ZM16 12L16 14L17 14L17 12ZM3 14L3 15L4 15L4 14ZM5 14L5 15L6 15L6 16L7 16L7 15L6 15L6 14ZM14 14L14 16L15 16L15 14ZM8 16L8 17L9 17L9 16ZM17 17L17 20L20 20L20 17ZM21 17L21 18L22 18L22 19L21 19L21 20L22 20L22 21L21 21L21 22L23 22L23 19L24 19L24 18L23 18L23 17ZM18 18L18 19L19 19L19 18ZM16 21L16 22L17 22L17 23L18 23L18 21ZM19 22L19 23L20 23L20 22ZM0 0L0 7L7 7L7 0ZM1 1L1 6L6 6L6 1ZM2 2L2 5L5 5L5 2ZM18 0L18 7L25 7L25 0ZM19 1L19 6L24 6L24 1ZM20 2L20 5L23 5L23 2ZM0 18L0 25L7 25L7 18ZM1 19L1 24L6 24L6 19ZM2 20L2 23L5 23L5 20Z" fill="#000000"/></g></g></svg>
