<?xml version="1.0" encoding="UTF-8"?>
<svg xmlns="http://www.w3.org/2000/svg" version="1.1" width="200" height="200" viewBox="0 0 200 200"><rect x="0" y="0" width="200" height="200" fill="#ffffff"/><g transform="scale(8)"><g transform="translate(0,0)"><path fill-rule="evenodd" d="M9 0L9 1L11 1L11 2L9 2L9 3L8 3L8 5L9 5L9 6L8 6L8 7L9 7L9 9L10 9L10 10L9 10L9 11L10 11L10 12L9 12L9 14L8 14L8 15L7 15L7 14L6 14L6 13L8 13L8 11L7 11L7 10L8 10L8 8L5 8L5 9L3 9L3 10L2 10L2 8L0 8L0 9L1 9L1 10L2 10L2 11L1 11L1 13L0 13L0 17L1 17L1 13L2 13L2 15L5 15L5 16L4 16L4 17L5 17L5 16L6 16L6 17L7 17L7 16L8 16L8 20L9 20L9 21L10 21L10 24L11 24L11 25L12 25L12 24L13 24L13 23L14 23L14 25L19 25L19 24L20 24L20 25L21 25L21 24L20 24L20 23L18 23L18 22L20 22L20 21L21 21L21 23L23 23L23 22L24 22L24 25L25 25L25 21L24 21L24 20L25 20L25 18L24 18L24 17L25 17L25 16L23 16L23 14L24 14L24 15L25 15L25 14L24 14L24 13L25 13L25 12L24 12L24 13L23 13L23 14L22 14L22 13L21 13L21 14L19 14L19 15L17 15L17 14L18 14L18 13L19 13L19 12L17 12L17 10L18 10L18 11L19 11L19 10L18 10L18 9L17 9L17 6L16 6L16 7L15 7L15 3L12 3L12 2L13 2L13 1L14 1L14 2L15 2L15 0L13 0L13 1L12 1L12 0ZM16 2L16 3L17 3L17 2ZM9 3L9 5L10 5L10 3ZM11 4L11 7L10 7L10 6L9 6L9 7L10 7L10 8L12 8L12 9L13 9L13 8L14 8L14 10L10 10L10 11L11 11L11 13L13 13L13 14L9 14L9 16L10 16L10 17L9 17L9 18L10 18L10 17L12 17L12 19L9 19L9 20L10 20L10 21L13 21L13 22L16 22L16 23L17 23L17 24L18 24L18 23L17 23L17 22L18 22L18 21L17 21L17 22L16 22L16 21L15 21L15 20L14 20L14 19L15 19L15 18L14 18L14 17L16 17L16 16L17 16L17 15L16 15L16 16L14 16L14 15L13 15L13 14L14 14L14 12L15 12L15 14L16 14L16 13L17 13L17 12L15 12L15 7L14 7L14 6L13 6L13 5L14 5L14 4L13 4L13 5L12 5L12 4ZM12 6L12 8L13 8L13 6ZM20 8L20 10L21 10L21 11L22 11L22 10L23 10L23 11L25 11L25 10L23 10L23 9L22 9L22 8ZM6 9L6 10L7 10L7 9ZM4 10L4 12L3 12L3 11L2 11L2 13L4 13L4 14L5 14L5 13L6 13L6 12L7 12L7 11L5 11L5 10ZM12 11L12 12L13 12L13 11ZM4 12L4 13L5 13L5 12ZM6 15L6 16L7 16L7 15ZM12 15L12 17L14 17L14 16L13 16L13 15ZM21 15L21 18L22 18L22 15ZM2 16L2 17L3 17L3 16ZM17 17L17 20L20 20L20 17ZM13 18L13 19L12 19L12 20L13 20L13 21L14 21L14 20L13 20L13 19L14 19L14 18ZM18 18L18 19L19 19L19 18ZM21 19L21 21L22 21L22 20L24 20L24 19ZM11 22L11 24L12 24L12 22ZM8 23L8 25L9 25L9 23ZM0 0L0 7L7 7L7 0ZM1 1L1 6L6 6L6 1ZM2 2L2 5L5 5L5 2ZM18 0L18 7L25 7L25 0ZM19 1L19 6L24 6L24 1ZM20 2L20 5L23 5L23 2ZM0 18L0 25L7 25L7 18ZM1 19L1 24L6 24L6 19ZM2 20L2 23L5 23L5 20Z" fill="#000000"/></g></g></svg>
