<?xml version="1.0" encoding="UTF-8"?>
<svg xmlns="http://www.w3.org/2000/svg" version="1.1" width="200" height="200" viewBox="0 0 200 200"><rect x="0" y="0" width="200" height="200" fill="#ffffff"/><g transform="scale(8)"><g transform="translate(0,0)"><path fill-rule="evenodd" d="M9 0L9 1L11 1L11 2L9 2L9 3L8 3L8 5L9 5L9 6L8 6L8 7L9 7L9 9L10 9L10 10L9 10L9 11L7 11L7 10L8 10L8 8L5 8L5 9L2 9L2 8L0 8L0 17L1 17L1 14L3 14L3 15L7 15L7 14L5 14L5 12L3 12L3 13L2 13L2 12L1 12L1 11L2 11L2 10L5 10L5 11L7 11L7 12L6 12L6 13L7 13L7 12L9 12L9 13L10 13L10 14L9 14L9 15L8 15L8 20L9 20L9 21L10 21L10 22L9 22L9 23L8 23L8 25L9 25L9 23L11 23L11 22L13 22L13 23L12 23L12 24L13 24L13 23L14 23L14 25L17 25L17 23L18 23L18 24L20 24L20 25L21 25L21 24L20 24L20 22L19 22L19 21L21 21L21 19L24 19L24 20L22 20L22 21L23 21L23 22L24 22L24 25L25 25L25 21L24 21L24 20L25 20L25 18L24 18L24 17L25 17L25 16L23 16L23 14L24 14L24 15L25 15L25 14L24 14L24 13L25 13L25 12L24 12L24 13L23 13L23 14L22 14L22 13L21 13L21 14L18 14L18 13L19 13L19 12L17 12L17 11L20 11L20 12L21 12L21 11L22 11L22 10L23 10L23 11L25 11L25 10L23 10L23 9L22 9L22 8L20 8L20 10L18 10L18 9L17 9L17 6L16 6L16 7L15 7L15 3L12 3L12 2L13 2L13 1L14 1L14 2L15 2L15 0L13 0L13 1L12 1L12 0ZM16 2L16 3L17 3L17 2ZM9 3L9 5L10 5L10 3ZM11 4L11 7L10 7L10 6L9 6L9 7L10 7L10 8L12 8L12 9L13 9L13 8L14 8L14 10L10 10L10 11L9 11L9 12L10 12L10 11L11 11L11 12L12 12L12 11L13 11L13 13L12 13L12 14L11 14L11 15L9 15L9 19L10 19L10 16L11 16L11 17L13 17L13 18L12 18L12 19L11 19L11 20L10 20L10 21L13 21L13 22L14 22L14 23L17 23L17 22L18 22L18 23L19 23L19 22L18 22L18 21L15 21L15 22L14 22L14 21L13 21L13 20L14 20L14 19L15 19L15 18L14 18L14 17L16 17L16 16L20 16L20 15L18 15L18 14L17 14L17 15L16 15L16 16L14 16L14 15L15 15L15 14L16 14L16 13L17 13L17 12L15 12L15 7L14 7L14 6L13 6L13 8L12 8L12 4ZM13 4L13 5L14 5L14 4ZM1 9L1 10L2 10L2 9ZM6 9L6 10L7 10L7 9ZM20 10L20 11L21 11L21 10ZM14 12L14 13L13 13L13 14L12 14L12 15L13 15L13 14L15 14L15 12ZM21 15L21 18L22 18L22 15ZM2 16L2 17L3 17L3 16ZM5 16L5 17L7 17L7 16ZM13 16L13 17L14 17L14 16ZM17 17L17 20L20 20L20 17ZM13 18L13 19L14 19L14 18ZM18 18L18 19L19 19L19 18ZM21 22L21 23L22 23L22 22ZM0 0L0 7L7 7L7 0ZM1 1L1 6L6 6L6 1ZM2 2L2 5L5 5L5 2ZM18 0L18 7L25 7L25 0ZM19 1L19 6L24 6L24 1ZM20 2L20 5L23 5L23 2ZM0 18L0 25L7 25L7 18ZM1 19L1 24L6 24L6 19ZM2 20L2 23L5 23L5 20Z" fill="#000000"/></g></g></svg>
